Kufam-SemiBold.ufo
<glyph name="exclam" format="2">
  <advance width="323.2"/>
  <unicode hex="0021"/>
  <note>
exclam
</note>
  <outline>
    <contour>
      <point x="101.6" y="232.0" type="curve"/>
      <point x="219.2" y="232.0" type="line"/>
      <point x="222.4" y="248.0"/>
      <point x="230.4" y="345.8"/>
      <point x="230.4" y="444.4" type="curve" smooth="yes"/>
      <point x="230.4" y="566.0" type="line" smooth="yes"/>
      <point x="230.4" y="601.8"/>
      <point x="230.4" y="674.4"/>
      <point x="238.4" y="710.4" type="curve"/>
      <point x="234.8" y="720.0" type="line"/>
      <point x="90.4" y="720.0" type="line"/>
      <point x="90.4" y="444.4" type="line" smooth="yes"/>
      <point x="90.4" y="345.8"/>
      <point x="98.4" y="248.0"/>
    </contour>
    <contour>
      <point x="161.6" y="-9.6" type="curve" smooth="yes"/>
      <point x="209.6" y="-9.6"/>
      <point x="244.0" y="22.4"/>
      <point x="244.0" y="72.8" type="curve" smooth="yes"/>
      <point x="244.0" y="123.2"/>
      <point x="209.6" y="155.2"/>
      <point x="161.6" y="155.2" type="curve" smooth="yes"/>
      <point x="113.6" y="155.2"/>
      <point x="79.2" y="123.2"/>
      <point x="79.2" y="72.8" type="curve" smooth="yes"/>
      <point x="79.2" y="22.4"/>
      <point x="113.6" y="-9.6"/>
    </contour>
  </outline>
</glyph>
<glyph name="numbersign" format="2">
  <advance width="616.0"/>
  <unicode hex="0023"/>
  <note>
numbersign
</note>
  <outline>
    <contour>
      <point x="306.4" y="0.0" type="line"/>
      <point x="403.2" y="0.0" type="line"/>
      <point x="535.2" y="720.0" type="line"/>
      <point x="438.4" y="720.0" type="line"/>
    </contour>
    <contour>
      <point x="32.0" y="204.0" type="line"/>
      <point x="560.0" y="204.0" type="line"/>
      <point x="560.0" y="293.6" type="line"/>
      <point x="32.0" y="293.6" type="line"/>
    </contour>
    <contour>
      <point x="80.8" y="0.0" type="line"/>
      <point x="177.6" y="0.0" type="line"/>
      <point x="309.6" y="720.0" type="line"/>
      <point x="212.8" y="720.0" type="line"/>
    </contour>
    <contour>
      <point x="56.0" y="426.4" type="line"/>
      <point x="584.0" y="426.4" type="line"/>
      <point x="584.0" y="516.0" type="line"/>
      <point x="56.0" y="516.0" type="line"/>
    </contour>
  </outline>
</glyph>
<glyph name="dollar" format="2">
  <advance width="616.0"/>
  <unicode hex="0024"/>
  <note>
dollar
</note>
  <outline>
    <contour>
      <point x="283.2" y="-12.0" type="curve" smooth="yes"/>
      <point x="436.0" y="-12.0"/>
      <point x="553.6" y="60.0"/>
      <point x="553.6" y="200.8" type="curve" smooth="yes"/>
      <point x="553.6" y="310.4"/>
      <point x="476.0" y="379.0"/>
      <point x="362.4" y="398.8" type="curve" smooth="yes"/>
      <point x="298.4" y="410.4" type="line" smooth="yes"/>
      <point x="233.0" y="422.2"/>
      <point x="199.2" y="448.0"/>
      <point x="199.2" y="506.4" type="curve" smooth="yes"/>
      <point x="199.2" y="583.2"/>
      <point x="263.2" y="615.2"/>
      <point x="366.4" y="615.2" type="curve" smooth="yes"/>
      <point x="427.2" y="615.2"/>
      <point x="483.6" y="600.6"/>
      <point x="516.0" y="586.4" type="curve"/>
      <point x="523.2" y="586.4" type="line"/>
      <point x="523.2" y="708.8" type="line"/>
      <point x="480.2" y="725.8"/>
      <point x="419.0" y="732.0"/>
      <point x="365.6" y="732.0" type="curve" smooth="yes"/>
      <point x="164.8" y="732.0"/>
      <point x="64.0" y="645.6"/>
      <point x="64.0" y="500.8" type="curve" smooth="yes"/>
      <point x="64.0" y="377.6"/>
      <point x="140.0" y="315.0"/>
      <point x="268.8" y="293.2" type="curve" smooth="yes"/>
      <point x="334.4" y="281.6" type="line" smooth="yes"/>
      <point x="392.6" y="271.2"/>
      <point x="417.2" y="240.8"/>
      <point x="417.2" y="196.0" type="curve" smooth="yes"/>
      <point x="417.2" y="138.4"/>
      <point x="368.0" y="106.4"/>
      <point x="283.2" y="106.4" type="curve" smooth="yes"/>
      <point x="202.6" y="106.4"/>
      <point x="124.2" y="126.4"/>
      <point x="79.2" y="152.4" type="curve"/>
      <point x="73.6" y="152.4" type="line"/>
      <point x="73.6" y="23.2" type="line"/>
      <point x="119.8" y="0.6"/>
      <point x="214.2" y="-12.0"/>
    </contour>
    <contour>
      <point x="255.2" y="-159.2" type="line"/>
      <point x="374.4" y="-159.2" type="line"/>
      <point x="374.4" y="42.4" type="line"/>
      <point x="255.2" y="42.4" type="line"/>
    </contour>
    <contour>
      <point x="253.6" y="658.4" type="line"/>
      <point x="372.8" y="658.4" type="line"/>
      <point x="372.8" y="860.0" type="line"/>
      <point x="253.6" y="860.0" type="line"/>
    </contour>
  </outline>
</glyph>
<glyph name="ampersand" format="2">
  <advance width="668.0"/>
  <unicode hex="0026"/>
  <note>
ampersand
</note>
  <outline>
    <contour>
      <point x="338.0" y="-12.0" type="curve" smooth="yes"/>
      <point x="416.8" y="-12.0"/>
      <point x="500.0" y="5.6"/>
      <point x="554.8" y="28.0" type="curve"/>
      <point x="557.6" y="36.0" type="line"/>
      <point x="549.2" y="72.0"/>
      <point x="548.0" y="158.4"/>
      <point x="548.0" y="198.4" type="curve" smooth="yes"/>
      <point x="548.0" y="293.6" type="line"/>
      <point x="623.2" y="293.6" type="line"/>
      <point x="623.2" y="403.2" type="line"/>
      <point x="316.0" y="403.2" type="line" smooth="yes"/>
      <point x="241.6" y="403.2"/>
      <point x="186.4" y="429.6"/>
      <point x="186.4" y="500.8" type="curve" smooth="yes"/>
      <point x="186.4" y="578.4"/>
      <point x="255.2" y="612.0"/>
      <point x="357.6" y="612.0" type="curve" smooth="yes"/>
      <point x="430.4" y="612.0"/>
      <point x="490.4" y="594.4"/>
      <point x="527.2" y="576.8" type="curve"/>
      <point x="536.8" y="576.8" type="line"/>
      <point x="536.8" y="702.4" type="line"/>
      <point x="497.6" y="719.2"/>
      <point x="430.4" y="732.0"/>
      <point x="366.4" y="732.0" type="curve" smooth="yes"/>
      <point x="156.0" y="732.0"/>
      <point x="45.6" y="650.4"/>
      <point x="45.6" y="498.4" type="curve" smooth="yes"/>
      <point x="45.6" y="409.4"/>
      <point x="97.0" y="348.4"/>
      <point x="183.8" y="316.8" type="curve"/>
      <point x="186.0" y="353.6" type="line"/>
      <point x="101.8" y="323.6"/>
      <point x="59.2" y="268.6"/>
      <point x="59.2" y="188.0" type="curve" smooth="yes"/>
      <point x="59.2" y="35.2"/>
      <point x="183.2" y="-12.0"/>
    </contour>
    <contour>
      <point x="429.2" y="83.8" type="curve"/>
      <point x="450.6" y="118.6" type="line"/>
      <point x="419.0" y="105.80000000000001"/>
      <point x="387.0" y="98.4"/>
      <point x="341.4" y="98.4" type="curve" smooth="yes"/>
      <point x="256.4" y="98.4"/>
      <point x="195.2" y="119.2"/>
      <point x="195.2" y="196.8" type="curve" smooth="yes"/>
      <point x="195.2" y="260.4"/>
      <point x="241.2" y="293.6"/>
      <point x="320.8" y="293.6" type="curve" smooth="yes"/>
      <point x="416.8" y="293.6" type="line"/>
      <point x="416.8" y="180.8" type="line" smooth="yes"/>
      <point x="416.8" y="136.8"/>
      <point x="420.4" y="104.0"/>
    </contour>
  </outline>
</glyph>
<glyph name="quotesingle" format="2">
  <advance width="204.0"/>
  <unicode hex="0027"/>
  <note>
quotesingle
</note>
  <outline>
    <contour>
      <point x="44.8" y="720.0" type="line"/>
      <point x="50.4" y="474.4" type="line"/>
      <point x="153.6" y="474.4" type="line"/>
      <point x="159.2" y="720.0" type="line"/>
    </contour>
  </outline>
</glyph>
<glyph name="parenleft" format="2">
  <advance width="370.4"/>
  <unicode hex="0028"/>
  <note>
parenleft
</note>
  <outline>
    <contour>
      <point x="202.4" y="-88.0" type="curve"/>
      <point x="343.2" y="-88.0" type="line"/>
      <point x="343.2" y="-84.0" type="line"/>
      <point x="250.4" y="20.0"/>
      <point x="192.0" y="160.0"/>
      <point x="192.0" y="336.0" type="curve" smooth="yes"/>
      <point x="192.0" y="512.0"/>
      <point x="250.4" y="652.0"/>
      <point x="343.2" y="756.0" type="curve"/>
      <point x="343.2" y="760.0" type="line"/>
      <point x="202.4" y="760.0" type="line"/>
      <point x="125.6" y="676.0"/>
      <point x="63.2" y="516.0"/>
      <point x="63.2" y="336.0" type="curve" smooth="yes"/>
      <point x="63.2" y="156.0"/>
      <point x="125.6" y="-4.0"/>
    </contour>
  </outline>
</glyph>
<glyph name="parenright" format="2">
  <advance width="370.4"/>
  <unicode hex="0029"/>
  <note>
parenright
</note>
  <outline>
    <contour>
      <point x="27.2" y="-84.0" type="curve"/>
      <point x="27.2" y="-88.0" type="line"/>
      <point x="168.0" y="-88.0" type="line"/>
      <point x="244.8" y="-4.0"/>
      <point x="307.2" y="156.0"/>
      <point x="307.2" y="336.0" type="curve" smooth="yes"/>
      <point x="307.2" y="516.0"/>
      <point x="244.8" y="676.0"/>
      <point x="168.0" y="760.0" type="curve"/>
      <point x="27.2" y="760.0" type="line"/>
      <point x="27.2" y="756.0" type="line"/>
      <point x="120.0" y="652.0"/>
      <point x="178.4" y="512.0"/>
      <point x="178.4" y="336.0" type="curve" smooth="yes"/>
      <point x="178.4" y="160.0"/>
      <point x="120.0" y="20.0"/>
    </contour>
  </outline>
</glyph>
<glyph name="asterisk" format="2">
  <advance width="544.0"/>
  <unicode hex="002A"/>
  <note>
asterisk
</note>
  <outline>
    <contour>
      <point x="235.6" y="495.2" type="line"/>
      <point x="218.8" y="270.4" type="line"/>
      <point x="325.2" y="270.4" type="line"/>
      <point x="308.4" y="495.2" type="line"/>
      <point x="325.2" y="720.0" type="line"/>
      <point x="218.8" y="720.0" type="line"/>
    </contour>
    <contour>
      <point x="253.8" y="463.6" type="line"/>
      <point x="440.4" y="336.8" type="line"/>
      <point x="493.6" y="428.8" type="line"/>
      <point x="290.2" y="526.8" type="line"/>
      <point x="103.6" y="653.6" type="line"/>
      <point x="50.4" y="561.6" type="line"/>
    </contour>
    <contour>
      <point x="290.2" y="463.6" type="line"/>
      <point x="493.0" y="561.6" type="line"/>
      <point x="440.4" y="654.2" type="line"/>
      <point x="253.8" y="526.8" type="line"/>
      <point x="51.0" y="428.8" type="line"/>
      <point x="103.6" y="336.2" type="line"/>
    </contour>
  </outline>
</glyph>
<glyph name="plus" format="2">
  <advance width="616.0"/>
  <unicode hex="002B"/>
  <note>
plus
</note>
  <outline>
    <contour>
      <point x="258.4" y="72.0" type="line"/>
      <point x="357.6" y="72.0" type="line"/>
      <point x="357.6" y="560.0" type="line"/>
      <point x="258.4" y="560.0" type="line"/>
    </contour>
    <contour>
      <point x="64.0" y="266.4" type="line"/>
      <point x="552.0" y="266.4" type="line"/>
      <point x="552.0" y="365.6" type="line"/>
      <point x="64.0" y="365.6" type="line"/>
    </contour>
  </outline>
</glyph>
<glyph name="comma" format="2">
  <advance width="281.6"/>
  <unicode hex="002C"/>
  <note>
comma
</note>
  <outline>
    <contour>
      <point x="108.0" y="-4.8" type="curve"/>
      <point x="29.2" y="-150.0" type="line"/>
      <point x="29.2" y="-157.6" type="line"/>
      <point x="135.6" y="-157.6" type="line"/>
      <point x="193.2" y="-34.4" type="line" smooth="yes"/>
      <point x="204.8" y="-10.0"/>
      <point x="224.4" y="27.6"/>
      <point x="224.4" y="67.2" type="curve" smooth="yes"/>
      <point x="224.4" y="125.6"/>
      <point x="188.8" y="155.2"/>
      <point x="140.8" y="155.2" type="curve" smooth="yes"/>
      <point x="92.8" y="155.2"/>
      <point x="58.4" y="122.0"/>
      <point x="58.4" y="70.4" type="curve" smooth="yes"/>
      <point x="58.4" y="26.8"/>
      <point x="85.6" y="5.600000000000001"/>
    </contour>
  </outline>
</glyph>
<glyph name="hyphen" format="2">
  <advance width="500.0"/>
  <unicode hex="002D"/>
  <note>
hyphen
</note>
  <outline>
    <contour>
      <point x="69.6" y="384.0" type="line"/>
      <point x="69.6" y="265.6" type="line"/>
      <point x="430.4" y="265.6" type="line"/>
      <point x="430.4" y="384.0" type="line"/>
    </contour>
  </outline>
</glyph>
<glyph name="period" format="2">
  <advance width="281.6"/>
  <unicode hex="002E"/>
  <note>
period
</note>
  <outline>
    <contour>
      <point x="140.8" y="-9.6" type="curve" smooth="yes"/>
      <point x="188.8" y="-9.6"/>
      <point x="223.2" y="22.4"/>
      <point x="223.2" y="72.8" type="curve" smooth="yes"/>
      <point x="223.2" y="123.2"/>
      <point x="188.8" y="155.2"/>
      <point x="140.8" y="155.2" type="curve" smooth="yes"/>
      <point x="92.8" y="155.2"/>
      <point x="58.4" y="123.2"/>
      <point x="58.4" y="72.8" type="curve" smooth="yes"/>
      <point x="58.4" y="22.4"/>
      <point x="92.8" y="-9.6"/>
    </contour>
  </outline>
</glyph>
<glyph name="slash" format="2">
  <advance width="544.8"/>
  <unicode hex="002F"/>
  <note>
slash
</note>
  <outline>
    <contour>
      <point x="397.6" y="720.0" type="line"/>
      <point x="24.8" y="0.0" type="line"/>
      <point x="147.2" y="0.0" type="line"/>
      <point x="520.0" y="720.0" type="line"/>
    </contour>
  </outline>
</glyph>
<glyph name="zero" format="2">
  <advance width="616.0"/>
  <unicode hex="0030"/>
  <note>
zero
</note>
  <outline>
    <contour>
      <point x="308.0" y="-12.0" type="curve" smooth="yes"/>
      <point x="499.2" y="-12.0"/>
      <point x="576.8" y="147.2"/>
      <point x="576.8" y="360.0" type="curve" smooth="yes"/>
      <point x="576.8" y="572.8"/>
      <point x="499.2" y="732.0"/>
      <point x="308.0" y="732.0" type="curve" smooth="yes"/>
      <point x="116.8" y="732.0"/>
      <point x="39.2" y="572.8"/>
      <point x="39.2" y="360.0" type="curve" smooth="yes"/>
      <point x="39.2" y="147.2"/>
      <point x="116.8" y="-12.0"/>
    </contour>
    <contour>
      <point x="308.0" y="104.0" type="curve" smooth="yes"/>
      <point x="213.6" y="104.0"/>
      <point x="176.8" y="200.8"/>
      <point x="176.8" y="360.0" type="curve" smooth="yes"/>
      <point x="176.8" y="519.2"/>
      <point x="213.6" y="616.0"/>
      <point x="308.0" y="616.0" type="curve" smooth="yes"/>
      <point x="402.4" y="616.0"/>
      <point x="439.2" y="519.2"/>
      <point x="439.2" y="360.0" type="curve" smooth="yes"/>
      <point x="439.2" y="200.8"/>
      <point x="402.4" y="104.0"/>
    </contour>
  </outline>
</glyph>
<glyph name="one" format="2">
  <advance width="616.0"/>
  <unicode hex="0031"/>
  <note>
one
</note>
  <outline>
    <contour>
      <point x="248.8" y="31.200000000000003" type="line"/>
      <point x="391.2" y="31.200000000000003" type="line"/>
      <point x="391.2" y="544.0" type="line" smooth="yes"/>
      <point x="391.2" y="584.0"/>
      <point x="391.2" y="668.0"/>
      <point x="399.2" y="704.0" type="curve"/>
      <point x="397.2" y="716.0" type="line"/>
      <point x="375.2" y="721.2"/>
      <point x="332.8" y="728.0"/>
      <point x="273.6" y="728.0" type="curve" smooth="yes"/>
      <point x="188.0" y="728.0"/>
      <point x="106.4" y="719.6"/>
      <point x="75.2" y="711.2" type="curve"/>
      <point x="75.2" y="604.8" type="line"/>
      <point x="310.8" y="604.8" type="line"/>
      <point x="257.2" y="617.2" type="line"/>
      <point x="251.4" y="612.0"/>
      <point x="248.8" y="551.4"/>
      <point x="248.8" y="520.8" type="curve" smooth="yes"/>
    </contour>
    <contour>
      <point x="57.6" y="0.0" type="line"/>
      <point x="563.2" y="0.0" type="line"/>
      <point x="563.2" y="120.80000000000001" type="line"/>
      <point x="57.6" y="120.80000000000001" type="line"/>
    </contour>
  </outline>
</glyph>
<glyph name="two" format="2">
  <advance width="616.0"/>
  <unicode hex="0032"/>
  <note>
two
</note>
  <outline>
    <contour>
      <point x="64.8" y="0.0" type="curve"/>
      <point x="555.2" y="0.0" type="line"/>
      <point x="555.2" y="117.6" type="line"/>
      <point x="127.0" y="117.6" type="line"/>
      <point x="187.2" y="79.0" type="line"/>
      <point x="182.4" y="94.0"/>
      <point x="179.6" y="99.6"/>
      <point x="179.6" y="114.8" type="curve" smooth="yes"/>
      <point x="179.6" y="177.2"/>
      <point x="212.8" y="222.0"/>
      <point x="300.0" y="244.8" type="curve" smooth="yes"/>
      <point x="341.6" y="256.0" type="line" smooth="yes"/>
      <point x="466.6" y="291.2"/>
      <point x="541.6" y="364.8"/>
      <point x="541.6" y="496.0" type="curve" smooth="yes"/>
      <point x="541.6" y="627.2"/>
      <point x="458.4" y="732.0"/>
      <point x="261.6" y="732.0" type="curve" smooth="yes"/>
      <point x="188.0" y="732.0"/>
      <point x="117.6" y="716.0"/>
      <point x="77.6" y="698.4" type="curve"/>
      <point x="77.6" y="578.4" type="line"/>
      <point x="87.2" y="578.4" type="line"/>
      <point x="123.2" y="596.0"/>
      <point x="183.2" y="614.4"/>
      <point x="248.0" y="614.4" type="curve" smooth="yes"/>
      <point x="355.2" y="614.4"/>
      <point x="406.4" y="568.8"/>
      <point x="406.4" y="493.6" type="curve" smooth="yes"/>
      <point x="406.4" y="421.6"/>
      <point x="372.0" y="382.0"/>
      <point x="298.4" y="362.4" type="curve" smooth="yes"/>
      <point x="253.0" y="350.4" type="line" smooth="yes"/>
      <point x="102.2" y="309.8"/>
      <point x="48.8" y="217.0"/>
      <point x="48.8" y="100.8" type="curve" smooth="yes"/>
      <point x="48.8" y="72.0"/>
      <point x="52.8" y="24.0"/>
    </contour>
  </outline>
</glyph>
<glyph name="three" format="2">
  <advance width="616.0"/>
  <unicode hex="0033"/>
  <note>
three
</note>
  <outline>
    <contour>
      <point x="251.2" y="-12.0" type="curve" smooth="yes"/>
      <point x="444.0" y="-12.0"/>
      <point x="549.6" y="80.8"/>
      <point x="549.6" y="216.0" type="curve" smooth="yes"/>
      <point x="549.6" y="342.2"/>
      <point x="459.0" y="429.8"/>
      <point x="285.8" y="424.4" type="curve"/>
      <point x="299.4" y="380.8" type="line"/>
      <point x="480.8" y="582.8" type="line" smooth="yes"/>
      <point x="507.2" y="612.4"/>
      <point x="521.6" y="640.8"/>
      <point x="521.6" y="674.4" type="curve" smooth="yes"/>
      <point x="521.6" y="684.0"/>
      <point x="518.8" y="700.0"/>
      <point x="516.0" y="710.0" type="curve"/>
      <point x="504.0" y="720.0" type="line"/>
      <point x="72.8" y="720.0" type="line"/>
      <point x="72.8" y="606.4" type="line"/>
      <point x="409.2" y="606.4" type="line"/>
      <point x="388.0" y="651.0" type="line"/>
      <point x="164.0" y="379.2" type="line"/>
      <point x="186.4" y="326.4" type="line"/>
      <point x="268.0" y="326.4" type="line" smooth="yes"/>
      <point x="368.0" y="326.4"/>
      <point x="412.8" y="282.4"/>
      <point x="412.8" y="218.4" type="curve" smooth="yes"/>
      <point x="412.8" y="158.4"/>
      <point x="370.4" y="100.8"/>
      <point x="248.0" y="100.8" type="curve" smooth="yes"/>
      <point x="174.4" y="100.8"/>
      <point x="108.8" y="126.4"/>
      <point x="75.2" y="148.4" type="curve"/>
      <point x="65.6" y="148.4" type="line"/>
      <point x="65.6" y="24.8" type="line"/>
      <point x="106.4" y="4.0"/>
      <point x="175.2" y="-12.0"/>
    </contour>
  </outline>
</glyph>
<glyph name="four" format="2">
  <advance width="616.0"/>
  <unicode hex="0034"/>
  <note>
four
</note>
  <outline>
    <contour>
      <point x="376.8" y="0.0" type="line"/>
      <point x="513.6" y="0.0" type="line"/>
      <point x="513.6" y="541.6" type="line" smooth="yes"/>
      <point x="513.6" y="581.6"/>
      <point x="513.6" y="663.2"/>
      <point x="520.4" y="701.6" type="curve"/>
      <point x="518.4" y="713.6" type="line"/>
      <point x="488.4" y="722.0"/>
      <point x="442.8" y="728.0"/>
      <point x="396.8" y="728.0" type="curve" smooth="yes"/>
      <point x="231.2" y="728.0"/>
      <point x="143.2" y="655.6"/>
      <point x="90.8" y="476.8" type="curve" smooth="yes"/>
      <point x="31.2" y="280.0" type="line"/>
      <point x="31.2" y="176.8" type="line"/>
      <point x="605.6" y="176.8" type="line"/>
      <point x="605.6" y="294.4" type="line"/>
      <point x="110.0" y="294.4" type="line"/>
      <point x="152.0" y="239.2" type="line"/>
      <point x="218.4" y="464.8" type="line" smooth="yes"/>
      <point x="249.0" y="563.6"/>
      <point x="284.0" y="607.2"/>
      <point x="367.2" y="607.2" type="curve" smooth="yes"/>
      <point x="387.2" y="607.2"/>
      <point x="408.6" y="603.6"/>
      <point x="430.0" y="598.4" type="curve"/>
      <point x="385.4" y="640.4" type="line"/>
      <point x="376.8" y="616.0"/>
      <point x="376.8" y="587.8"/>
      <point x="376.8" y="556.8" type="curve" smooth="yes"/>
    </contour>
  </outline>
</glyph>
<glyph name="five" format="2">
  <advance width="616.0"/>
  <unicode hex="0035"/>
  <note>
five
</note>
  <outline>
    <contour>
      <point x="57.6" y="150.0" type="line"/>
      <point x="57.6" y="26.4" type="line"/>
      <point x="98.4" y="5.6"/>
      <point x="169.6" y="-12.0"/>
      <point x="252.0" y="-12.0" type="curve" smooth="yes"/>
      <point x="447.2" y="-12.0"/>
      <point x="556.8" y="78.4"/>
      <point x="556.8" y="223.2" type="curve" smooth="yes"/>
      <point x="556.8" y="360.8"/>
      <point x="469.6" y="440.0"/>
      <point x="295.2" y="440.0" type="curve" smooth="yes"/>
      <point x="257.2" y="440.0"/>
      <point x="216.8" y="434.4"/>
      <point x="181.4" y="430.6" type="curve"/>
      <point x="218.4" y="376.6" type="line"/>
      <point x="218.4" y="548.0" type="line" smooth="yes"/>
      <point x="218.4" y="580.8"/>
      <point x="216.0" y="612.6"/>
      <point x="210.2" y="634.8" type="curve"/>
      <point x="158.4" y="604.0" type="line"/>
      <point x="523.2" y="604.0" type="line"/>
      <point x="523.2" y="720.0" type="line"/>
      <point x="222.4" y="720.0" type="line" smooth="yes"/>
      <point x="152.0" y="720.0"/>
      <point x="111.2" y="716.0"/>
      <point x="80.4" y="709.6" type="curve"/>
      <point x="78.4" y="700.0" type="line"/>
      <point x="86.4" y="664.0"/>
      <point x="86.4" y="573.6"/>
      <point x="86.4" y="533.6" type="curve" smooth="yes"/>
      <point x="86.4" y="316.0" type="line"/>
      <point x="94.4" y="312.0" type="line"/>
      <point x="130.4" y="320.0"/>
      <point x="180.4" y="335.2"/>
      <point x="260.8" y="335.2" type="curve" smooth="yes"/>
      <point x="371.2" y="335.2"/>
      <point x="417.6" y="295.2"/>
      <point x="417.6" y="224.8" type="curve" smooth="yes"/>
      <point x="417.6" y="160.8"/>
      <point x="374.4" y="104.0"/>
      <point x="247.2" y="104.0" type="curve" smooth="yes"/>
      <point x="166.4" y="104.0"/>
      <point x="98.4" y="130.4"/>
      <point x="67.2" y="150.0" type="curve"/>
    </contour>
  </outline>
</glyph>
<glyph name="six" format="2">
  <advance width="616.0"/>
  <unicode hex="0036"/>
  <note>
six
</note>
  <outline>
    <contour>
      <point x="317.6" y="-12.0" type="curve" smooth="yes"/>
      <point x="476.0" y="-12.0"/>
      <point x="573.6" y="86.4"/>
      <point x="573.6" y="236.8" type="curve" smooth="yes"/>
      <point x="573.6" y="380.0"/>
      <point x="490.4" y="469.6"/>
      <point x="342.4" y="469.6" type="curve" smooth="yes"/>
      <point x="256.0" y="469.6"/>
      <point x="204.8" y="437.6"/>
      <point x="175.6" y="410.0" type="curve"/>
      <point x="131.2" y="410.0" type="line"/>
      <point x="131.2" y="297.6" type="line"/>
      <point x="175.2" y="297.6" type="line"/>
      <point x="204.4" y="333.6"/>
      <point x="246.4" y="362.4"/>
      <point x="315.2" y="362.4" type="curve" smooth="yes"/>
      <point x="402.4" y="362.4"/>
      <point x="441.6" y="312.0"/>
      <point x="441.6" y="233.6" type="curve" smooth="yes"/>
      <point x="441.6" y="160.0"/>
      <point x="407.2" y="98.4"/>
      <point x="320.0" y="98.4" type="curve" smooth="yes"/>
      <point x="208.8" y="98.4"/>
      <point x="182.4" y="186.4"/>
      <point x="182.4" y="355.2" type="curve" smooth="yes"/>
      <point x="182.4" y="511.2"/>
      <point x="233.6" y="616.0"/>
      <point x="400.0" y="616.0" type="curve" smooth="yes"/>
      <point x="452.0" y="616.0"/>
      <point x="484.0" y="605.6"/>
      <point x="508.8" y="595.2" type="curve"/>
      <point x="518.4" y="595.2" type="line"/>
      <point x="518.4" y="715.2" type="line"/>
      <point x="486.4" y="725.6"/>
      <point x="450.4" y="732.0"/>
      <point x="399.2" y="732.0" type="curve" smooth="yes"/>
      <point x="152.0" y="732.0"/>
      <point x="44.8" y="571.2"/>
      <point x="44.8" y="346.4" type="curve" smooth="yes"/>
      <point x="44.8" y="141.6"/>
      <point x="107.2" y="-12.0"/>
    </contour>
  </outline>
</glyph>
<glyph name="seven" format="2">
  <advance width="616.0"/>
  <unicode hex="0037"/>
  <note>
seven
</note>
  <outline>
    <contour>
      <point x="68.0" y="720.0" type="line"/>
      <point x="68.0" y="600.8" type="line"/>
      <point x="486.0" y="600.8" type="line"/>
      <point x="454.2" y="652.4" type="line"/>
      <point x="138.4" y="8.4" type="line"/>
      <point x="138.4" y="0.0" type="line"/>
      <point x="288.0" y="0.0" type="line"/>
      <point x="534.4" y="556.0" type="line" smooth="yes"/>
      <point x="550.4" y="592.0"/>
      <point x="562.4" y="631.6"/>
      <point x="562.4" y="669.6" type="curve" smooth="yes"/>
      <point x="562.4" y="681.6"/>
      <point x="560.4" y="696.0"/>
      <point x="558.4" y="710.0" type="curve"/>
      <point x="546.4" y="720.0" type="line"/>
    </contour>
  </outline>
</glyph>
<glyph name="eight" format="2">
  <advance width="616.0"/>
  <unicode hex="0038"/>
  <note>
eight
</note>
  <outline>
    <contour>
      <point x="306.4" y="-12.0" type="curve" smooth="yes"/>
      <point x="471.2" y="-12.0"/>
      <point x="575.2" y="68.8"/>
      <point x="575.2" y="196.0" type="curve" smooth="yes"/>
      <point x="575.2" y="310.0"/>
      <point x="482.6" y="369.6"/>
      <point x="370.4" y="405.6" type="curve" smooth="yes"/>
      <point x="320.8" y="421.6" type="line" smooth="yes"/>
      <point x="243.0" y="446.8"/>
      <point x="195.2" y="466.4"/>
      <point x="195.2" y="532.8" type="curve" smooth="yes"/>
      <point x="195.2" y="584.8"/>
      <point x="235.2" y="624.8"/>
      <point x="309.6" y="624.8" type="curve" smooth="yes"/>
      <point x="390.4" y="624.8"/>
      <point x="429.2" y="583.2"/>
      <point x="429.2" y="519.2" type="curve" smooth="yes"/>
      <point x="429.2" y="458.8"/>
      <point x="387.2" y="414.8"/>
      <point x="346.8" y="396.0" type="curve"/>
      <point x="430.8" y="344.8" type="line"/>
      <point x="496.0" y="373.6"/>
      <point x="558.4" y="439.6"/>
      <point x="558.4" y="529.6" type="curve" smooth="yes"/>
      <point x="558.4" y="644.0"/>
      <point x="475.2" y="732.0"/>
      <point x="317.6" y="732.0" type="curve" smooth="yes"/>
      <point x="139.2" y="732.0"/>
      <point x="64.0" y="636.8"/>
      <point x="64.0" y="528.8" type="curve" smooth="yes"/>
      <point x="64.0" y="419.2"/>
      <point x="138.6" y="364.0"/>
      <point x="240.0" y="331.2" type="curve" smooth="yes"/>
      <point x="284.8" y="316.8" type="line" smooth="yes"/>
      <point x="361.8" y="292.0"/>
      <point x="438.4" y="270.4"/>
      <point x="438.4" y="196.0" type="curve" smooth="yes"/>
      <point x="438.4" y="135.2"/>
      <point x="393.6" y="95.2"/>
      <point x="308.8" y="95.2" type="curve" smooth="yes"/>
      <point x="224.8" y="95.2"/>
      <point x="172.8" y="134.4"/>
      <point x="172.8" y="208.0" type="curve" smooth="yes"/>
      <point x="172.8" y="288.8"/>
      <point x="240.8" y="336.0"/>
      <point x="320.8" y="352.0" type="curve"/>
      <point x="227.2" y="400.0" type="line"/>
      <point x="124.8" y="372.8"/>
      <point x="40.8" y="302.0"/>
      <point x="40.8" y="192.8" type="curve" smooth="yes"/>
      <point x="40.8" y="70.4"/>
      <point x="124.8" y="-12.0"/>
    </contour>
  </outline>
</glyph>
<glyph name="nine" format="2">
  <advance width="616.0"/>
  <unicode hex="0039"/>
  <note>
nine
</note>
  <outline>
    <contour>
      <point x="216.8" y="-12.0" type="curve" smooth="yes"/>
      <point x="464.0" y="-12.0"/>
      <point x="571.2" y="148.8"/>
      <point x="571.2" y="373.6" type="curve" smooth="yes"/>
      <point x="571.2" y="578.4"/>
      <point x="508.8" y="732.0"/>
      <point x="298.4" y="732.0" type="curve" smooth="yes"/>
      <point x="140.0" y="732.0"/>
      <point x="42.4" y="633.6"/>
      <point x="42.4" y="483.2" type="curve" smooth="yes"/>
      <point x="42.4" y="340.0"/>
      <point x="125.6" y="250.4"/>
      <point x="273.6" y="250.4" type="curve" smooth="yes"/>
      <point x="360.0" y="250.4"/>
      <point x="411.2" y="282.4"/>
      <point x="440.4" y="310.0" type="curve"/>
      <point x="484.8" y="310.0" type="line"/>
      <point x="484.8" y="422.4" type="line"/>
      <point x="440.8" y="422.4" type="line"/>
      <point x="411.6" y="386.4"/>
      <point x="369.6" y="357.6"/>
      <point x="300.8" y="357.6" type="curve" smooth="yes"/>
      <point x="213.6" y="357.6"/>
      <point x="174.4" y="408.0"/>
      <point x="174.4" y="486.4" type="curve" smooth="yes"/>
      <point x="174.4" y="560.0"/>
      <point x="208.8" y="621.6"/>
      <point x="296.0" y="621.6" type="curve" smooth="yes"/>
      <point x="407.2" y="621.6"/>
      <point x="433.6" y="533.6"/>
      <point x="433.6" y="364.8" type="curve" smooth="yes"/>
      <point x="433.6" y="208.8"/>
      <point x="382.4" y="104.0"/>
      <point x="216.0" y="104.0" type="curve" smooth="yes"/>
      <point x="164.0" y="104.0"/>
      <point x="133.6" y="114.4"/>
      <point x="107.2" y="124.8" type="curve"/>
      <point x="97.6" y="124.8" type="line"/>
      <point x="97.6" y="4.8" type="line"/>
      <point x="129.6" y="-5.6"/>
      <point x="165.6" y="-12.0"/>
    </contour>
  </outline>
</glyph>
<glyph name="colon" format="2">
  <advance width="281.6"/>
  <unicode hex="003A"/>
  <note>
colon
</note>
  <outline>
    <contour>
      <point x="140.8" y="-9.6" type="curve" smooth="yes"/>
      <point x="188.8" y="-9.6"/>
      <point x="223.2" y="22.4"/>
      <point x="223.2" y="72.8" type="curve" smooth="yes"/>
      <point x="223.2" y="123.2"/>
      <point x="188.8" y="155.2"/>
      <point x="140.8" y="155.2" type="curve" smooth="yes"/>
      <point x="92.8" y="155.2"/>
      <point x="58.4" y="123.2"/>
      <point x="58.4" y="72.8" type="curve" smooth="yes"/>
      <point x="58.4" y="22.4"/>
      <point x="92.8" y="-9.6"/>
    </contour>
    <contour>
      <point x="140.8" y="379.2" type="curve" smooth="yes"/>
      <point x="188.8" y="379.2"/>
      <point x="223.2" y="411.2"/>
      <point x="223.2" y="461.6" type="curve" smooth="yes"/>
      <point x="223.2" y="512.0"/>
      <point x="188.8" y="544.0"/>
      <point x="140.8" y="544.0" type="curve" smooth="yes"/>
      <point x="92.8" y="544.0"/>
      <point x="58.4" y="512.0"/>
      <point x="58.4" y="461.6" type="curve" smooth="yes"/>
      <point x="58.4" y="411.2"/>
      <point x="92.8" y="379.2"/>
    </contour>
  </outline>
</glyph>
<glyph name="semicolon" format="2">
  <advance width="281.0"/>
  <unicode hex="003B"/>
  <note>
semicolon
</note>
  <outline>
    <contour>
      <point x="140.2" y="379.2" type="curve" smooth="yes"/>
      <point x="188.2" y="379.2"/>
      <point x="222.6" y="411.2"/>
      <point x="222.6" y="461.6" type="curve" smooth="yes"/>
      <point x="222.6" y="512.0"/>
      <point x="188.2" y="544.0"/>
      <point x="140.2" y="544.0" type="curve" smooth="yes"/>
      <point x="92.2" y="544.0"/>
      <point x="57.8" y="512.0"/>
      <point x="57.8" y="461.6" type="curve" smooth="yes"/>
      <point x="57.8" y="411.2"/>
      <point x="92.2" y="379.2"/>
    </contour>
    <contour>
      <point x="107.4" y="-4.8" type="curve"/>
      <point x="29.2" y="-149.4" type="line"/>
      <point x="29.2" y="-157.0" type="line"/>
      <point x="135.6" y="-157.0" type="line"/>
      <point x="192.6" y="-34.4" type="line" smooth="yes"/>
      <point x="204.2" y="-10.0"/>
      <point x="223.8" y="27.6"/>
      <point x="223.8" y="67.2" type="curve" smooth="yes"/>
      <point x="223.8" y="125.6"/>
      <point x="188.2" y="155.2"/>
      <point x="140.2" y="155.2" type="curve" smooth="yes"/>
      <point x="92.2" y="155.2"/>
      <point x="57.8" y="122.0"/>
      <point x="57.8" y="70.4" type="curve" smooth="yes"/>
      <point x="57.8" y="26.8"/>
      <point x="85.0" y="5.600000000000001"/>
    </contour>
  </outline>
</glyph>
<glyph name="less" format="2">
  <advance width="616.0"/>
  <unicode hex="003C"/>
  <note>
less
</note>
  <outline>
    <contour>
      <point x="84.0" y="284.8" type="line"/>
      <point x="524.0" y="62.4" type="line"/>
      <point x="532.0" y="62.4" type="line"/>
      <point x="532.0" y="171.2" type="line"/>
      <point x="228.8" y="317.6" type="line"/>
      <point x="532.0" y="468.0" type="line"/>
      <point x="532.0" y="575.2" type="line"/>
      <point x="524.0" y="575.2" type="line"/>
      <point x="84.0" y="350.4" type="line"/>
    </contour>
  </outline>
</glyph>
<glyph name="equal" format="2">
  <advance width="616.0"/>
  <unicode hex="003D"/>
  <note>
equal
</note>
  <outline>
    <contour>
      <point x="64.0" y="470.4" type="line"/>
      <point x="64.0" y="371.2" type="line"/>
      <point x="552.0" y="371.2" type="line"/>
      <point x="552.0" y="470.4" type="line"/>
    </contour>
    <contour>
      <point x="64.0" y="260.8" type="line"/>
      <point x="64.0" y="161.6" type="line"/>
      <point x="552.0" y="161.6" type="line"/>
      <point x="552.0" y="260.8" type="line"/>
    </contour>
  </outline>
</glyph>
<glyph name="greater" format="2">
  <advance width="616.0"/>
  <unicode hex="003E"/>
  <note>
greater
</note>
  <outline>
    <contour>
      <point x="92.0" y="62.4" type="line"/>
      <point x="532.0" y="284.8" type="line"/>
      <point x="532.0" y="350.4" type="line"/>
      <point x="92.0" y="575.2" type="line"/>
      <point x="84.0" y="575.2" type="line"/>
      <point x="84.0" y="468.0" type="line"/>
      <point x="387.2" y="317.6" type="line"/>
      <point x="84.0" y="171.2" type="line"/>
      <point x="84.0" y="62.4" type="line"/>
    </contour>
  </outline>
</glyph>
<glyph name="question" format="2">
  <advance width="503.2"/>
  <unicode hex="003F"/>
  <note>
question
</note>
  <outline>
    <contour>
      <point x="158.4" y="213.6" type="line"/>
      <point x="287.2" y="213.6" type="line"/>
      <point x="287.2" y="267.2" type="line" smooth="yes"/>
      <point x="287.2" y="296.0"/>
      <point x="293.2" y="325.2"/>
      <point x="323.2" y="346.2" type="curve" smooth="yes"/>
      <point x="358.4" y="371.0" type="line" smooth="yes"/>
      <point x="390.0" y="393.0"/>
      <point x="464.8" y="438.4"/>
      <point x="464.8" y="543.2" type="curve" smooth="yes"/>
      <point x="464.8" y="672.0"/>
      <point x="379.2" y="732.0"/>
      <point x="234.4" y="732.0" type="curve" smooth="yes"/>
      <point x="163.2" y="732.0"/>
      <point x="102.4" y="720.0"/>
      <point x="52.8" y="697.6" type="curve"/>
      <point x="52.8" y="580.8" type="line"/>
      <point x="62.4" y="580.8" type="line"/>
      <point x="103.2" y="603.2"/>
      <point x="156.8" y="619.2"/>
      <point x="212.8" y="619.2" type="curve" smooth="yes"/>
      <point x="284.8" y="619.2"/>
      <point x="325.6" y="592.0"/>
      <point x="325.6" y="534.4" type="curve" smooth="yes"/>
      <point x="325.6" y="483.2"/>
      <point x="300.6" y="461.8"/>
      <point x="268.0" y="439.0" type="curve" smooth="yes"/>
      <point x="225.6" y="409.4" type="line" smooth="yes"/>
      <point x="177.6" y="375.6"/>
      <point x="158.4" y="330.4"/>
      <point x="158.4" y="271.2" type="curve" smooth="yes"/>
    </contour>
    <contour>
      <point x="224.8" y="-9.6" type="curve" smooth="yes"/>
      <point x="272.8" y="-9.6"/>
      <point x="307.2" y="22.4"/>
      <point x="307.2" y="72.8" type="curve" smooth="yes"/>
      <point x="307.2" y="123.2"/>
      <point x="272.8" y="155.2"/>
      <point x="224.8" y="155.2" type="curve" smooth="yes"/>
      <point x="176.8" y="155.2"/>
      <point x="142.4" y="123.2"/>
      <point x="142.4" y="72.8" type="curve" smooth="yes"/>
      <point x="142.4" y="22.4"/>
      <point x="176.8" y="-9.6"/>
    </contour>
  </outline>
</glyph>
<glyph name="at" format="2">
  <advance width="974.0"/>
  <unicode hex="0040"/>
  <note>
at
</note>
  <outline>
    <contour>
      <point x="515.6" y="-168.8" type="curve" smooth="yes"/>
      <point x="580.8" y="-168.8"/>
      <point x="661.2" y="-156.8"/>
      <point x="698.4" y="-140.8" type="curve"/>
      <point x="698.4" y="-42.4" type="line"/>
      <point x="688.8" y="-42.4" type="line"/>
      <point x="652.8" y="-59.6"/>
      <point x="578.4" y="-72.8"/>
      <point x="515.6" y="-72.8" type="curve" smooth="yes"/>
      <point x="310.4" y="-72.8"/>
      <point x="153.6" y="28.8"/>
      <point x="153.6" y="284.8" type="curve" smooth="yes"/>
      <point x="153.6" y="532.0"/>
      <point x="299.2" y="636.8"/>
      <point x="512.4" y="636.8" type="curve" smooth="yes"/>
      <point x="692.0" y="636.8"/>
      <point x="825.2" y="548.0"/>
      <point x="825.2" y="376.0" type="curve" smooth="yes"/>
      <point x="825.2" y="252.8"/>
      <point x="771.2" y="182.6"/>
      <point x="685.6" y="148.6" type="curve"/>
      <point x="684.0" y="170.2"/>
      <point x="684.4" y="194.0"/>
      <point x="684.4" y="210.0" type="curve" smooth="yes"/>
      <point x="684.4" y="312.0" type="line" smooth="yes"/>
      <point x="684.4" y="464.8"/>
      <point x="600.4" y="506.4"/>
      <point x="476.4" y="506.4" type="curve" smooth="yes"/>
      <point x="423.6" y="506.4"/>
      <point x="377.2" y="496.0"/>
      <point x="339.6" y="482.8" type="curve"/>
      <point x="339.6" y="386.4" type="line"/>
      <point x="347.6" y="386.4" type="line"/>
      <point x="371.6" y="396.8"/>
      <point x="412.4" y="411.2"/>
      <point x="460.4" y="411.2" type="curve" smooth="yes"/>
      <point x="540.0" y="411.2"/>
      <point x="569.2" y="385.8"/>
      <point x="569.2" y="314.6" type="curve" smooth="yes"/>
      <point x="569.2" y="185.4" type="line" smooth="yes"/>
      <point x="569.2" y="146.0"/>
      <point x="577.6" y="117.2"/>
      <point x="590.6" y="106.2" type="curve"/>
      <point x="597.4" y="128.8" type="line"/>
      <point x="574.0" y="125.0"/>
      <point x="547.4" y="122.4"/>
      <point x="520.0" y="122.4" type="curve" smooth="yes"/>
      <point x="450.0" y="122.4"/>
      <point x="412.4" y="140.0"/>
      <point x="412.4" y="184.0" type="curve" smooth="yes"/>
      <point x="412.4" y="224.8"/>
      <point x="443.2" y="245.6"/>
      <point x="506.0" y="245.6" type="curve" smooth="yes"/>
      <point x="532.8" y="245.6"/>
      <point x="560.4" y="240.6"/>
      <point x="586.4" y="233.6" type="curve"/>
      <point x="586.4" y="310.4" type="line"/>
      <point x="557.6" y="317.2"/>
      <point x="527.2" y="323.2"/>
      <point x="490.8" y="323.2" type="curve" smooth="yes"/>
      <point x="382.4" y="323.2"/>
      <point x="300.4" y="277.6"/>
      <point x="300.4" y="184.8" type="curve" smooth="yes"/>
      <point x="300.4" y="83.2"/>
      <point x="381.2" y="34.4"/>
      <point x="520.0" y="34.4" type="curve" smooth="yes"/>
      <point x="748.0" y="34.4"/>
      <point x="928.4" y="138.4"/>
      <point x="928.4" y="376.0" type="curve" smooth="yes"/>
      <point x="928.4" y="596.0"/>
      <point x="760.4" y="735.2"/>
      <point x="512.4" y="735.2" type="curve" smooth="yes"/>
      <point x="221.2" y="735.2"/>
      <point x="45.6" y="561.6"/>
      <point x="45.6" y="284.8" type="curve" smooth="yes"/>
      <point x="45.6" y="-14.4"/>
      <point x="234.4" y="-168.8"/>
    </contour>
  </outline>
</glyph>
<glyph name="A" format="2">
  <advance width="691.6"/>
  <unicode hex="0041"/>
  <note>
A
</note>
  <anchor x="345.8" y="0.0" name="bottom"/>
  <anchor x="606.8" y="6.0" name="ogonek"/>
  <anchor x="390.2" y="720.0" name="top"/>
  <outline>
    <contour>
      <point x="40.0" y="0.0" type="line"/>
      <point x="183.6" y="0.0" type="line"/>
      <point x="262.0" y="472.0" type="line" smooth="yes"/>
      <point x="277.4" y="563.8"/>
      <point x="314.0" y="607.2"/>
      <point x="423.6" y="607.2" type="curve" smooth="yes"/>
      <point x="448.6" y="607.2"/>
      <point x="475.8" y="605.2"/>
      <point x="491.2" y="599.6" type="curve"/>
      <point x="471.2" y="637.0" type="line"/>
      <point x="466.0" y="612.8"/>
      <point x="464.4" y="583.6"/>
      <point x="464.4" y="550.4" type="curve" smooth="yes"/>
      <point x="464.4" y="0.0" type="line"/>
      <point x="606.8" y="0.0" type="line"/>
      <point x="606.8" y="538.4" type="line" smooth="yes"/>
      <point x="606.8" y="578.4"/>
      <point x="606.8" y="660.0"/>
      <point x="613.6" y="698.4" type="curve"/>
      <point x="611.6" y="710.4" type="line"/>
      <point x="558.8" y="722.4"/>
      <point x="498.0" y="728.0"/>
      <point x="445.2" y="728.0" type="curve" smooth="yes"/>
      <point x="248.4" y="728.0"/>
      <point x="151.8" y="662.8"/>
      <point x="120.0" y="475.2" type="curve" smooth="yes"/>
    </contour>
    <contour>
      <point x="156.0" y="199.2" type="line"/>
      <point x="528.4" y="199.2" type="line"/>
      <point x="528.4" y="316.8" type="line"/>
      <point x="156.0" y="316.8" type="line"/>
    </contour>
  </outline>
</glyph>
<glyph name="B" format="2">
  <advance width="665.6"/>
  <unicode hex="0042"/>
  <note>
B
</note>
  <anchor x="332.8" y="0.0" name="bottom"/>
  <anchor x="332.8" y="720.0" name="top"/>
  <outline>
    <contour>
      <point x="163.2" y="0.0" type="line"/>
      <point x="391.2" y="0.0" type="line" smooth="yes"/>
      <point x="544.0" y="0.0"/>
      <point x="616.0" y="80.8"/>
      <point x="616.0" y="187.2" type="curve" smooth="yes"/>
      <point x="616.0" y="272.0"/>
      <point x="562.0" y="334.4"/>
      <point x="463.4" y="346.4" type="curve"/>
      <point x="470.0" y="318.0" type="line"/>
      <point x="558.4" y="354.2"/>
      <point x="604.0" y="438.6"/>
      <point x="604.0" y="520.8" type="curve" smooth="yes"/>
      <point x="604.0" y="652.8"/>
      <point x="523.2" y="720.0"/>
      <point x="361.6" y="720.0" type="curve" smooth="yes"/>
      <point x="163.2" y="720.0" type="line"/>
      <point x="163.2" y="600.8" type="line"/>
      <point x="354.4" y="600.8" type="line" smooth="yes"/>
      <point x="418.4" y="600.8"/>
      <point x="461.6" y="579.2"/>
      <point x="461.6" y="508.0" type="curve" smooth="yes"/>
      <point x="461.6" y="440.0"/>
      <point x="424.0" y="380.0"/>
      <point x="346.4" y="380.0" type="curve" smooth="yes"/>
      <point x="163.2" y="380.0" type="line"/>
      <point x="163.2" y="270.4" type="line"/>
      <point x="385.6" y="270.4" type="line" smooth="yes"/>
      <point x="436.8" y="270.4"/>
      <point x="473.6" y="249.6"/>
      <point x="473.6" y="195.2" type="curve" smooth="yes"/>
      <point x="473.6" y="136.8"/>
      <point x="434.4" y="116.0"/>
      <point x="385.6" y="116.0" type="curve" smooth="yes"/>
      <point x="163.2" y="116.0" type="line"/>
    </contour>
    <contour>
      <point x="84.8" y="0.0" type="line"/>
      <point x="227.2" y="0.0" type="line"/>
      <point x="227.2" y="720.0" type="line"/>
      <point x="84.8" y="720.0" type="line"/>
    </contour>
  </outline>
</glyph>
<glyph name="C" format="2">
  <advance width="648.0"/>
  <unicode hex="0043"/>
  <note>
C
</note>
  <anchor x="385.6" y="0.0" name="bottom"/>
  <anchor x="385.6" y="720.0" name="top"/>
  <outline>
    <contour>
      <point x="48.0" y="360.0" type="curve" smooth="yes"/>
      <point x="48.0" y="129.6"/>
      <point x="181.6" y="-12.0"/>
      <point x="431.2" y="-12.0" type="curve" smooth="yes"/>
      <point x="499.2" y="-12.0"/>
      <point x="554.4" y="0.0"/>
      <point x="589.6" y="16.8" type="curve"/>
      <point x="589.6" y="143.2" type="line"/>
      <point x="580.0" y="143.2" type="line"/>
      <point x="544.8" y="123.2"/>
      <point x="494.4" y="111.2"/>
      <point x="437.6" y="111.2" type="curve" smooth="yes"/>
      <point x="279.2" y="111.2"/>
      <point x="194.4" y="200.0"/>
      <point x="194.4" y="360.0" type="curve" smooth="yes"/>
      <point x="194.4" y="520.0"/>
      <point x="279.2" y="608.8"/>
      <point x="437.6" y="608.8" type="curve" smooth="yes"/>
      <point x="494.4" y="608.8"/>
      <point x="544.8" y="596.8"/>
      <point x="580.0" y="576.8" type="curve"/>
      <point x="589.6" y="576.8" type="line"/>
      <point x="589.6" y="703.2" type="line"/>
      <point x="554.4" y="720.0"/>
      <point x="499.2" y="732.0"/>
      <point x="431.2" y="732.0" type="curve" smooth="yes"/>
      <point x="181.6" y="732.0"/>
      <point x="48.0" y="585.6"/>
    </contour>
  </outline>
</glyph>
<glyph name="D" format="2">
  <advance width="744.0"/>
  <unicode hex="0044"/>
  <note>
D
</note>
  <anchor x="372.0" y="0.0" name="bottom"/>
  <anchor x="168.8" y="369.6" name="center"/>
  <anchor x="372.0" y="720.0" name="top"/>
  <outline>
    <contour>
      <point x="163.2" y="0.0" type="line"/>
      <point x="318.4" y="0.0" type="line" smooth="yes"/>
      <point x="591.2" y="0.0"/>
      <point x="696.0" y="190.4"/>
      <point x="696.0" y="396.8" type="curve" smooth="yes"/>
      <point x="696.0" y="607.2"/>
      <point x="575.2" y="720.0"/>
      <point x="345.6" y="720.0" type="curve" smooth="yes"/>
      <point x="163.2" y="720.0" type="line"/>
      <point x="163.2" y="596.0" type="line"/>
      <point x="345.6" y="596.0" type="line" smooth="yes"/>
      <point x="486.4" y="596.0"/>
      <point x="549.6" y="525.6"/>
      <point x="549.6" y="395.2" type="curve" smooth="yes"/>
      <point x="549.6" y="259.2"/>
      <point x="490.4" y="124.0"/>
      <point x="323.2" y="124.0" type="curve" smooth="yes"/>
      <point x="163.2" y="124.0" type="line"/>
    </contour>
    <contour>
      <point x="84.8" y="0.0" type="line"/>
      <point x="227.2" y="0.0" type="line"/>
      <point x="227.2" y="720.0" type="line"/>
      <point x="84.8" y="720.0" type="line"/>
    </contour>
  </outline>
</glyph>
<glyph name="E" format="2">
  <advance width="614.4"/>
  <unicode hex="0045"/>
  <note>
E
</note>
  <anchor x="307.2" y="0.0" name="bottom"/>
  <anchor x="564.0" y="0.0" name="ogonek"/>
  <anchor x="307.2" y="720.0" name="top"/>
  <anchor x="20.0" y="720.0" name="topleft"/>
  <outline>
    <contour>
      <point x="84.8" y="0.0" type="line"/>
      <point x="227.2" y="0.0" type="line"/>
      <point x="227.2" y="720.0" type="line"/>
      <point x="84.8" y="720.0" type="line"/>
    </contour>
    <contour>
      <point x="163.2" y="0.0" type="line"/>
      <point x="564.0" y="0.0" type="line"/>
      <point x="564.0" y="124.0" type="line"/>
      <point x="163.2" y="124.0" type="line"/>
    </contour>
    <contour>
      <point x="163.2" y="308.8" type="line"/>
      <point x="500.8" y="308.8" type="line"/>
      <point x="500.8" y="428.0" type="line"/>
      <point x="163.2" y="428.0" type="line"/>
    </contour>
    <contour>
      <point x="163.2" y="596.0" type="line"/>
      <point x="553.6" y="596.0" type="line"/>
      <point x="553.6" y="720.0" type="line"/>
      <point x="163.2" y="720.0" type="line"/>
    </contour>
  </outline>
</glyph>
<glyph name="F" format="2">
  <advance width="578.4"/>
  <unicode hex="0046"/>
  <note>
F
</note>
  <anchor x="289.2" y="0.0" name="bottom"/>
  <anchor x="289.2" y="720.0" name="top"/>
  <outline>
    <contour>
      <point x="84.8" y="0.0" type="line"/>
      <point x="227.2" y="0.0" type="line"/>
      <point x="227.2" y="720.0" type="line"/>
      <point x="84.8" y="720.0" type="line"/>
    </contour>
    <contour>
      <point x="163.2" y="254.4" type="line"/>
      <point x="493.6" y="254.4" type="line"/>
      <point x="493.6" y="373.6" type="line"/>
      <point x="163.2" y="373.6" type="line"/>
    </contour>
    <contour>
      <point x="163.2" y="596.0" type="line"/>
      <point x="546.4" y="596.0" type="line"/>
      <point x="546.4" y="720.0" type="line"/>
      <point x="163.2" y="720.0" type="line"/>
    </contour>
  </outline>
</glyph>
<glyph name="G" format="2">
  <advance width="701.6"/>
  <unicode hex="0047"/>
  <note>
G
</note>
  <anchor x="350.8" y="0.0" name="bottom"/>
  <anchor x="350.8" y="720.0" name="top"/>
  <outline>
    <contour>
      <point x="48.0" y="358.4" type="curve" smooth="yes"/>
      <point x="48.0" y="136.0"/>
      <point x="172.8" y="-12.0"/>
      <point x="423.2" y="-12.0" type="curve" smooth="yes"/>
      <point x="505.6" y="-12.0"/>
      <point x="579.2" y="4.0"/>
      <point x="628.0" y="28.0" type="curve"/>
      <point x="628.0" y="366.4" type="line"/>
      <point x="493.6" y="366.4" type="line"/>
      <point x="493.6" y="58.8" type="line"/>
      <point x="522.0" y="130.8" type="line"/>
      <point x="495.6" y="114.4"/>
      <point x="464.4" y="107.2"/>
      <point x="424.8" y="107.2" type="curve" smooth="yes"/>
      <point x="282.4" y="107.2"/>
      <point x="194.4" y="192.0"/>
      <point x="194.4" y="356.8" type="curve" smooth="yes"/>
      <point x="194.4" y="525.6"/>
      <point x="284.0" y="608.8"/>
      <point x="447.2" y="608.8" type="curve" smooth="yes"/>
      <point x="511.2" y="608.8"/>
      <point x="568.0" y="593.2"/>
      <point x="600.8" y="576.8" type="curve"/>
      <point x="610.4" y="576.8" type="line"/>
      <point x="610.4" y="703.2" type="line"/>
      <point x="575.2" y="720.0"/>
      <point x="516.0" y="732.0"/>
      <point x="443.2" y="732.0" type="curve" smooth="yes"/>
      <point x="188.8" y="732.0"/>
      <point x="48.0" y="580.8"/>
    </contour>
  </outline>
</glyph>
<glyph name="H" format="2">
  <advance width="755.2"/>
  <unicode hex="0048"/>
  <note>
H
</note>
  <anchor x="377.6" y="0.0" name="bottom"/>
  <anchor x="377.6" y="577.6" name="center"/>
  <anchor x="377.6" y="720.0" name="top"/>
  <anchor x="20.0" y="720.0" name="topleft"/>
  <outline>
    <contour>
      <point x="528.0" y="0.0" type="line"/>
      <point x="670.4" y="0.0" type="line"/>
      <point x="670.4" y="720.0" type="line"/>
      <point x="528.0" y="720.0" type="line"/>
    </contour>
    <contour>
      <point x="84.8" y="0.0" type="line"/>
      <point x="227.2" y="0.0" type="line"/>
      <point x="227.2" y="720.0" type="line"/>
      <point x="84.8" y="720.0" type="line"/>
    </contour>
    <contour>
      <point x="163.2" y="304.8" type="line"/>
      <point x="592.0" y="304.8" type="line"/>
      <point x="592.0" y="428.8" type="line"/>
      <point x="163.2" y="428.8" type="line"/>
    </contour>
  </outline>
</glyph>
<glyph name="I" format="2">
  <advance width="312.0"/>
  <unicode hex="0049"/>
  <note>
I
</note>
  <anchor x="156.0" y="0.0" name="bottom"/>
  <anchor x="227.2" y="0.0" name="ogonek"/>
  <anchor x="156.0" y="720.0" name="top"/>
  <anchor x="20.0" y="720.0" name="topleft"/>
  <outline>
    <contour>
      <point x="84.8" y="720.0" type="line"/>
      <point x="84.8" y="0.0" type="line"/>
      <point x="227.2" y="0.0" type="line"/>
      <point x="227.2" y="720.0" type="line"/>
    </contour>
  </outline>
</glyph>
<glyph name="J" format="2">
  <advance width="440.8"/>
  <unicode hex="004A"/>
  <note>
J
</note>
  <anchor x="220.4" y="0.0" name="bottom"/>
  <anchor x="296.0" y="720.0" name="top"/>
  <outline>
    <contour>
      <point x="16.8" y="119.2" type="line"/>
      <point x="16.8" y="0.0" type="line"/>
      <point x="42.4" y="-6.8"/>
      <point x="84.0" y="-12.0"/>
      <point x="121.6" y="-12.0" type="curve" smooth="yes"/>
      <point x="270.4" y="-12.0"/>
      <point x="367.2" y="65.6"/>
      <point x="367.2" y="220.0" type="curve" smooth="yes"/>
      <point x="367.2" y="720.0" type="line"/>
      <point x="224.8" y="720.0" type="line"/>
      <point x="224.8" y="219.2" type="line" smooth="yes"/>
      <point x="224.8" y="144.8"/>
      <point x="184.0" y="107.2"/>
      <point x="107.2" y="107.2" type="curve" smooth="yes"/>
      <point x="79.2" y="107.2"/>
      <point x="44.0" y="112.4"/>
      <point x="26.4" y="119.2" type="curve"/>
    </contour>
  </outline>
</glyph>
<glyph name="K" format="2">
  <advance width="679.6"/>
  <unicode hex="004B"/>
  <note>
K
</note>
  <anchor x="339.8" y="0.0" name="bottom"/>
  <anchor x="339.8" y="720.0" name="top"/>
  <outline>
    <contour>
      <point x="286.0" y="260.8" type="line" smooth="yes"/>
      <point x="408.2" y="260.8"/>
      <point x="486.2" y="332.8"/>
      <point x="523.6" y="426.4" type="curve" smooth="yes"/>
      <point x="642.8" y="710.4" type="line"/>
      <point x="642.8" y="720.0" type="line"/>
      <point x="499.6" y="720.0" type="line"/>
      <point x="395.6" y="464.0" type="line" smooth="yes"/>
      <point x="376.4" y="414.4"/>
      <point x="345.2" y="383.2"/>
      <point x="278.8" y="383.2" type="curve" smooth="yes"/>
      <point x="162.4" y="383.2" type="line"/>
      <point x="162.4" y="260.8" type="line"/>
    </contour>
    <contour>
      <point x="85.2" y="0.0" type="line"/>
      <point x="227.6" y="0.0" type="line"/>
      <point x="227.6" y="720.0" type="line"/>
      <point x="85.2" y="720.0" type="line"/>
    </contour>
    <contour>
      <point x="438.8" y="340.8" type="line"/>
      <point x="324.4" y="283.2" type="line"/>
      <point x="496.0" y="0.0" type="line"/>
      <point x="650.4" y="0.0" type="line"/>
      <point x="650.4" y="9.6" type="line"/>
    </contour>
  </outline>
</glyph>
<glyph name="L" format="2">
  <advance width="548.0"/>
  <unicode hex="004C"/>
  <note>
L
</note>
  <anchor x="274.0" y="0.0" name="bottom"/>
  <anchor x="205.6" y="386.8" name="center"/>
  <anchor x="388.8" y="408.0" name="periodCAT"/>
  <anchor x="274.0" y="720.0" name="top"/>
  <anchor x="528.0" y="720.0" name="topright"/>
  <outline>
    <contour>
      <point x="84.8" y="0.0" type="line"/>
      <point x="516.0" y="0.0" type="line"/>
      <point x="516.0" y="124.0" type="line"/>
      <point x="227.2" y="124.0" type="line"/>
      <point x="227.2" y="720.0" type="line"/>
      <point x="84.8" y="720.0" type="line"/>
    </contour>
  </outline>
</glyph>
<glyph name="M" format="2">
  <advance width="850.4"/>
  <unicode hex="004D"/>
  <note>
M
</note>
  <anchor x="425.2" y="0.0" name="bottom"/>
  <anchor x="425.2" y="720.0" name="top"/>
  <outline>
    <contour>
      <point x="84.8" y="0.0" type="line"/>
      <point x="227.2" y="0.0" type="line"/>
      <point x="227.2" y="505.0" type="line"/>
      <point x="197.0" y="496.6" type="line"/>
      <point x="384.8" y="198.4" type="line"/>
      <point x="465.6" y="198.4" type="line"/>
      <point x="653.0" y="499.0" type="line"/>
      <point x="623.2" y="507.0" type="line"/>
      <point x="623.2" y="0.0" type="line"/>
      <point x="765.6" y="0.0" type="line"/>
      <point x="765.6" y="720.0" type="line"/>
      <point x="645.6" y="720.0" type="line"/>
      <point x="396.8" y="316.0" type="line"/>
      <point x="455.6" y="316.4" type="line"/>
      <point x="204.8" y="720.0" type="line"/>
      <point x="84.8" y="720.0" type="line"/>
    </contour>
  </outline>
</glyph>
<glyph name="N" format="2">
  <advance width="755.2"/>
  <unicode hex="004E"/>
  <note>
N
</note>
  <anchor x="377.6" y="0.0" name="bottom"/>
  <anchor x="377.6" y="720.0" name="top"/>
  <outline>
    <contour>
      <point x="84.8" y="0.0" type="line"/>
      <point x="227.2" y="0.0" type="line"/>
      <point x="227.2" y="558.4" type="line"/>
      <point x="187.2" y="541.8" type="line"/>
      <point x="581.2" y="135.2" type="line"/>
      <point x="581.2" y="326.6" type="line"/>
      <point x="200.0" y="720.0" type="line"/>
      <point x="84.8" y="720.0" type="line"/>
    </contour>
    <contour>
      <point x="528.0" y="0.0" type="line"/>
      <point x="670.4" y="0.0" type="line"/>
      <point x="670.4" y="720.0" type="line"/>
      <point x="528.0" y="720.0" type="line"/>
    </contour>
  </outline>
</glyph>
<glyph name="O" format="2">
  <advance width="803.2"/>
  <unicode hex="004F"/>
  <note>
O
</note>
  <anchor x="401.6" y="0.0" name="bottom"/>
  <anchor x="401.6" y="360.0" name="center"/>
  <anchor x="478.8" y="10.0" name="ogonek"/>
  <anchor x="401.6" y="720.0" name="top"/>
  <anchor x="20.0" y="720.0" name="topleft"/>
  <anchor x="491.4" y="720.0" name="topright"/>
  <outline>
    <contour>
      <point x="48.0" y="360.0" type="curve" smooth="yes"/>
      <point x="48.0" y="138.4"/>
      <point x="178.0" y="-12.0"/>
      <point x="401.6" y="-12.0" type="curve" smooth="yes"/>
      <point x="624.0" y="-12.0"/>
      <point x="755.2" y="140.0"/>
      <point x="755.2" y="360.0" type="curve" smooth="yes"/>
      <point x="755.2" y="580.0"/>
      <point x="624.0" y="732.0"/>
      <point x="401.6" y="732.0" type="curve" smooth="yes"/>
      <point x="179.2" y="732.0"/>
      <point x="48.0" y="580.0"/>
    </contour>
    <contour>
      <point x="194.4" y="360.0" type="curve" smooth="yes"/>
      <point x="194.4" y="513.6"/>
      <point x="268.8" y="608.8"/>
      <point x="401.6" y="608.8" type="curve" smooth="yes"/>
      <point x="534.4" y="608.8"/>
      <point x="608.8" y="513.6"/>
      <point x="608.8" y="360.0" type="curve" smooth="yes"/>
      <point x="608.8" y="206.4"/>
      <point x="534.4" y="111.2"/>
      <point x="401.6" y="111.2" type="curve" smooth="yes"/>
      <point x="268.8" y="111.2"/>
      <point x="194.4" y="206.4"/>
    </contour>
  </outline>
</glyph>
<glyph name="P" format="2">
  <advance width="656.8"/>
  <unicode hex="0050"/>
  <note>
P
</note>
  <anchor x="328.4" y="0.0" name="bottom"/>
  <anchor x="328.4" y="720.0" name="top"/>
  <outline>
    <contour>
      <point x="163.2" y="208.0" type="line"/>
      <point x="327.2" y="208.0" type="line" smooth="yes"/>
      <point x="525.6" y="208.0"/>
      <point x="620.0" y="341.6"/>
      <point x="620.0" y="492.8" type="curve" smooth="yes"/>
      <point x="620.0" y="639.2"/>
      <point x="524.8" y="720.0"/>
      <point x="360.0" y="720.0" type="curve" smooth="yes"/>
      <point x="163.2" y="720.0" type="line"/>
      <point x="163.2" y="599.2" type="line"/>
      <point x="359.2" y="599.2" type="line" smooth="yes"/>
      <point x="429.6" y="599.2"/>
      <point x="476.8" y="568.8"/>
      <point x="476.8" y="489.6" type="curve" smooth="yes"/>
      <point x="476.8" y="400.0"/>
      <point x="432.8" y="325.6"/>
      <point x="324.0" y="325.6" type="curve" smooth="yes"/>
      <point x="163.2" y="325.6" type="line"/>
    </contour>
    <contour>
      <point x="84.8" y="0.0" type="line"/>
      <point x="227.2" y="0.0" type="line"/>
      <point x="227.2" y="720.0" type="line"/>
      <point x="84.8" y="720.0" type="line"/>
    </contour>
  </outline>
</glyph>
<glyph name="Q" format="2">
  <advance width="803.2"/>
  <unicode hex="0051"/>
  <note>
Q
</note>
  <anchor x="401.6" y="0.0" name="bottom"/>
  <anchor x="401.6" y="720.0" name="top"/>
  <anchor x="401.6" y="360.0" name="center"/>
  <anchor x="478.8" y="10.0" name="ogonek"/>
  <anchor x="20.0" y="720.0" name="topleft"/>
  <anchor x="491.4" y="720.0" name="topright"/>
  <outline>
    <contour>
      <point x="603.2" y="-158.8" type="line"/>
      <point x="777.6" y="-158.8" type="line"/>
      <point x="777.6" y="-149.2" type="line"/>
      <point x="536.0" y="61.6" type="line"/>
      <point x="391.6" y="31.6" type="line"/>
    </contour>
    <component base="O"/>
  </outline>
</glyph>
<glyph name="R" format="2">
  <advance width="693.6"/>
  <unicode hex="0052"/>
  <note>
R
</note>
  <anchor x="346.8" y="0.0" name="bottom"/>
  <anchor x="346.8" y="720.0" name="top"/>
  <outline>
    <contour>
      <point x="163.2" y="190.4" type="line"/>
      <point x="334.4" y="190.4" type="line" smooth="yes"/>
      <point x="488.8" y="190.4"/>
      <point x="632.0" y="297.6"/>
      <point x="632.0" y="481.6" type="curve" smooth="yes"/>
      <point x="632.0" y="630.4"/>
      <point x="537.2" y="720.0"/>
      <point x="364.0" y="720.0" type="curve" smooth="yes"/>
      <point x="163.2" y="720.0" type="line"/>
      <point x="163.2" y="599.2" type="line"/>
      <point x="361.6" y="599.2" type="line" smooth="yes"/>
      <point x="436.8" y="599.2"/>
      <point x="487.2" y="561.6"/>
      <point x="487.2" y="478.4" type="curve" smooth="yes"/>
      <point x="487.2" y="391.2"/>
      <point x="439.2" y="310.4"/>
      <point x="333.6" y="310.4" type="curve" smooth="yes"/>
      <point x="163.2" y="310.4" type="line"/>
    </contour>
    <contour>
      <point x="84.8" y="0.0" type="line"/>
      <point x="227.2" y="0.0" type="line"/>
      <point x="227.2" y="720.0" type="line"/>
      <point x="84.8" y="720.0" type="line"/>
    </contour>
    <contour>
      <point x="503.2" y="0.0" type="line"/>
      <point x="663.2" y="0.0" type="line"/>
      <point x="663.2" y="7.2" type="line"/>
      <point x="478.0" y="244.8" type="line"/>
      <point x="340.8" y="223.2" type="line"/>
    </contour>
  </outline>
</glyph>
<glyph name="S" format="2">
  <advance width="609.6"/>
  <unicode hex="0053"/>
  <note>
S
</note>
  <anchor x="304.8" y="0.0" name="bottom"/>
  <anchor x="304.8" y="720.0" name="top"/>
  <outline>
    <contour>
      <point x="59.2" y="155.6" type="line"/>
      <point x="59.2" y="25.6" type="line"/>
      <point x="109.6" y="5.6"/>
      <point x="192.8" y="-12.0"/>
      <point x="280.0" y="-12.0" type="curve" smooth="yes"/>
      <point x="444.0" y="-12.0"/>
      <point x="568.4" y="47.2"/>
      <point x="568.4" y="192.0" type="curve" smooth="yes"/>
      <point x="568.4" y="314.4"/>
      <point x="483.8" y="367.2"/>
      <point x="373.6" y="385.6" type="curve" smooth="yes"/>
      <point x="300.0" y="398.4" type="line" smooth="yes"/>
      <point x="223.0" y="411.6"/>
      <point x="184.0" y="432.8"/>
      <point x="184.0" y="499.2" type="curve" smooth="yes"/>
      <point x="184.0" y="578.4"/>
      <point x="252.8" y="612.0"/>
      <point x="358.4" y="612.0" type="curve" smooth="yes"/>
      <point x="431.2" y="612.0"/>
      <point x="488.8" y="594.4"/>
      <point x="525.6" y="576.8" type="curve"/>
      <point x="535.2" y="576.8" type="line"/>
      <point x="535.2" y="702.4" type="line"/>
      <point x="496.0" y="719.2"/>
      <point x="431.2" y="732.0"/>
      <point x="367.2" y="732.0" type="curve" smooth="yes"/>
      <point x="156.8" y="732.0"/>
      <point x="44.8" y="648.8"/>
      <point x="44.8" y="492.0" type="curve" smooth="yes"/>
      <point x="44.8" y="365.6"/>
      <point x="125.8" y="301.2"/>
      <point x="254.4" y="280.8" type="curve" smooth="yes"/>
      <point x="329.6" y="268.0" type="line" smooth="yes"/>
      <point x="399.0" y="256.6"/>
      <point x="427.6" y="237.6"/>
      <point x="427.6" y="188.0" type="curve" smooth="yes"/>
      <point x="427.6" y="127.2"/>
      <point x="371.2" y="108.0"/>
      <point x="280.0" y="108.0" type="curve" smooth="yes"/>
      <point x="195.6" y="108.0"/>
      <point x="117.6" y="129.6"/>
      <point x="68.8" y="155.6" type="curve"/>
    </contour>
  </outline>
</glyph>
<glyph name="T" format="2">
  <advance width="611.2"/>
  <unicode hex="0054"/>
  <note>
T
</note>
  <anchor x="305.6" y="0.0" name="bottom"/>
  <anchor x="305.6" y="360.0" name="center"/>
  <anchor x="305.6" y="720.0" name="top"/>
  <outline>
    <contour>
      <point x="15.2" y="720.0" type="line"/>
      <point x="15.2" y="596.0" type="line"/>
      <point x="234.4" y="596.0" type="line"/>
      <point x="234.4" y="0.0" type="line"/>
      <point x="376.8" y="0.0" type="line"/>
      <point x="376.8" y="596.0" type="line"/>
      <point x="596.0" y="596.0" type="line"/>
      <point x="596.0" y="720.0" type="line"/>
    </contour>
  </outline>
</glyph>
<glyph name="U" format="2">
  <advance width="731.2"/>
  <unicode hex="0055"/>
  <note>
U
</note>
  <anchor x="365.6" y="0.0" name="bottom"/>
  <anchor x="442.0" y="10.0" name="ogonek"/>
  <anchor x="365.6" y="720.0" name="top"/>
  <anchor x="621.6" y="720.0" name="topright"/>
  <outline>
    <contour>
      <point x="78.4" y="720.0" type="line"/>
      <point x="78.4" y="285.6" type="line" smooth="yes"/>
      <point x="78.4" y="90.4"/>
      <point x="168.0" y="-12.0"/>
      <point x="364.8" y="-12.0" type="curve" smooth="yes"/>
      <point x="557.6" y="-12.0"/>
      <point x="652.8" y="90.4"/>
      <point x="652.8" y="285.6" type="curve" smooth="yes"/>
      <point x="652.8" y="720.0" type="line"/>
      <point x="510.4" y="720.0" type="line"/>
      <point x="510.4" y="280.8" type="line" smooth="yes"/>
      <point x="510.4" y="163.2"/>
      <point x="465.6" y="111.2"/>
      <point x="364.8" y="111.2" type="curve" smooth="yes"/>
      <point x="264.0" y="111.2"/>
      <point x="220.8" y="163.2"/>
      <point x="220.8" y="280.8" type="curve" smooth="yes"/>
      <point x="220.8" y="720.0" type="line"/>
    </contour>
  </outline>
</glyph>
<glyph name="V" format="2">
  <advance width="670.8"/>
  <unicode hex="0056"/>
  <note>
V
</note>
  <anchor x="335.4" y="0.0" name="bottom"/>
  <anchor x="335.4" y="720.0" name="top"/>
  <outline>
    <contour>
      <point x="76.4" y="19.2" type="curve"/>
      <point x="79.2" y="7.2" type="line"/>
      <point x="132.4" y="-4.8"/>
      <point x="183.6" y="-10.4"/>
      <point x="236.0" y="-10.4" type="curve" smooth="yes"/>
      <point x="434.4" y="-10.4"/>
      <point x="528.0" y="54.8"/>
      <point x="555.6" y="232.8" type="curve" smooth="yes"/>
      <point x="630.8" y="720.0" type="line"/>
      <point x="487.2" y="720.0" type="line"/>
      <point x="415.2" y="243.2" type="line" smooth="yes"/>
      <point x="402.2" y="158.6"/>
      <point x="367.2" y="110.4"/>
      <point x="257.6" y="110.4" type="curve" smooth="yes"/>
      <point x="234.4" y="110.4"/>
      <point x="215.8" y="112.4"/>
      <point x="199.6" y="116.2" type="curve"/>
      <point x="219.0" y="84.8" type="line"/>
      <point x="222.0" y="103.0"/>
      <point x="227.2" y="133.6"/>
      <point x="227.2" y="167.2" type="curve" smooth="yes"/>
      <point x="227.2" y="720.0" type="line"/>
      <point x="84.8" y="720.0" type="line"/>
      <point x="84.8" y="179.2" type="line" smooth="yes"/>
      <point x="84.8" y="139.2"/>
      <point x="83.2" y="57.6"/>
    </contour>
  </outline>
</glyph>
<glyph name="W" format="2">
  <advance width="1076.0"/>
  <unicode hex="0057"/>
  <note>
W
</note>
  <anchor x="538.0" y="0.0" name="bottom"/>
  <anchor x="538.0" y="720.0" name="top"/>
  <outline>
    <contour>
      <point x="674.0" y="-10.4" type="curve" smooth="yes"/>
      <point x="841.6" y="-10.4"/>
      <point x="928.0" y="71.4"/>
      <point x="958.4" y="237.6" type="curve" smooth="yes"/>
      <point x="1046.4" y="720.0" type="line"/>
      <point x="902.8" y="720.0" type="line"/>
      <point x="818.0" y="243.2" type="line" smooth="yes"/>
      <point x="803.0" y="159.6"/>
      <point x="765.2" y="110.4"/>
      <point x="675.6" y="110.4" type="curve" smooth="yes"/>
      <point x="645.6" y="110.4"/>
      <point x="629.4" y="113.0"/>
      <point x="604.6" y="118.80000000000001" type="curve"/>
      <point x="650.0" y="81.8" type="line"/>
      <point x="651.2" y="116.8"/>
      <point x="650.6" y="168.2"/>
      <point x="647.2" y="209.6" type="curve" smooth="yes"/>
      <point x="598.0" y="720.0" type="line"/>
      <point x="459.2" y="720.0" type="line"/>
      <point x="515.6" y="177.2" type="line" smooth="yes"/>
      <point x="519.2" y="130.8"/>
      <point x="522.0" y="63.6"/>
      <point x="519.2" y="19.2" type="curve"/>
      <point x="521.2" y="7.2" type="line"/>
      <point x="574.4" y="-4.8"/>
      <point x="621.6" y="-10.4"/>
    </contour>
    <contour>
      <point x="245.2" y="-10.4" type="curve" smooth="yes"/>
      <point x="398.4" y="-10.4"/>
      <point x="471.2" y="69.4"/>
      <point x="510.8" y="209.6" type="curve" smooth="yes"/>
      <point x="532.8" y="286.0" type="line"/>
      <point x="502.8" y="579.6" type="line"/>
      <point x="416.4" y="248.0" type="line" smooth="yes"/>
      <point x="396.0" y="166.2"/>
      <point x="366.0" y="110.4"/>
      <point x="276.4" y="110.4" type="curve" smooth="yes"/>
      <point x="250.0" y="110.4"/>
      <point x="236.6" y="113.80000000000001"/>
      <point x="216.2" y="118.0" type="curve"/>
      <point x="244.8" y="81.8" type="line"/>
      <point x="244.0" y="116.8"/>
      <point x="245.2" y="168.2"/>
      <point x="240.8" y="209.6" type="curve" smooth="yes"/>
      <point x="191.6" y="720.0" type="line"/>
      <point x="48.0" y="720.0" type="line"/>
      <point x="102.8" y="179.2" type="line" smooth="yes"/>
      <point x="107.0" y="139.2"/>
      <point x="110.8" y="60.8"/>
      <point x="108.0" y="19.2" type="curve"/>
      <point x="110.8" y="7.2" type="line"/>
      <point x="161.6" y="-5.6"/>
      <point x="197.6" y="-10.4"/>
    </contour>
  </outline>
</glyph>
<glyph name="X" format="2">
  <advance width="683.2"/>
  <unicode hex="0058"/>
  <note>
X
</note>
  <anchor x="341.6" y="0.0" name="bottom"/>
  <anchor x="341.6" y="720.0" name="top"/>
  <outline>
    <contour>
      <point x="504.8" y="0.0" type="line"/>
      <point x="664.8" y="0.0" type="line"/>
      <point x="664.8" y="9.6" type="line"/>
      <point x="386.4" y="410.6" type="line"/>
      <point x="178.4" y="720.0" type="line"/>
      <point x="18.4" y="720.0" type="line"/>
      <point x="18.4" y="710.4" type="line"/>
      <point x="296.8" y="309.4" type="line"/>
    </contour>
    <contour>
      <point x="22.4" y="0.0" type="line"/>
      <point x="176.0" y="0.0" type="line"/>
      <point x="380.8" y="311.0" type="line"/>
      <point x="658.4" y="710.4" type="line"/>
      <point x="658.4" y="720.0" type="line"/>
      <point x="504.8" y="720.0" type="line"/>
      <point x="300.0" y="409.0" type="line"/>
      <point x="22.4" y="9.6" type="line"/>
    </contour>
  </outline>
</glyph>
<glyph name="Y" format="2">
  <advance width="637.6"/>
  <unicode hex="0059"/>
  <note>
Y
</note>
  <anchor x="318.4" y="0.0" name="bottom"/>
  <anchor x="318.8" y="720.0" name="top"/>
  <anchor x="20.0" y="720.0" name="topleft"/>
  <outline>
    <contour>
      <point x="247.2" y="0.0" type="line"/>
      <point x="389.6" y="0.0" type="line"/>
      <point x="389.6" y="302.8" type="line"/>
      <point x="632.8" y="710.4" type="line"/>
      <point x="632.8" y="720.0" type="line"/>
      <point x="482.4" y="720.0" type="line"/>
      <point x="296.8" y="378.0" type="line"/>
      <point x="350.4" y="378.4" type="line"/>
      <point x="157.6" y="720.0" type="line"/>
      <point x="4.8" y="720.0" type="line"/>
      <point x="4.8" y="710.4" type="line"/>
      <point x="247.2" y="299.2" type="line"/>
    </contour>
  </outline>
</glyph>
<glyph name="Z" format="2">
  <advance width="617.2"/>
  <unicode hex="005A"/>
  <note>
Z
</note>
  <anchor x="308.6" y="0.0" name="bottom"/>
  <anchor x="308.6" y="720.0" name="top"/>
  <outline>
    <contour>
      <point x="51.6" y="0.0" type="line"/>
      <point x="578.0" y="0.0" type="line"/>
      <point x="578.0" y="124.0" type="line"/>
      <point x="174.6" y="124.0" type="line"/>
      <point x="199.8" y="74.0" type="line"/>
      <point x="541.2" y="604.8" type="line" smooth="yes"/>
      <point x="558.4" y="631.4"/>
      <point x="571.2" y="656.4"/>
      <point x="571.2" y="685.0" type="curve" smooth="yes"/>
      <point x="571.2" y="692.2"/>
      <point x="569.4" y="703.2"/>
      <point x="567.6" y="710.4" type="curve"/>
      <point x="558.0" y="720.0" type="line"/>
      <point x="47.6" y="720.0" type="line"/>
      <point x="47.6" y="596.0" type="line"/>
      <point x="434.4" y="596.0" type="line"/>
      <point x="409.2" y="646.0" type="line"/>
      <point x="68.4" y="115.2" type="line" smooth="yes"/>
      <point x="50.0" y="86.8"/>
      <point x="39.0" y="64.8"/>
      <point x="39.0" y="35.0" type="curve" smooth="yes"/>
      <point x="39.0" y="27.8"/>
      <point x="39.8" y="18.2"/>
      <point x="42.0" y="9.6" type="curve"/>
    </contour>
  </outline>
</glyph>
<glyph name="bracketleft" format="2">
  <advance width="369.6"/>
  <unicode hex="005B"/>
  <note>
bracketleft
</note>
  <outline>
    <contour>
      <point x="89.6" y="760.0" type="line"/>
      <point x="89.6" y="-88.0" type="line"/>
      <point x="345.6" y="-88.0" type="line"/>
      <point x="345.6" y="16.8" type="line"/>
      <point x="212.0" y="16.8" type="line"/>
      <point x="212.0" y="655.2" type="line"/>
      <point x="345.6" y="655.2" type="line"/>
      <point x="345.6" y="760.0" type="line"/>
    </contour>
  </outline>
</glyph>
<glyph name="backslash" format="2">
  <advance width="544.8"/>
  <unicode hex="005C"/>
  <note>
backslash
</note>
  <outline>
    <contour>
      <point x="397.6" y="0.0" type="line"/>
      <point x="520.0" y="0.0" type="line"/>
      <point x="147.2" y="720.0" type="line"/>
      <point x="24.8" y="720.0" type="line"/>
    </contour>
  </outline>
</glyph>
<glyph name="bracketright" format="2">
  <advance width="369.6"/>
  <unicode hex="005D"/>
  <note>
bracketright
</note>
  <outline>
    <contour>
      <point x="24.0" y="16.8" type="line"/>
      <point x="24.0" y="-88.0" type="line"/>
      <point x="280.0" y="-88.0" type="line"/>
      <point x="280.0" y="760.0" type="line"/>
      <point x="24.0" y="760.0" type="line"/>
      <point x="24.0" y="655.2" type="line"/>
      <point x="157.6" y="655.2" type="line"/>
      <point x="157.6" y="16.8" type="line"/>
    </contour>
  </outline>
</glyph>
<glyph name="asciicircum" format="2">
  <advance width="616.0"/>
  <unicode hex="005E"/>
  <note>
asciicircum
</note>
  <outline>
    <contour>
      <point x="83.4" y="392.0" type="line"/>
      <point x="192.2" y="392.0" type="line"/>
      <point x="308.0" y="586.4" type="line"/>
      <point x="425.0" y="392.0" type="line"/>
      <point x="532.2" y="392.0" type="line"/>
      <point x="532.2" y="400.0" type="line"/>
      <point x="340.8" y="727.2" type="line"/>
      <point x="275.2" y="727.2" type="line"/>
      <point x="83.4" y="400.0" type="line"/>
    </contour>
  </outline>
</glyph>
<glyph name="underscore" format="2">
  <advance width="500.0"/>
  <unicode hex="005F"/>
  <note>
underscore
</note>
  <outline>
    <contour>
      <point x="484.0" y="-12.0" type="line"/>
      <point x="16.0" y="-12.0" type="line"/>
      <point x="16.0" y="-114.8" type="line"/>
      <point x="484.0" y="-114.8" type="line"/>
    </contour>
  </outline>
</glyph>
<glyph name="a" format="2">
  <advance width="600.4"/>
  <unicode hex="0061"/>
  <note>
a
</note>
  <anchor x="300.2" y="0.0" name="bottom"/>
  <anchor x="530.4" y="29.6" name="ogonek"/>
  <anchor x="300.2" y="545.6" name="top"/>
  <outline>
    <contour>
      <point x="298.0" y="-12.0" type="curve" smooth="yes"/>
      <point x="372.4" y="-12.0"/>
      <point x="462.0" y="4.8"/>
      <point x="530.4" y="29.6" type="curve"/>
      <point x="533.2" y="37.6" type="line"/>
      <point x="524.4" y="73.6"/>
      <point x="523.6" y="158.4"/>
      <point x="523.6" y="200.0" type="curve" smooth="yes"/>
      <point x="523.6" y="325.6" type="line" smooth="yes"/>
      <point x="523.6" y="516.8"/>
      <point x="413.6" y="559.2"/>
      <point x="263.6" y="559.2" type="curve" smooth="yes"/>
      <point x="203.6" y="559.2"/>
      <point x="141.2" y="550.0"/>
      <point x="93.2" y="533.2" type="curve"/>
      <point x="93.2" y="421.6" type="line"/>
      <point x="102.8" y="421.6" type="line"/>
      <point x="134.8" y="436.8"/>
      <point x="191.6" y="450.4"/>
      <point x="246.8" y="450.4" type="curve" smooth="yes"/>
      <point x="339.6" y="450.4"/>
      <point x="386.8" y="432.0"/>
      <point x="386.8" y="329.6" type="curve" smooth="yes"/>
      <point x="386.8" y="192.8" type="line" smooth="yes"/>
      <point x="386.8" y="130.8"/>
      <point x="388.8" y="107.4"/>
      <point x="401.2" y="73.8" type="curve"/>
      <point x="420.8" y="113.2" type="line"/>
      <point x="387.0" y="93.8"/>
      <point x="342.2" y="86.4"/>
      <point x="295.6" y="86.4" type="curve" smooth="yes"/>
      <point x="218.8" y="86.4"/>
      <point x="176.4" y="108.0"/>
      <point x="176.4" y="163.2" type="curve" smooth="yes"/>
      <point x="176.4" y="220.8"/>
      <point x="217.2" y="241.6"/>
      <point x="304.4" y="241.6" type="curve" smooth="yes"/>
      <point x="341.6" y="241.6"/>
      <point x="388.8" y="232.8"/>
      <point x="415.2" y="224.0" type="curve"/>
      <point x="415.2" y="313.6" type="line"/>
      <point x="380.8" y="323.2"/>
      <point x="339.2" y="333.6"/>
      <point x="282.0" y="333.6" type="curve" smooth="yes"/>
      <point x="141.2" y="333.6"/>
      <point x="45.6" y="280.8"/>
      <point x="45.6" y="161.6" type="curve" smooth="yes"/>
      <point x="45.6" y="39.2"/>
      <point x="130.8" y="-12.0"/>
    </contour>
  </outline>
</glyph>
<glyph name="b" format="2">
  <advance width="644.4"/>
  <unicode hex="0062"/>
  <note>
b
</note>
  <anchor x="322.2" y="0.0" name="bottom"/>
  <anchor x="322.2" y="760.0" name="top"/>
  <outline>
    <contour>
      <point x="280.8" y="-12.0" type="curve" smooth="yes"/>
      <point x="471.2" y="-12.0"/>
      <point x="597.2" y="83.2"/>
      <point x="597.2" y="277.6" type="curve" smooth="yes"/>
      <point x="597.2" y="451.2"/>
      <point x="498.8" y="559.2"/>
      <point x="327.2" y="559.2" type="curve" smooth="yes"/>
      <point x="286.0" y="559.2"/>
      <point x="240.0" y="551.2"/>
      <point x="192.8" y="531.2" type="curve"/>
      <point x="192.8" y="431.2" type="line"/>
      <point x="229.6" y="443.8"/>
      <point x="257.6" y="450.4"/>
      <point x="296.8" y="450.4" type="curve" smooth="yes"/>
      <point x="401.6" y="450.4"/>
      <point x="454.4" y="384.0"/>
      <point x="454.4" y="276.0" type="curve" smooth="yes"/>
      <point x="454.4" y="162.4"/>
      <point x="405.6" y="95.2"/>
      <point x="295.2" y="95.2" type="curve" smooth="yes"/>
      <point x="256.2" y="95.2"/>
      <point x="216.0" y="103.4"/>
      <point x="194.4" y="108.0" type="curve"/>
      <point x="218.4" y="73.6" type="line"/>
      <point x="220.8" y="95.2"/>
      <point x="224.8" y="125.2"/>
      <point x="224.8" y="165.6" type="curve" smooth="yes"/>
      <point x="224.8" y="760.0" type="line"/>
      <point x="78.0" y="760.0" type="line"/>
      <point x="75.2" y="752.0" type="line"/>
      <point x="83.6" y="716.0"/>
      <point x="84.8" y="607.2"/>
      <point x="84.8" y="567.2" type="curve" smooth="yes"/>
      <point x="84.8" y="192.8" type="line" smooth="yes"/>
      <point x="84.8" y="152.8"/>
      <point x="84.8" y="68.0"/>
      <point x="76.8" y="32.0" type="curve"/>
      <point x="79.6" y="24.0" type="line"/>
      <point x="133.2" y="4.0"/>
      <point x="210.0" y="-12.0"/>
    </contour>
  </outline>
</glyph>
<glyph name="c" format="2">
  <advance width="513.6"/>
  <unicode hex="0063"/>
  <note>
c
</note>
  <anchor x="256.8" y="0.0" name="bottom"/>
  <anchor x="256.8" y="545.6" name="top"/>
  <outline>
    <contour>
      <point x="47.2" y="274.8" type="curve" smooth="yes"/>
      <point x="47.2" y="84.8"/>
      <point x="167.2" y="-9.6"/>
      <point x="353.6" y="-9.6" type="curve" smooth="yes"/>
      <point x="400.0" y="-9.6"/>
      <point x="444.0" y="-2.4000000000000004"/>
      <point x="476.0" y="10.0" type="curve"/>
      <point x="476.0" y="124.8" type="line"/>
      <point x="466.4" y="124.8" type="line"/>
      <point x="441.6" y="113.2"/>
      <point x="408.0" y="104.0"/>
      <point x="364.8" y="104.0" type="curve" smooth="yes"/>
      <point x="256.0" y="104.0"/>
      <point x="190.0" y="162.4"/>
      <point x="190.0" y="274.8" type="curve" smooth="yes"/>
      <point x="190.0" y="387.2"/>
      <point x="256.0" y="445.6"/>
      <point x="364.8" y="445.6" type="curve" smooth="yes"/>
      <point x="408.0" y="445.6"/>
      <point x="441.6" y="436.4"/>
      <point x="466.4" y="424.8" type="curve"/>
      <point x="476.0" y="424.8" type="line"/>
      <point x="476.0" y="539.6" type="line"/>
      <point x="444.0" y="552.0"/>
      <point x="400.0" y="559.2"/>
      <point x="353.6" y="559.2" type="curve" smooth="yes"/>
      <point x="172.0" y="559.2"/>
      <point x="47.2" y="464.8"/>
    </contour>
  </outline>
</glyph>
<glyph name="d" format="2">
  <advance width="644.4"/>
  <unicode hex="0064"/>
  <note>
d
</note>
  <anchor x="322.2" y="0.0" name="bottom"/>
  <anchor x="466.4" y="653.6" name="center"/>
  <anchor x="322.2" y="760.0" name="top"/>
  <anchor x="683.6" y="545.6" name="topright"/>
  <outline>
    <contour>
      <point x="346.4" y="-12.0" type="curve" smooth="yes"/>
      <point x="436.8" y="-12.0"/>
      <point x="508.8" y="5.2"/>
      <point x="564.8" y="28.0" type="curve"/>
      <point x="567.6" y="36.0" type="line"/>
      <point x="559.6" y="72.0"/>
      <point x="559.6" y="156.8"/>
      <point x="559.6" y="196.8" type="curve" smooth="yes"/>
      <point x="559.6" y="760.0" type="line"/>
      <point x="412.8" y="760.0" type="line"/>
      <point x="410.0" y="752.0" type="line"/>
      <point x="417.6" y="718.8"/>
      <point x="419.6" y="627.2"/>
      <point x="419.6" y="580.4" type="curve" smooth="yes"/>
      <point x="419.6" y="169.6" type="line" smooth="yes"/>
      <point x="419.6" y="132.8"/>
      <point x="420.8" y="100.4"/>
      <point x="431.6" y="77.0" type="curve"/>
      <point x="445.2" y="113.8" type="line"/>
      <point x="422.4" y="104.4"/>
      <point x="393.8" y="96.8"/>
      <point x="352.8" y="96.8" type="curve" smooth="yes"/>
      <point x="241.6" y="96.8"/>
      <point x="190.0" y="160.8"/>
      <point x="190.0" y="274.8" type="curve" smooth="yes"/>
      <point x="190.0" y="385.6"/>
      <point x="245.2" y="450.4"/>
      <point x="356.4" y="450.4" type="curve" smooth="yes"/>
      <point x="395.4" y="450.4"/>
      <point x="421.6" y="440.8"/>
      <point x="438.6" y="434.8" type="curve"/>
      <point x="441.0" y="542.0" type="line"/>
      <point x="423.6" y="549.2"/>
      <point x="385.2" y="559.2"/>
      <point x="336.8" y="558.8" type="curve" smooth="yes"/>
      <point x="161.6" y="557.6"/>
      <point x="47.2" y="452.0"/>
      <point x="47.2" y="274.8" type="curve" smooth="yes"/>
      <point x="47.2" y="81.6"/>
      <point x="160.0" y="-12.0"/>
    </contour>
  </outline>
</glyph>
<glyph name="e" format="2">
  <advance width="612.6"/>
  <unicode hex="0065"/>
  <note>
e
</note>
  <anchor x="306.6" y="0.0" name="bottom"/>
  <anchor x="528.8" y="18.0" name="ogonek"/>
  <anchor x="306.6" y="545.6" name="top"/>
  <outline>
    <contour>
      <point x="364.8" y="-9.6" type="curve" smooth="yes"/>
      <point x="438.8" y="-9.6"/>
      <point x="492.0" y="2.0"/>
      <point x="528.8" y="18.0" type="curve"/>
      <point x="528.8" y="131.2" type="line"/>
      <point x="519.2" y="131.2" type="line"/>
      <point x="491.2" y="115.2"/>
      <point x="440.0" y="100.8"/>
      <point x="375.2" y="100.8" type="curve" smooth="yes"/>
      <point x="264.6" y="100.8"/>
      <point x="188.4" y="139.2"/>
      <point x="188.4" y="265.2" type="curve" smooth="yes"/>
      <point x="188.4" y="286.4" type="line" smooth="yes"/>
      <point x="188.4" y="413.6"/>
      <point x="242.0" y="455.2"/>
      <point x="313.6" y="455.2" type="curve" smooth="yes"/>
      <point x="391.6" y="455.2"/>
      <point x="428.8" y="411.2"/>
      <point x="428.8" y="330.4" type="curve" smooth="yes"/>
      <point x="428.8" y="324.0" type="line"/>
      <point x="136.8" y="324.0" type="line"/>
      <point x="136.8" y="232.0" type="line"/>
      <point x="565.0" y="232.0" type="line"/>
      <point x="566.4" y="264.8" type="line" smooth="yes"/>
      <point x="573.6" y="436.8"/>
      <point x="497.6" y="559.2"/>
      <point x="315.2" y="559.2" type="curve" smooth="yes"/>
      <point x="152.4" y="559.2"/>
      <point x="47.2" y="450.4"/>
      <point x="47.2" y="274.8" type="curve" smooth="yes"/>
      <point x="47.2" y="77.6"/>
      <point x="164.0" y="-9.6"/>
    </contour>
  </outline>
</glyph>
<glyph name="f" format="2">
  <advance width="387.2"/>
  <unicode hex="0066"/>
  <note>
f
</note>
  <anchor x="193.6" y="0.0" name="bottom"/>
  <anchor x="193.6" y="760.0" name="top"/>
  <outline>
    <contour>
      <point x="100.0" y="0.0" type="line"/>
      <point x="240.0" y="0.0" type="line"/>
      <point x="240.0" y="539.2" type="line" smooth="yes"/>
      <point x="240.0" y="623.4"/>
      <point x="268.2" y="657.6"/>
      <point x="339.2" y="657.6" type="curve" smooth="yes"/>
      <point x="368.0" y="657.6"/>
      <point x="385.6" y="652.8"/>
      <point x="402.4" y="645.6" type="curve"/>
      <point x="412.0" y="645.6" type="line"/>
      <point x="412.0" y="754.4" type="line"/>
      <point x="392.0" y="761.6"/>
      <point x="364.8" y="766.4"/>
      <point x="329.6" y="766.4" type="curve" smooth="yes"/>
      <point x="184.2" y="766.4"/>
      <point x="100.0" y="695.4"/>
      <point x="100.0" y="540.8" type="curve" smooth="yes"/>
    </contour>
    <contour>
      <point x="12.8" y="433.6" type="line"/>
      <point x="379.2" y="433.6" type="line"/>
      <point x="379.2" y="545.6" type="line"/>
      <point x="12.8" y="545.6" type="line"/>
    </contour>
  </outline>
</glyph>
<glyph name="g" format="2">
  <advance width="644.4"/>
  <unicode hex="0067"/>
  <note>
g
</note>
  <anchor x="322.2" y="-240.0" name="bottom"/>
  <anchor x="322.2" y="545.6" name="top"/>
  <outline>
    <contour>
      <point x="256.0" y="-240.0" type="curve" smooth="yes"/>
      <point x="441.6" y="-240.0"/>
      <point x="559.6" y="-148.8"/>
      <point x="559.6" y="30.4" type="curve" smooth="yes"/>
      <point x="559.6" y="348.0" type="line" smooth="yes"/>
      <point x="559.6" y="389.6"/>
      <point x="559.6" y="474.4"/>
      <point x="567.6" y="510.4" type="curve"/>
      <point x="564.8" y="518.4" type="line"/>
      <point x="514.4" y="540.0"/>
      <point x="440.8" y="559.2"/>
      <point x="363.2" y="559.2" type="curve" smooth="yes"/>
      <point x="176.0" y="559.2"/>
      <point x="47.2" y="460.8"/>
      <point x="47.2" y="276.0" type="curve" smooth="yes"/>
      <point x="47.2" y="94.4"/>
      <point x="162.4" y="4.0"/>
      <point x="338.4" y="4.0" type="curve" smooth="yes"/>
      <point x="366.8" y="4.0"/>
      <point x="396.6" y="7.4"/>
      <point x="436.4" y="16.0" type="curve"/>
      <point x="437.6" y="125.6" type="line"/>
      <point x="405.6" y="113.6"/>
      <point x="382.2" y="111.2"/>
      <point x="355.2" y="111.2" type="curve" smooth="yes"/>
      <point x="243.2" y="111.2"/>
      <point x="190.0" y="168.8"/>
      <point x="190.0" y="277.6" type="curve" smooth="yes"/>
      <point x="190.0" y="384.0"/>
      <point x="242.8" y="448.8"/>
      <point x="355.2" y="448.8" type="curve" smooth="yes"/>
      <point x="394.2" y="448.8"/>
      <point x="429.6" y="440.0"/>
      <point x="447.0" y="436.2" type="curve"/>
      <point x="430.8" y="466.2" type="line"/>
      <point x="422.0" y="446.4"/>
      <point x="419.6" y="409.2"/>
      <point x="419.6" y="368.0" type="curve" smooth="yes"/>
      <point x="419.6" y="17.6" type="line" smooth="yes"/>
      <point x="419.6" y="-86.4"/>
      <point x="360.4" y="-126.4"/>
      <point x="248.0" y="-126.4" type="curve" smooth="yes"/>
      <point x="206.2" y="-126.4"/>
      <point x="150.4" y="-118.0"/>
      <point x="111.2" y="-100.0" type="curve"/>
      <point x="100.0" y="-100.0" type="line"/>
      <point x="100.0" y="-214.8" type="line"/>
      <point x="138.4" y="-232.0"/>
      <point x="204.8" y="-240.0"/>
    </contour>
  </outline>
</glyph>
<glyph name="h" format="2">
  <advance width="660.8"/>
  <unicode hex="0068"/>
  <note>
h
</note>
  <anchor x="330.4" y="0.0" name="bottom"/>
  <anchor x="179.6" y="653.6" name="center"/>
  <anchor x="151.4" y="760.0" name="top"/>
  <outline>
    <contour>
      <point x="84.8" y="0.0" type="line"/>
      <point x="224.8" y="0.0" type="line"/>
      <point x="224.8" y="483.8" type="line"/>
      <point x="197.2" y="420.6" type="line"/>
      <point x="219.6" y="428.2"/>
      <point x="270.8" y="443.2"/>
      <point x="312.8" y="443.2" type="curve" smooth="yes"/>
      <point x="388.8" y="443.2"/>
      <point x="440.0" y="414.4"/>
      <point x="440.0" y="308.0" type="curve" smooth="yes"/>
      <point x="440.0" y="0.0" type="line"/>
      <point x="580.0" y="0.0" type="line"/>
      <point x="580.0" y="315.2" type="line" smooth="yes"/>
      <point x="580.0" y="496.8"/>
      <point x="478.4" y="559.2"/>
      <point x="347.2" y="559.2" type="curve" smooth="yes"/>
      <point x="282.6" y="559.2"/>
      <point x="235.8" y="544.4"/>
      <point x="195.4" y="526.0" type="curve"/>
      <point x="224.8" y="480.2" type="line"/>
      <point x="224.8" y="760.0" type="line"/>
      <point x="78.0" y="760.0" type="line"/>
      <point x="75.2" y="752.0" type="line"/>
      <point x="83.6" y="716.0"/>
      <point x="84.8" y="631.2"/>
      <point x="84.8" y="591.2" type="curve" smooth="yes"/>
    </contour>
  </outline>
</glyph>
<glyph name="k" format="2">
  <advance width="591.2"/>
  <unicode hex="006B"/>
  <note>
k
</note>
  <anchor x="295.6" y="0.0" name="bottom"/>
  <anchor x="295.6" y="760.0" name="top"/>
  <outline>
    <contour>
      <point x="224.8" y="0.0" type="line"/>
      <point x="224.8" y="760.0" type="line"/>
      <point x="78.0" y="760.0" type="line"/>
      <point x="75.2" y="752.0" type="line"/>
      <point x="83.6" y="716.0"/>
      <point x="84.8" y="631.2"/>
      <point x="84.8" y="591.2" type="curve" smooth="yes"/>
      <point x="84.8" y="0.0" type="line"/>
    </contour>
    <contour>
      <point x="201.6" y="285.6" type="line"/>
      <point x="427.2" y="0.0" type="line"/>
      <point x="588.0" y="0.0" type="line"/>
      <point x="588.0" y="12.0" type="line"/>
      <point x="569.2" y="28.0"/>
      <point x="533.2" y="68.2"/>
      <point x="508.0" y="99.2" type="curve" smooth="yes"/>
      <point x="314.2" y="337.2" type="line"/>
      <point x="313.2" y="249.4" type="line"/>
      <point x="501.2" y="450.0" type="line" smooth="yes"/>
      <point x="529.2" y="479.6"/>
      <point x="562.0" y="517.6"/>
      <point x="582.4" y="533.6" type="curve"/>
      <point x="582.4" y="545.6" type="line"/>
      <point x="432.0" y="545.6" type="line"/>
    </contour>
  </outline>
</glyph>
<glyph name="l" format="2">
  <advance width="309.6"/>
  <unicode hex="006C"/>
  <note>
l
</note>
  <anchor x="154.8" y="0.0" name="bottom"/>
  <anchor x="162.0" y="383.2" name="center"/>
  <anchor x="364.0" y="358.4" name="periodCAT"/>
  <anchor x="154.8" y="760.0" name="top"/>
  <anchor x="334.4" y="545.6" name="topright"/>
  <outline>
    <contour>
      <point x="84.8" y="0.0" type="line"/>
      <point x="224.8" y="0.0" type="line"/>
      <point x="224.8" y="760.0" type="line"/>
      <point x="78.0" y="760.0" type="line"/>
      <point x="75.2" y="752.0" type="line"/>
      <point x="83.6" y="716.0"/>
      <point x="84.8" y="631.2"/>
      <point x="84.8" y="591.2" type="curve" smooth="yes"/>
    </contour>
  </outline>
</glyph>
<glyph name="m" format="2">
  <advance width="984.8"/>
  <unicode hex="006D"/>
  <note>
m
</note>
  <anchor x="492.4" y="0.0" name="bottom"/>
  <anchor x="492.4" y="545.6" name="top"/>
  <outline>
    <contour>
      <point x="84.8" y="0.0" type="line"/>
      <point x="224.8" y="0.0" type="line"/>
      <point x="224.8" y="364.0" type="line" smooth="yes"/>
      <point x="224.8" y="405.6"/>
      <point x="220.6" y="437.6"/>
      <point x="213.6" y="458.0" type="curve"/>
      <point x="192.8" y="423.2" type="line"/>
      <point x="224.0" y="434.2"/>
      <point x="267.0" y="445.6"/>
      <point x="307.2" y="445.6" type="curve" smooth="yes"/>
      <point x="378.4" y="445.6"/>
      <point x="428.8" y="418.4"/>
      <point x="428.8" y="308.8" type="curve" smooth="yes"/>
      <point x="428.8" y="0.0" type="line"/>
      <point x="568.8" y="0.0" type="line"/>
      <point x="568.8" y="315.2" type="line" smooth="yes"/>
      <point x="568.8" y="511.2"/>
      <point x="444.8" y="559.2"/>
      <point x="320.0" y="559.2" type="curve" smooth="yes"/>
      <point x="237.6" y="559.2"/>
      <point x="138.0" y="536.0"/>
      <point x="78.0" y="511.2" type="curve"/>
      <point x="75.2" y="503.2" type="line"/>
      <point x="83.6" y="467.2"/>
      <point x="84.8" y="380.8"/>
      <point x="84.8" y="340.8" type="curve" smooth="yes"/>
    </contour>
    <contour>
      <point x="764.0" y="0.0" type="line"/>
      <point x="904.0" y="0.0" type="line"/>
      <point x="904.0" y="315.2" type="line" smooth="yes"/>
      <point x="904.0" y="516.0"/>
      <point x="786.4" y="559.2"/>
      <point x="657.6" y="559.2" type="curve" smooth="yes"/>
      <point x="591.8" y="559.2"/>
      <point x="521.2" y="541.0"/>
      <point x="462.4" y="516.0" type="curve"/>
      <point x="537.6" y="425.6" type="line"/>
      <point x="570.2" y="438.0"/>
      <point x="604.6" y="445.6"/>
      <point x="637.6" y="445.6" type="curve" smooth="yes"/>
      <point x="718.4" y="445.6"/>
      <point x="764.0" y="418.4"/>
      <point x="764.0" y="308.8" type="curve" smooth="yes"/>
    </contour>
  </outline>
</glyph>
<glyph name="n" format="2">
  <advance width="660.8"/>
  <unicode hex="006E"/>
  <note>
n
</note>
  <anchor x="330.4" y="0.0" name="bottom"/>
  <anchor x="330.4" y="545.6" name="top"/>
  <outline>
    <contour>
      <point x="84.8" y="0.0" type="line"/>
      <point x="224.8" y="0.0" type="line"/>
      <point x="224.8" y="364.0" type="line" smooth="yes"/>
      <point x="224.8" y="405.6"/>
      <point x="220.6" y="437.6"/>
      <point x="213.6" y="458.0" type="curve"/>
      <point x="192.8" y="423.2" type="line"/>
      <point x="224.0" y="434.2"/>
      <point x="267.0" y="445.6"/>
      <point x="307.2" y="445.6" type="curve" smooth="yes"/>
      <point x="388.0" y="445.6"/>
      <point x="440.0" y="418.4"/>
      <point x="440.0" y="308.8" type="curve" smooth="yes"/>
      <point x="440.0" y="0.0" type="line"/>
      <point x="580.0" y="0.0" type="line"/>
      <point x="580.0" y="315.2" type="line" smooth="yes"/>
      <point x="580.0" y="511.2"/>
      <point x="456.0" y="559.2"/>
      <point x="320.0" y="559.2" type="curve" smooth="yes"/>
      <point x="240.0" y="559.2"/>
      <point x="138.0" y="536.0"/>
      <point x="78.0" y="511.2" type="curve"/>
      <point x="75.2" y="503.2" type="line"/>
      <point x="83.6" y="467.2"/>
      <point x="84.8" y="380.8"/>
      <point x="84.8" y="340.8" type="curve" smooth="yes"/>
    </contour>
  </outline>
</glyph>
<glyph name="o" format="2">
  <advance width="631.2"/>
  <unicode hex="006F"/>
  <note>
o
</note>
  <anchor x="315.6" y="0.0" name="bottom"/>
  <anchor x="315.6" y="272.8" name="center"/>
  <anchor x="396.2" y="0.0" name="ogonek"/>
  <anchor x="315.6" y="545.6" name="top"/>
  <anchor x="409.2" y="545.6" name="topright"/>
  <outline>
    <contour>
      <point x="47.2" y="274.8" type="curve" smooth="yes"/>
      <point x="47.2" y="88.0"/>
      <point x="155.6" y="-9.6"/>
      <point x="315.6" y="-9.6" type="curve" smooth="yes"/>
      <point x="473.2" y="-9.6"/>
      <point x="584.0" y="88.0"/>
      <point x="584.0" y="274.8" type="curve" smooth="yes"/>
      <point x="584.0" y="461.6"/>
      <point x="473.2" y="559.2"/>
      <point x="315.6" y="559.2" type="curve" smooth="yes"/>
      <point x="158.0" y="559.2"/>
      <point x="47.2" y="461.6"/>
    </contour>
    <contour>
      <point x="190.0" y="274.8" type="curve" smooth="yes"/>
      <point x="190.0" y="392.0"/>
      <point x="233.2" y="452.0"/>
      <point x="315.6" y="452.0" type="curve" smooth="yes"/>
      <point x="398.0" y="452.0"/>
      <point x="441.2" y="392.0"/>
      <point x="441.2" y="274.8" type="curve" smooth="yes"/>
      <point x="441.2" y="157.6"/>
      <point x="398.0" y="97.6"/>
      <point x="315.6" y="97.6" type="curve" smooth="yes"/>
      <point x="233.2" y="97.6"/>
      <point x="190.0" y="157.6"/>
    </contour>
  </outline>
</glyph>
<glyph name="p" format="2">
  <advance width="644.4"/>
  <unicode hex="0070"/>
  <note>
p
</note>
  <anchor x="322.2" y="0.0" name="bottom"/>
  <anchor x="322.2" y="545.6" name="top"/>
  <outline>
    <contour>
      <point x="84.8" y="-232.0" type="line"/>
      <point x="224.8" y="-232.0" type="line"/>
      <point x="224.8" y="372.0" type="line" smooth="yes"/>
      <point x="224.8" y="412.6"/>
      <point x="222.4" y="442.4"/>
      <point x="212.4" y="462.4" type="curve"/>
      <point x="198.6" y="425.6" type="line"/>
      <point x="215.6" y="437.2"/>
      <point x="257.0" y="450.4"/>
      <point x="298.4" y="450.4" type="curve" smooth="yes"/>
      <point x="402.4" y="450.4"/>
      <point x="454.4" y="385.6"/>
      <point x="454.4" y="274.8" type="curve" smooth="yes"/>
      <point x="454.4" y="162.4"/>
      <point x="404.8" y="95.2"/>
      <point x="292.8" y="95.2" type="curve" smooth="yes"/>
      <point x="252.2" y="95.2"/>
      <point x="227.2" y="102.0"/>
      <point x="212.8" y="109.0" type="curve"/>
      <point x="205.2" y="1.4" type="line"/>
      <point x="225.2" y="-3.8000000000000003"/>
      <point x="268.2" y="-12.0"/>
      <point x="307.2" y="-12.0" type="curve" smooth="yes"/>
      <point x="500.8" y="-12.0"/>
      <point x="597.2" y="112.0"/>
      <point x="597.2" y="274.8" type="curve" smooth="yes"/>
      <point x="597.2" y="471.2"/>
      <point x="468.0" y="559.2"/>
      <point x="306.4" y="559.2" type="curve" smooth="yes"/>
      <point x="225.6" y="559.2"/>
      <point x="147.6" y="540.0"/>
      <point x="78.0" y="511.2" type="curve"/>
      <point x="75.2" y="503.2" type="line"/>
      <point x="83.6" y="467.2"/>
      <point x="84.8" y="382.4"/>
      <point x="84.8" y="344.8" type="curve" smooth="yes"/>
    </contour>
  </outline>
</glyph>
<glyph name="q" format="2">
  <advance width="644.4"/>
  <unicode hex="0071"/>
  <note>
q
</note>
  <anchor x="322.2" y="0.0" name="bottom"/>
  <anchor x="322.2" y="545.6" name="top"/>
  <outline>
    <contour>
      <point x="419.6" y="-222.4" type="line"/>
      <point x="559.6" y="-222.4" type="line"/>
      <point x="559.6" y="349.6" type="line" smooth="yes"/>
      <point x="559.6" y="389.6"/>
      <point x="559.6" y="474.4"/>
      <point x="567.6" y="510.4" type="curve"/>
      <point x="564.8" y="518.4" type="line"/>
      <point x="514.4" y="540.0"/>
      <point x="440.8" y="559.2"/>
      <point x="360.8" y="559.2" type="curve" smooth="yes"/>
      <point x="185.6" y="559.2"/>
      <point x="47.2" y="468.0"/>
      <point x="47.2" y="274.8" type="curve" smooth="yes"/>
      <point x="47.2" y="94.4"/>
      <point x="150.4" y="-12.0"/>
      <point x="335.2" y="-12.0" type="curve" smooth="yes"/>
      <point x="378.4" y="-12.0"/>
      <point x="424.6" y="-4.4"/>
      <point x="445.6" y="2.0" type="curve"/>
      <point x="445.6" y="111.4" type="line"/>
      <point x="424.2" y="104.4"/>
      <point x="391.6" y="96.8"/>
      <point x="354.4" y="96.8" type="curve" smooth="yes"/>
      <point x="248.8" y="96.8"/>
      <point x="190.0" y="152.0"/>
      <point x="190.0" y="274.8" type="curve" smooth="yes"/>
      <point x="190.0" y="385.6"/>
      <point x="243.6" y="452.0"/>
      <point x="355.2" y="452.0" type="curve" smooth="yes"/>
      <point x="395.4" y="452.0"/>
      <point x="426.8" y="440.8"/>
      <point x="447.8" y="431.4" type="curve"/>
      <point x="429.2" y="470.2" type="line"/>
      <point x="422.0" y="447.6"/>
      <point x="419.6" y="414.4"/>
      <point x="419.6" y="375.2" type="curve" smooth="yes"/>
    </contour>
  </outline>
</glyph>
<glyph name="r" format="2">
  <advance width="408.0"/>
  <unicode hex="0072"/>
  <note>
r
</note>
  <anchor x="154.8" y="0.0" name="bottom"/>
  <anchor x="204.0" y="545.6" name="top"/>
  <outline>
    <contour>
      <point x="84.8" y="0.0" type="line"/>
      <point x="224.8" y="0.0" type="line"/>
      <point x="224.8" y="364.0" type="line" smooth="yes"/>
      <point x="224.8" y="407.0"/>
      <point x="221.2" y="438.4"/>
      <point x="212.4" y="457.2" type="curve"/>
      <point x="190.8" y="424.6" type="line"/>
      <point x="220.2" y="434.8"/>
      <point x="263.6" y="442.4"/>
      <point x="307.2" y="442.4" type="curve" smooth="yes"/>
      <point x="330.4" y="442.4"/>
      <point x="357.8" y="440.2"/>
      <point x="377.6" y="435.2" type="curve"/>
      <point x="387.2" y="435.2" type="line"/>
      <point x="387.2" y="548.8" type="line"/>
      <point x="358.8" y="552.8"/>
      <point x="330.8" y="554.4"/>
      <point x="305.6" y="554.4" type="curve" smooth="yes"/>
      <point x="223.2" y="554.4"/>
      <point x="133.2" y="539.2"/>
      <point x="78.0" y="519.2" type="curve"/>
      <point x="75.2" y="511.2" type="line"/>
      <point x="83.6" y="475.2"/>
      <point x="84.8" y="388.8"/>
      <point x="84.8" y="348.8" type="curve" smooth="yes"/>
    </contour>
  </outline>
</glyph>
<glyph name="s" format="2">
  <advance width="527.2"/>
  <unicode hex="0073"/>
  <note>
s
</note>
  <anchor x="263.6" y="0.0" name="bottom"/>
  <anchor x="263.6" y="545.6" name="top"/>
  <outline>
    <contour>
      <point x="52.0" y="138.4" type="line"/>
      <point x="52.0" y="20.0" type="line"/>
      <point x="103.2" y="4.0"/>
      <point x="169.6" y="-8.0"/>
      <point x="234.4" y="-8.0" type="curve" smooth="yes"/>
      <point x="407.6" y="-8.0"/>
      <point x="492.8" y="49.6"/>
      <point x="492.8" y="165.6" type="curve" smooth="yes"/>
      <point x="492.8" y="264.0"/>
      <point x="416.8" y="305.4"/>
      <point x="323.2" y="321.2" type="curve" smooth="yes"/>
      <point x="276.8" y="329.2" type="line" smooth="yes"/>
      <point x="217.2" y="339.4"/>
      <point x="184.8" y="349.6"/>
      <point x="184.8" y="385.0" type="curve" smooth="yes"/>
      <point x="184.8" y="429.6"/>
      <point x="229.6" y="446.4"/>
      <point x="304.0" y="446.4" type="curve" smooth="yes"/>
      <point x="352.8" y="446.4"/>
      <point x="398.4" y="438.8"/>
      <point x="448.8" y="419.2" type="curve"/>
      <point x="456.8" y="419.2" type="line"/>
      <point x="456.8" y="534.0" type="line"/>
      <point x="413.6" y="547.6"/>
      <point x="364.8" y="555.2"/>
      <point x="308.0" y="555.2" type="curve" smooth="yes"/>
      <point x="124.0" y="555.2"/>
      <point x="50.4" y="476.8"/>
      <point x="50.4" y="379.2" type="curve" smooth="yes"/>
      <point x="50.4" y="288.8"/>
      <point x="109.2" y="246.2"/>
      <point x="216.2" y="227.6" type="curve" smooth="yes"/>
      <point x="262.6" y="219.6" type="line" smooth="yes"/>
      <point x="326.6" y="208.6"/>
      <point x="356.8" y="198.8"/>
      <point x="356.8" y="161.6" type="curve" smooth="yes"/>
      <point x="356.8" y="102.6"/>
      <point x="287.2" y="100.8"/>
      <point x="241.6" y="100.8" type="curve" smooth="yes"/>
      <point x="176.8" y="100.8"/>
      <point x="108.0" y="117.2"/>
      <point x="60.0" y="138.4" type="curve"/>
    </contour>
  </outline>
</glyph>
<glyph name="t" format="2">
  <advance width="442.4"/>
  <unicode hex="0074"/>
  <note>
t
</note>
  <anchor x="221.2" y="0.0" name="bottom"/>
  <anchor x="221.2" y="272.8" name="center"/>
  <anchor x="172.4" y="687.2" name="top"/>
  <anchor x="353.0" y="586.6" name="topright"/>
  <outline>
    <contour>
      <point x="323.2" y="-8.0" type="curve" smooth="yes"/>
      <point x="363.2" y="-8.0"/>
      <point x="394.4" y="-1.6"/>
      <point x="419.2" y="7.6" type="curve"/>
      <point x="419.2" y="120.0" type="line"/>
      <point x="409.6" y="120.0" type="line"/>
      <point x="391.2" y="111.6"/>
      <point x="365.6" y="105.6"/>
      <point x="340.0" y="105.6" type="curve" smooth="yes"/>
      <point x="272.8" y="105.6"/>
      <point x="242.4" y="132.8"/>
      <point x="242.4" y="200.8" type="curve" smooth="yes"/>
      <point x="242.4" y="687.2" type="line"/>
      <point x="102.4" y="687.2" type="line"/>
      <point x="102.4" y="189.6" type="line" smooth="yes"/>
      <point x="102.4" y="52.8"/>
      <point x="180.0" y="-8.0"/>
    </contour>
    <contour>
      <point x="15.2" y="433.6" type="line"/>
      <point x="391.2" y="433.6" type="line"/>
      <point x="391.2" y="545.6" type="line"/>
      <point x="15.2" y="545.6" type="line"/>
    </contour>
  </outline>
</glyph>
<glyph name="u" format="2">
  <advance width="656.0"/>
  <unicode hex="0075"/>
  <note>
u
</note>
  <anchor x="328.0" y="0.0" name="bottom"/>
  <anchor x="578.0" y="33.6" name="ogonek"/>
  <anchor x="328.0" y="545.6" name="top"/>
  <anchor x="488.2" y="545.6" name="topright"/>
  <outline>
    <contour>
      <point x="340.8" y="-12.0" type="curve" smooth="yes"/>
      <point x="416.0" y="-12.0"/>
      <point x="518.0" y="8.8"/>
      <point x="578.0" y="33.6" type="curve"/>
      <point x="580.8" y="41.6" type="line"/>
      <point x="572.4" y="77.6"/>
      <point x="571.2" y="164.0"/>
      <point x="571.2" y="204.0" type="curve" smooth="yes"/>
      <point x="571.2" y="545.6" type="line"/>
      <point x="424.4" y="545.6" type="line"/>
      <point x="421.6" y="537.6" type="line"/>
      <point x="430.0" y="501.6"/>
      <point x="431.2" y="416.8"/>
      <point x="431.2" y="376.8" type="curve" smooth="yes"/>
      <point x="431.2" y="178.4" type="line" smooth="yes"/>
      <point x="431.2" y="138.0"/>
      <point x="433.6" y="107.2"/>
      <point x="441.2" y="88.0" type="curve"/>
      <point x="462.6" y="120.4" type="line"/>
      <point x="433.2" y="111.80000000000001"/>
      <point x="392.6" y="101.6"/>
      <point x="353.0" y="101.6" type="curve" smooth="yes"/>
      <point x="268.0" y="101.6"/>
      <point x="216.0" y="128.8"/>
      <point x="216.0" y="238.4" type="curve" smooth="yes"/>
      <point x="216.0" y="545.6" type="line"/>
      <point x="69.2" y="545.6" type="line"/>
      <point x="66.4" y="537.6" type="line"/>
      <point x="74.8" y="501.6"/>
      <point x="76.0" y="416.8"/>
      <point x="76.0" y="376.8" type="curve" smooth="yes"/>
      <point x="76.0" y="232.0" type="line" smooth="yes"/>
      <point x="76.0" y="36.0"/>
      <point x="200.0" y="-12.0"/>
    </contour>
  </outline>
</glyph>
<glyph name="v" format="2">
  <advance width="577.6"/>
  <unicode hex="0076"/>
  <note>
v
</note>
  <anchor x="288.8" y="0.0" name="bottom"/>
  <anchor x="288.8" y="545.6" name="top"/>
  <outline>
    <contour>
      <point x="196.0" y="0.0" type="line"/>
      <point x="373.6" y="0.0" type="line"/>
      <point x="568.8" y="533.6" type="line"/>
      <point x="568.8" y="545.6" type="line"/>
      <point x="424.0" y="545.6" type="line"/>
      <point x="273.4" y="69.2" type="line"/>
      <point x="305.2" y="69.2" type="line"/>
      <point x="157.6" y="545.6" type="line"/>
      <point x="8.8" y="545.6" type="line"/>
      <point x="8.8" y="533.6" type="line"/>
    </contour>
  </outline>
</glyph>
<glyph name="w" format="2">
  <advance width="848.8"/>
  <unicode hex="0077"/>
  <note>
w
</note>
  <anchor x="424.4" y="0.0" name="bottom"/>
  <anchor x="424.4" y="545.6" name="top"/>
  <outline>
    <contour>
      <point x="159.2" y="0.0" type="line"/>
      <point x="316.8" y="0.0" type="line"/>
      <point x="436.6" y="390.0" type="line"/>
      <point x="403.8" y="390.0" type="line"/>
      <point x="522.4" y="0.0" type="line"/>
      <point x="681.6" y="0.0" type="line"/>
      <point x="840.0" y="533.6" type="line"/>
      <point x="840.0" y="545.6" type="line"/>
      <point x="693.6" y="545.6" type="line"/>
      <point x="580.4" y="82.4" type="line"/>
      <point x="610.0" y="83.4" type="line"/>
      <point x="472.0" y="545.6" type="line"/>
      <point x="375.2" y="545.6" type="line"/>
      <point x="235.8" y="85.8" type="line"/>
      <point x="265.0" y="84.8" type="line"/>
      <point x="155.2" y="545.6" type="line"/>
      <point x="8.8" y="545.6" type="line"/>
      <point x="8.8" y="533.6" type="line"/>
    </contour>
  </outline>
</glyph>
<glyph name="x" format="2">
  <advance width="583.2"/>
  <unicode hex="0078"/>
  <note>
x
</note>
  <anchor x="291.6" y="0.0" name="bottom"/>
  <anchor x="291.6" y="545.6" name="top"/>
  <outline>
    <contour>
      <point x="411.2" y="0.0" type="line"/>
      <point x="565.6" y="0.0" type="line"/>
      <point x="565.6" y="9.6" type="line"/>
      <point x="324.8" y="328.0" type="line"/>
      <point x="169.6" y="545.6" type="line"/>
      <point x="15.2" y="545.6" type="line"/>
      <point x="15.2" y="536.0" type="line"/>
      <point x="256.0" y="217.6" type="line"/>
    </contour>
    <contour>
      <point x="20.0" y="0.0" type="line"/>
      <point x="168.8" y="0.0" type="line"/>
      <point x="325.6" y="225.6" type="line"/>
      <point x="568.0" y="536.0" type="line"/>
      <point x="568.0" y="545.6" type="line"/>
      <point x="419.2" y="545.6" type="line"/>
      <point x="262.4" y="320.0" type="line"/>
      <point x="20.0" y="9.6" type="line"/>
    </contour>
  </outline>
</glyph>
<glyph name="y" format="2">
  <advance width="571.2"/>
  <unicode hex="0079"/>
  <note>
y
</note>
  <anchor x="470.2" y="0.0" name="bottom"/>
  <anchor x="285.6" y="545.6" name="top"/>
  <outline>
    <contour>
      <point x="127.2" y="-232.0" type="line"/>
      <point x="266.4" y="-232.0" type="line"/>
      <point x="564.0" y="533.6" type="line"/>
      <point x="564.0" y="545.6" type="line"/>
      <point x="422.4" y="545.6" type="line"/>
      <point x="259.2" y="96.8" type="line"/>
      <point x="127.2" y="-220.0" type="line"/>
    </contour>
    <contour>
      <point x="225.6" y="-40.8" type="line"/>
      <point x="302.2" y="110.0" type="line"/>
      <point x="156.0" y="545.6" type="line"/>
      <point x="7.199999999999999" y="545.6" type="line"/>
      <point x="7.199999999999999" y="533.6" type="line"/>
    </contour>
  </outline>
</glyph>
<glyph name="z" format="2">
  <advance width="548.8"/>
  <unicode hex="007A"/>
  <note>
z
</note>
  <anchor x="274.4" y="0.0" name="bottom"/>
  <anchor x="274.4" y="545.6" name="top"/>
  <outline>
    <contour>
      <point x="51.8" y="0.0" type="line"/>
      <point x="512.0" y="0.0" type="line"/>
      <point x="512.0" y="110.80000000000001" type="line"/>
      <point x="149.4" y="110.80000000000001" type="line"/>
      <point x="203.4" y="88.4" type="line"/>
      <point x="195.60000000000002" y="105.6"/>
      <point x="229.4" y="142.8"/>
      <point x="254.4" y="171.2" type="curve" smooth="yes"/>
      <point x="433.6" y="367.2" type="line" smooth="yes"/>
      <point x="461.6" y="398.4"/>
      <point x="499.2" y="441.6"/>
      <point x="499.2" y="497.6" type="curve" smooth="yes"/>
      <point x="499.2" y="507.2"/>
      <point x="497.6" y="520.8"/>
      <point x="494.6" y="534.8" type="curve"/>
      <point x="485.8" y="545.6" type="line"/>
      <point x="48.0" y="545.6" type="line"/>
      <point x="48.0" y="434.8" type="line"/>
      <point x="387.6" y="434.8" type="line"/>
      <point x="335.0" y="460.8" type="line"/>
      <point x="342.6" y="439.0"/>
      <point x="307.4" y="402.2"/>
      <point x="283.2" y="374.4" type="curve" smooth="yes"/>
      <point x="104.0" y="178.4" type="line" smooth="yes"/>
      <point x="76.0" y="147.2"/>
      <point x="38.4" y="104.0"/>
      <point x="38.4" y="48.0" type="curve" smooth="yes"/>
      <point x="38.4" y="38.4"/>
      <point x="40.0" y="24.8"/>
      <point x="43.0" y="10.8" type="curve"/>
    </contour>
  </outline>
</glyph>
<glyph name="braceleft" format="2">
  <advance width="418.4"/>
  <unicode hex="007B"/>
  <note>
braceleft
</note>
  <outline>
    <contour>
      <point x="131.2" y="205.6" type="curve" smooth="yes"/>
      <point x="131.2" y="77.6" type="line" smooth="yes"/>
      <point x="131.2" y="-36.8"/>
      <point x="193.6" y="-88.0"/>
      <point x="304.8" y="-88.0" type="curve" smooth="yes"/>
      <point x="394.4" y="-88.0" type="line"/>
      <point x="394.4" y="15.200000000000003" type="line"/>
      <point x="320.0" y="15.200000000000003" type="line" smooth="yes"/>
      <point x="278.4" y="15.200000000000003"/>
      <point x="258.4" y="35.2"/>
      <point x="258.4" y="80.8" type="curve" smooth="yes"/>
      <point x="258.4" y="211.2" type="line" smooth="yes"/>
      <point x="258.4" y="283.2"/>
      <point x="216.8" y="326.2"/>
      <point x="156.8" y="335.0" type="curve"/>
      <point x="156.8" y="337.0" type="line"/>
      <point x="216.8" y="345.8"/>
      <point x="258.4" y="388.8"/>
      <point x="258.4" y="460.8" type="curve" smooth="yes"/>
      <point x="258.4" y="591.2" type="line" smooth="yes"/>
      <point x="258.4" y="636.8"/>
      <point x="278.4" y="656.8"/>
      <point x="320.0" y="656.8" type="curve" smooth="yes"/>
      <point x="394.4" y="656.8" type="line"/>
      <point x="394.4" y="760.0" type="line"/>
      <point x="304.8" y="760.0" type="line" smooth="yes"/>
      <point x="193.6" y="760.0"/>
      <point x="131.2" y="708.8"/>
      <point x="131.2" y="594.4" type="curve" smooth="yes"/>
      <point x="131.2" y="466.4" type="line" smooth="yes"/>
      <point x="131.2" y="426.4"/>
      <point x="111.2" y="394.4"/>
      <point x="63.2" y="394.4" type="curve" smooth="yes"/>
      <point x="15.2" y="394.4" type="line"/>
      <point x="15.2" y="277.6" type="line"/>
      <point x="63.2" y="277.6" type="line" smooth="yes"/>
      <point x="111.2" y="277.6"/>
      <point x="131.2" y="245.6"/>
    </contour>
  </outline>
</glyph>
<glyph name="bar" format="2">
  <advance width="308.0"/>
  <unicode hex="007C"/>
  <note>
bar
</note>
  <outline>
    <contour>
      <point x="90.4" y="760.0" type="line"/>
      <point x="90.4" y="-244.0" type="line"/>
      <point x="217.6" y="-244.0" type="line"/>
      <point x="217.6" y="760.0" type="line"/>
    </contour>
  </outline>
</glyph>
<glyph name="braceright" format="2">
  <advance width="418.4"/>
  <unicode hex="007D"/>
  <note>
braceright
</note>
  <outline>
    <contour>
      <point x="98.4" y="15.200000000000003" type="curve" smooth="yes"/>
      <point x="24.0" y="15.200000000000003" type="line"/>
      <point x="24.0" y="-88.0" type="line"/>
      <point x="113.6" y="-88.0" type="line" smooth="yes"/>
      <point x="224.8" y="-88.0"/>
      <point x="287.2" y="-36.8"/>
      <point x="287.2" y="77.6" type="curve" smooth="yes"/>
      <point x="287.2" y="205.6" type="line" smooth="yes"/>
      <point x="287.2" y="245.6"/>
      <point x="307.2" y="277.6"/>
      <point x="355.2" y="277.6" type="curve" smooth="yes"/>
      <point x="403.2" y="277.6" type="line"/>
      <point x="403.2" y="394.4" type="line"/>
      <point x="355.2" y="394.4" type="line" smooth="yes"/>
      <point x="307.2" y="394.4"/>
      <point x="287.2" y="426.4"/>
      <point x="287.2" y="466.4" type="curve" smooth="yes"/>
      <point x="287.2" y="594.4" type="line" smooth="yes"/>
      <point x="287.2" y="708.8"/>
      <point x="224.8" y="760.0"/>
      <point x="113.6" y="760.0" type="curve" smooth="yes"/>
      <point x="24.0" y="760.0" type="line"/>
      <point x="24.0" y="656.8" type="line"/>
      <point x="98.4" y="656.8" type="line" smooth="yes"/>
      <point x="140.0" y="656.8"/>
      <point x="160.0" y="636.8"/>
      <point x="160.0" y="591.2" type="curve" smooth="yes"/>
      <point x="160.0" y="460.8" type="line" smooth="yes"/>
      <point x="160.0" y="388.8"/>
      <point x="201.6" y="345.8"/>
      <point x="261.6" y="337.0" type="curve"/>
      <point x="261.6" y="335.0" type="line"/>
      <point x="201.6" y="326.2"/>
      <point x="160.0" y="283.2"/>
      <point x="160.0" y="211.2" type="curve" smooth="yes"/>
      <point x="160.0" y="80.8" type="line" smooth="yes"/>
      <point x="160.0" y="35.2"/>
      <point x="140.0" y="15.200000000000003"/>
    </contour>
  </outline>
</glyph>
<glyph name="asciitilde" format="2">
  <advance width="616.0"/>
  <unicode hex="007E"/>
  <note>
asciitilde
</note>
  <outline>
    <contour>
      <point x="548.4" y="415.2" type="curve"/>
      <point x="451.2" y="415.2" type="line"/>
      <point x="448.8" y="366.0"/>
      <point x="441.2" y="318.4"/>
      <point x="401.6" y="318.4" type="curve" smooth="yes"/>
      <point x="373.2" y="318.4"/>
      <point x="353.0" y="343.6"/>
      <point x="325.6" y="368.4" type="curve" smooth="yes"/>
      <point x="299.4" y="392.0"/>
      <point x="265.8" y="415.2"/>
      <point x="212.8" y="415.2" type="curve" smooth="yes"/>
      <point x="108.0" y="415.2"/>
      <point x="66.0" y="325.0"/>
      <point x="63.6" y="218.4" type="curve"/>
      <point x="160.8" y="218.4" type="line"/>
      <point x="163.2" y="267.6"/>
      <point x="170.8" y="315.2"/>
      <point x="210.4" y="315.2" type="curve" smooth="yes"/>
      <point x="238.8" y="315.2"/>
      <point x="259.0" y="290.0"/>
      <point x="286.4" y="265.2" type="curve" smooth="yes"/>
      <point x="312.6" y="241.6"/>
      <point x="346.2" y="218.4"/>
      <point x="399.2" y="218.4" type="curve" smooth="yes"/>
      <point x="504.0" y="218.4"/>
      <point x="546.0" y="308.6"/>
    </contour>
  </outline>
</glyph>
<glyph name="exclamdown" format="2">
  <advance width="323.2"/>
  <unicode hex="00A1"/>
  <note>
exclamdown
</note>
  <outline>
    <contour>
      <point x="221.6" y="310.4" type="curve" smooth="yes"/>
      <point x="104.0" y="310.4" type="line" smooth="yes"/>
      <point x="100.8" y="294.4"/>
      <point x="92.8" y="196.6"/>
      <point x="92.8" y="98.0" type="curve" smooth="yes"/>
      <point x="92.8" y="-23.6" type="line" smooth="yes"/>
      <point x="92.8" y="-59.400000000000006"/>
      <point x="92.8" y="-132.0"/>
      <point x="84.8" y="-168.0" type="curve"/>
      <point x="88.4" y="-177.6" type="line"/>
      <point x="232.8" y="-177.6" type="line"/>
      <point x="232.8" y="98.0" type="line" smooth="yes"/>
      <point x="232.8" y="196.6"/>
      <point x="224.8" y="294.4"/>
    </contour>
    <contour>
      <point x="161.6" y="552.0" type="curve" smooth="yes"/>
      <point x="113.6" y="552.0"/>
      <point x="79.2" y="520.0"/>
      <point x="79.2" y="469.6" type="curve" smooth="yes"/>
      <point x="79.2" y="419.2"/>
      <point x="113.6" y="387.2"/>
      <point x="161.6" y="387.2" type="curve" smooth="yes"/>
      <point x="209.6" y="387.2"/>
      <point x="244.0" y="419.2"/>
      <point x="244.0" y="469.6" type="curve" smooth="yes"/>
      <point x="244.0" y="520.0"/>
      <point x="209.6" y="552.0"/>
    </contour>
  </outline>
</glyph>
<glyph name="cent" format="2">
  <advance width="616.0"/>
  <unicode hex="00A2"/>
  <note>
cent
</note>
  <outline>
    <contour>
      <point x="379.2" y="90.4" type="curve" smooth="yes"/>
      <point x="424.8" y="90.4"/>
      <point x="477.6" y="101.6"/>
      <point x="500.8" y="110.4" type="curve"/>
      <point x="500.8" y="223.2" type="line"/>
      <point x="491.2" y="223.2" type="line"/>
      <point x="467.2" y="211.2"/>
      <point x="435.2" y="203.2"/>
      <point x="387.2" y="203.2" type="curve" smooth="yes"/>
      <point x="286.4" y="203.2"/>
      <point x="209.2" y="257.6"/>
      <point x="209.2" y="374.0" type="curve" smooth="yes"/>
      <point x="209.2" y="490.4"/>
      <point x="286.4" y="544.8"/>
      <point x="387.2" y="544.8" type="curve" smooth="yes"/>
      <point x="435.2" y="544.8"/>
      <point x="467.2" y="536.8"/>
      <point x="491.2" y="524.8" type="curve"/>
      <point x="500.8" y="524.8" type="line"/>
      <point x="500.8" y="637.6" type="line"/>
      <point x="477.6" y="646.4"/>
      <point x="427.2" y="657.6"/>
      <point x="379.2" y="657.6" type="curve" smooth="yes"/>
      <point x="202.4" y="657.6"/>
      <point x="72.8" y="566.4"/>
      <point x="72.8" y="374.0" type="curve" smooth="yes"/>
      <point x="72.8" y="181.6"/>
      <point x="200.0" y="90.4"/>
    </contour>
    <contour>
      <point x="283.2" y="-64.0" type="line"/>
      <point x="397.6" y="-64.0" type="line"/>
      <point x="397.6" y="132.0" type="line"/>
      <point x="283.2" y="132.0" type="line"/>
    </contour>
    <contour>
      <point x="283.2" y="604.0" type="line"/>
      <point x="397.6" y="604.0" type="line"/>
      <point x="397.6" y="800.0" type="line"/>
      <point x="283.2" y="800.0" type="line"/>
    </contour>
  </outline>
</glyph>
<glyph name="sterling" format="2">
  <advance width="616.0"/>
  <unicode hex="00A3"/>
  <note>
sterling
</note>
  <outline>
    <contour>
      <point x="173.6" y="21.6" type="line"/>
      <point x="312.0" y="21.6" type="line"/>
      <point x="312.0" y="470.4" type="line" smooth="yes"/>
      <point x="312.0" y="568.0"/>
      <point x="356.8" y="624.8"/>
      <point x="450.4" y="624.8" type="curve" smooth="yes"/>
      <point x="490.4" y="624.8"/>
      <point x="518.4" y="617.2"/>
      <point x="541.6" y="606.8" type="curve"/>
      <point x="548.8" y="606.8" type="line"/>
      <point x="548.8" y="713.6" type="line"/>
      <point x="520.0" y="724.0"/>
      <point x="486.4" y="732.0"/>
      <point x="436.0" y="732.0" type="curve" smooth="yes"/>
      <point x="269.6" y="732.0"/>
      <point x="173.6" y="626.4"/>
      <point x="173.6" y="467.2" type="curve" smooth="yes"/>
    </contour>
    <contour>
      <point x="45.6" y="0.0" type="line"/>
      <point x="567.2" y="0.0" type="line"/>
      <point x="567.2" y="107.6" type="line"/>
      <point x="45.6" y="107.6" type="line"/>
    </contour>
    <contour>
      <point x="55.2" y="324.0" type="line"/>
      <point x="486.4" y="324.0" type="line"/>
      <point x="486.4" y="432.8" type="line"/>
      <point x="55.2" y="432.8" type="line"/>
    </contour>
  </outline>
</glyph>
<glyph name="currency" format="2">
  <advance width="616.0"/>
  <unicode hex="00A4"/>
  <note>
currency
</note>
  <outline>
    <contour>
      <point x="92.2" y="200.2" type="line"/>
      <point x="148.2" y="144.8" type="line"/>
      <point x="196.8" y="193.8" type="line"/>
      <point x="226.2" y="176.2"/>
      <point x="261.8" y="166.0"/>
      <point x="304.0" y="166.0" type="curve" smooth="yes"/>
      <point x="348.2" y="166.0"/>
      <point x="385.2" y="177.2"/>
      <point x="414.6" y="196.8" type="curve"/>
      <point x="467.2" y="144.8" type="line"/>
      <point x="522.8" y="200.2" type="line"/>
      <point x="468.0" y="254.0" type="line"/>
      <point x="484.6" y="283.4"/>
      <point x="494.0" y="320.4"/>
      <point x="494.0" y="360.0" type="curve" smooth="yes"/>
      <point x="494.0" y="399.6"/>
      <point x="484.6" y="435.2"/>
      <point x="468.0" y="464.6" type="curve"/>
      <point x="522.8" y="519.8" type="line"/>
      <point x="467.2" y="575.4" type="line"/>
      <point x="414.6" y="523.2" type="line"/>
      <point x="385.2" y="542.0"/>
      <point x="347.6" y="553.6"/>
      <point x="304.0" y="553.6" type="curve" smooth="yes"/>
      <point x="261.8" y="553.6"/>
      <point x="226.2" y="542.4"/>
      <point x="196.8" y="525.2" type="curve"/>
      <point x="148.2" y="575.4" type="line"/>
      <point x="92.2" y="519.8" type="line"/>
      <point x="142.0" y="469.0" type="line"/>
      <point x="123.0" y="438.6"/>
      <point x="113.4" y="401.6"/>
      <point x="113.4" y="360.0" type="curve" smooth="yes"/>
      <point x="113.4" y="318.4"/>
      <point x="123.0" y="281.0"/>
      <point x="142.0" y="249.6" type="curve"/>
    </contour>
    <contour>
      <point x="304.0" y="246.2" type="curve" smooth="yes"/>
      <point x="240.2" y="246.2"/>
      <point x="201.6" y="292.2"/>
      <point x="201.6" y="360.0" type="curve" smooth="yes"/>
      <point x="201.6" y="426.8"/>
      <point x="240.2" y="472.8"/>
      <point x="304.0" y="472.8" type="curve" smooth="yes"/>
      <point x="366.8" y="472.8"/>
      <point x="406.4" y="426.8"/>
      <point x="406.4" y="360.0" type="curve" smooth="yes"/>
      <point x="406.4" y="292.2"/>
      <point x="366.8" y="246.2"/>
    </contour>
  </outline>
</glyph>
<glyph name="yen" format="2">
  <advance width="616.0"/>
  <unicode hex="00A5"/>
  <note>
yen
</note>
  <outline>
    <contour>
      <point x="98.8" y="168.4" type="line"/>
      <point x="518.0" y="168.4" type="line"/>
      <point x="518.0" y="261.6" type="line"/>
      <point x="98.8" y="261.6" type="line"/>
    </contour>
    <contour>
      <point x="98.8" y="328.4" type="line"/>
      <point x="518.0" y="328.4" type="line"/>
      <point x="518.0" y="421.6" type="line"/>
      <point x="98.8" y="421.6" type="line"/>
    </contour>
    <contour>
      <point x="597.2" y="720.0" type="line"/>
      <point x="458.8" y="720.0" type="line"/>
      <point x="286.2" y="402.0" type="line"/>
      <point x="339.8" y="402.4" type="line"/>
      <point x="162.8" y="720.0" type="line"/>
      <point x="20.4" y="720.0" type="line"/>
      <point x="20.4" y="710.4" type="line"/>
      <point x="269.6" y="295.0" type="line"/>
      <point x="240.4" y="401.4" type="line"/>
      <point x="240.4" y="0.0" type="line"/>
      <point x="376.4" y="0.0" type="line"/>
      <point x="376.4" y="404.8" type="line"/>
      <point x="346.4" y="298.8" type="line"/>
      <point x="597.2" y="710.4" type="line"/>
    </contour>
  </outline>
</glyph>
<glyph name="brokenbar" format="2">
  <advance width="308.0"/>
  <unicode hex="00A6"/>
  <note>
brokenbar
</note>
  <outline>
    <contour>
      <point x="90.4" y="760.0" type="line"/>
      <point x="90.4" y="422.4" type="line"/>
      <point x="217.6" y="422.4" type="line"/>
      <point x="217.6" y="760.0" type="line"/>
    </contour>
    <contour>
      <point x="217.6" y="89.6" type="line"/>
      <point x="90.4" y="89.6" type="line"/>
      <point x="90.4" y="-248.0" type="line"/>
      <point x="217.6" y="-248.0" type="line"/>
    </contour>
  </outline>
</glyph>
<glyph name="section" format="2">
  <advance width="606.4"/>
  <unicode hex="00A7"/>
  <note>
section
</note>
  <outline>
    <contour>
      <point x="304.0" y="68.0" type="line"/>
      <point x="408.8" y="63.2" type="line"/>
      <point x="480.0" y="99.2"/>
      <point x="542.4" y="157.6"/>
      <point x="542.4" y="246.4" type="curve" smooth="yes"/>
      <point x="542.4" y="350.4"/>
      <point x="474.2" y="394.8"/>
      <point x="376.0" y="423.2" type="curve" smooth="yes"/>
      <point x="320.8" y="439.2" type="line" smooth="yes"/>
      <point x="258.2" y="457.2"/>
      <point x="224.8" y="473.6"/>
      <point x="224.8" y="530.4" type="curve" smooth="yes"/>
      <point x="224.8" y="592.8"/>
      <point x="281.6" y="620.0"/>
      <point x="365.6" y="620.0" type="curve" smooth="yes"/>
      <point x="424.0" y="620.0"/>
      <point x="461.6" y="608.0"/>
      <point x="494.4" y="592.0" type="curve"/>
      <point x="504.0" y="592.0" type="line"/>
      <point x="504.0" y="709.6" type="line"/>
      <point x="468.0" y="724.0"/>
      <point x="420.0" y="732.0"/>
      <point x="371.2" y="732.0" type="curve" smooth="yes"/>
      <point x="194.4" y="732.0"/>
      <point x="89.6" y="662.4"/>
      <point x="89.6" y="524.0" type="curve" smooth="yes"/>
      <point x="89.6" y="412.8"/>
      <point x="165.2" y="364.2"/>
      <point x="271.2" y="332.8" type="curve" smooth="yes"/>
      <point x="316.8" y="320.0" type="line" smooth="yes"/>
      <point x="388.0" y="299.4"/>
      <point x="410.8" y="276.0"/>
      <point x="410.8" y="228.0" type="curve" smooth="yes"/>
      <point x="410.8" y="174.4"/>
      <point x="358.4" y="139.2"/>
      <point x="304.0" y="124.0" type="curve"/>
    </contour>
    <contour>
      <point x="220.8" y="-232.0" type="curve" smooth="yes"/>
      <point x="397.6" y="-232.0"/>
      <point x="502.4" y="-162.4"/>
      <point x="502.4" y="-24.0" type="curve" smooth="yes"/>
      <point x="502.4" y="87.2"/>
      <point x="426.8" y="135.8"/>
      <point x="320.8" y="167.2" type="curve" smooth="yes"/>
      <point x="275.2" y="180.0" type="line" smooth="yes"/>
      <point x="204.0" y="200.6"/>
      <point x="181.2" y="224.0"/>
      <point x="181.2" y="272.0" type="curve" smooth="yes"/>
      <point x="181.2" y="325.6"/>
      <point x="233.6" y="360.8"/>
      <point x="288.0" y="376.0" type="curve"/>
      <point x="288.0" y="432.0" type="line"/>
      <point x="183.2" y="436.8" type="line"/>
      <point x="112.0" y="400.8"/>
      <point x="49.6" y="342.4"/>
      <point x="49.6" y="253.6" type="curve" smooth="yes"/>
      <point x="49.6" y="149.6"/>
      <point x="117.8" y="105.2"/>
      <point x="216.0" y="76.8" type="curve" smooth="yes"/>
      <point x="271.2" y="60.8" type="line" smooth="yes"/>
      <point x="333.8" y="42.8"/>
      <point x="367.2" y="26.4"/>
      <point x="367.2" y="-30.4" type="curve" smooth="yes"/>
      <point x="367.2" y="-92.8"/>
      <point x="310.4" y="-120.0"/>
      <point x="226.4" y="-120.0" type="curve" smooth="yes"/>
      <point x="168.0" y="-120.0"/>
      <point x="130.4" y="-108.0"/>
      <point x="97.6" y="-92.0" type="curve"/>
      <point x="88.0" y="-92.0" type="line"/>
      <point x="88.0" y="-209.6" type="line"/>
      <point x="124.0" y="-224.0"/>
      <point x="172.0" y="-232.0"/>
    </contour>
  </outline>
</glyph>
<glyph name="copyright" format="2">
  <advance width="824.0"/>
  <unicode hex="00A9"/>
  <note>
copyright
</note>
  <outline>
    <contour>
      <point x="41.6" y="360.0" type="curve" smooth="yes"/>
      <point x="41.6" y="121.6"/>
      <point x="188.0" y="-18.4"/>
      <point x="412.0" y="-18.4" type="curve" smooth="yes"/>
      <point x="636.0" y="-18.4"/>
      <point x="782.4" y="121.6"/>
      <point x="782.4" y="360.0" type="curve" smooth="yes"/>
      <point x="782.4" y="598.4"/>
      <point x="636.0" y="738.4"/>
      <point x="412.0" y="738.4" type="curve" smooth="yes"/>
      <point x="188.0" y="738.4"/>
      <point x="41.6" y="598.4"/>
    </contour>
    <contour>
      <point x="124.8" y="360.0" type="curve" smooth="yes"/>
      <point x="124.8" y="568.0"/>
      <point x="240.0" y="664.8"/>
      <point x="412.0" y="664.8" type="curve" smooth="yes"/>
      <point x="584.0" y="664.8"/>
      <point x="699.2" y="565.6"/>
      <point x="699.2" y="360.0" type="curve" smooth="yes"/>
      <point x="699.2" y="154.4"/>
      <point x="584.0" y="55.2"/>
      <point x="412.0" y="55.2" type="curve" smooth="yes"/>
      <point x="240.0" y="55.2"/>
      <point x="124.8" y="152.0"/>
    </contour>
    <contour>
      <point x="222.4" y="360.0" type="curve" smooth="yes"/>
      <point x="222.4" y="238.0"/>
      <point x="300.4" y="156.0"/>
      <point x="452.0" y="156.0" type="curve" smooth="yes"/>
      <point x="482.8" y="156.0"/>
      <point x="519.6" y="160.4"/>
      <point x="542.4" y="168.2" type="curve"/>
      <point x="542.4" y="248.0" type="line"/>
      <point x="536.8" y="248.0" type="line"/>
      <point x="516.8" y="239.6"/>
      <point x="485.2" y="233.6"/>
      <point x="455.2" y="233.6" type="curve" smooth="yes"/>
      <point x="362.8" y="233.6"/>
      <point x="319.2" y="275.2"/>
      <point x="319.2" y="360.0" type="curve" smooth="yes"/>
      <point x="319.2" y="442.4"/>
      <point x="365.6" y="486.4"/>
      <point x="455.2" y="486.4" type="curve" smooth="yes"/>
      <point x="485.2" y="486.4"/>
      <point x="516.8" y="480.4"/>
      <point x="536.8" y="472.0" type="curve"/>
      <point x="542.4" y="472.0" type="line"/>
      <point x="542.4" y="551.8" type="line"/>
      <point x="519.6" y="559.6"/>
      <point x="482.8" y="564.0"/>
      <point x="452.0" y="564.0" type="curve" smooth="yes"/>
      <point x="303.2" y="564.0"/>
      <point x="222.4" y="481.6"/>
    </contour>
  </outline>
</glyph>
<glyph name="ordfeminine" format="2">
  <advance width="455.8"/>
  <unicode hex="00AA"/>
  <note>
ordfeminine
</note>
  <outline>
    <contour>
      <point x="231.4" y="310.0" type="curve" smooth="yes"/>
      <point x="289.4" y="310.0"/>
      <point x="357.0" y="321.0"/>
      <point x="404.2" y="335.6" type="curve"/>
      <point x="406.0" y="341.6" type="line"/>
      <point x="399.6" y="367.6"/>
      <point x="398.8" y="428.6"/>
      <point x="398.8" y="459.2" type="curve" smooth="yes"/>
      <point x="398.8" y="553.6" type="line" smooth="yes"/>
      <point x="398.8" y="694.6"/>
      <point x="317.2" y="727.4"/>
      <point x="201.4" y="727.4" type="curve" smooth="yes"/>
      <point x="155.2" y="727.4"/>
      <point x="110.0" y="720.8"/>
      <point x="75.0" y="710.2" type="curve"/>
      <point x="75.0" y="619.4" type="line"/>
      <point x="83.2" y="619.4" type="line"/>
      <point x="106.2" y="630.0"/>
      <point x="146.2" y="639.0"/>
      <point x="188.2" y="639.0" type="curve" smooth="yes"/>
      <point x="259.4" y="639.0"/>
      <point x="285.0" y="620.6"/>
      <point x="285.0" y="554.4" type="curve"/>
      <point x="270.2" y="557.8"/>
      <point x="243.8" y="562.2"/>
      <point x="214.6" y="562.2" type="curve" smooth="yes"/>
      <point x="113.2" y="562.2"/>
      <point x="41.6" y="525.2"/>
      <point x="41.6" y="436.2" type="curve" smooth="yes"/>
      <point x="41.6" y="345.8"/>
      <point x="105.8" y="310.0"/>
    </contour>
    <contour>
      <point x="227.6" y="388.6" type="curve" smooth="yes"/>
      <point x="177.2" y="388.6"/>
      <point x="149.6" y="402.2"/>
      <point x="149.6" y="438.4" type="curve" smooth="yes"/>
      <point x="149.6" y="476.0"/>
      <point x="175.0" y="490.0"/>
      <point x="232.6" y="490.0" type="curve" smooth="yes"/>
      <point x="254.0" y="490.0"/>
      <point x="272.2" y="487.0"/>
      <point x="285.0" y="484.2" type="curve"/>
      <point x="285.4" y="433.8"/>
      <point x="287.0" y="413.2"/>
      <point x="291.0" y="396.8" type="curve"/>
      <point x="271.6" y="391.4"/>
      <point x="249.2" y="388.6"/>
    </contour>
    <contour>
      <point x="52.8" y="256.4" type="line"/>
      <point x="52.8" y="166.4" type="line"/>
      <point x="404.8" y="166.4" type="line"/>
      <point x="404.8" y="256.4" type="line"/>
    </contour>
  </outline>
</glyph>
<glyph name="logicalnot" format="2">
  <advance width="616.0"/>
  <unicode hex="00AC"/>
  <note>
logicalnot
</note>
  <outline>
    <contour>
      <point x="64.0" y="365.6" type="line"/>
      <point x="64.0" y="266.4" type="line"/>
      <point x="452.8" y="266.4" type="line"/>
      <point x="452.8" y="64.0" type="line"/>
      <point x="552.0" y="64.0" type="line"/>
      <point x="552.0" y="365.6" type="line"/>
    </contour>
  </outline>
</glyph>
<glyph name="registered" format="2">
  <advance width="824.0"/>
  <unicode hex="00AE"/>
  <note>
registered
</note>
  <outline>
    <contour>
      <point x="412.0" y="-18.4" type="curve" smooth="yes"/>
      <point x="636.0" y="-18.4"/>
      <point x="782.4" y="121.6"/>
      <point x="782.4" y="360.0" type="curve" smooth="yes"/>
      <point x="782.4" y="598.4"/>
      <point x="636.0" y="738.4"/>
      <point x="412.0" y="738.4" type="curve" smooth="yes"/>
      <point x="188.0" y="738.4"/>
      <point x="41.6" y="598.4"/>
      <point x="41.6" y="360.0" type="curve" smooth="yes"/>
      <point x="41.6" y="121.6"/>
      <point x="188.0" y="-18.4"/>
    </contour>
    <contour>
      <point x="254.4" y="168.0" type="line"/>
      <point x="346.0" y="168.0" type="line"/>
      <point x="346.0" y="561.2" type="line"/>
      <point x="254.4" y="561.2" type="line"/>
      <point x="254.4" y="472.0" type="line"/>
    </contour>
    <contour>
      <point x="506.4" y="168.0" type="line"/>
      <point x="606.4" y="168.0" type="line"/>
      <point x="606.4" y="176.0" type="line"/>
      <point x="473.2" y="336.8" type="line"/>
      <point x="388.8" y="316.8" type="line"/>
    </contour>
    <contour>
      <point x="412.0" y="55.2" type="curve" smooth="yes"/>
      <point x="240.0" y="55.2"/>
      <point x="124.8" y="152.0"/>
      <point x="124.8" y="360.0" type="curve" smooth="yes"/>
      <point x="124.8" y="568.0"/>
      <point x="240.0" y="664.8"/>
      <point x="412.0" y="664.8" type="curve" smooth="yes"/>
      <point x="584.0" y="664.8"/>
      <point x="699.2" y="565.6"/>
      <point x="699.2" y="360.0" type="curve" smooth="yes"/>
      <point x="699.2" y="154.4"/>
      <point x="584.0" y="55.2"/>
    </contour>
    <contour>
      <point x="306.0" y="267.2" type="line"/>
      <point x="401.2" y="267.2" type="line" smooth="yes"/>
      <point x="520.8" y="267.2"/>
      <point x="581.6" y="343.6"/>
      <point x="581.6" y="428.0" type="curve" smooth="yes"/>
      <point x="581.6" y="514.6"/>
      <point x="532.0" y="561.2"/>
      <point x="424.0" y="561.2" type="curve" smooth="yes"/>
      <point x="306.0" y="561.2" type="line"/>
      <point x="306.0" y="488.8" type="line"/>
      <point x="418.0" y="488.8" type="line" smooth="yes"/>
      <point x="462.8" y="488.8"/>
      <point x="490.0" y="472.6"/>
      <point x="490.0" y="427.6" type="curve" smooth="yes"/>
      <point x="490.0" y="378.4"/>
      <point x="463.8" y="336.8"/>
      <point x="399.6" y="336.8" type="curve" smooth="yes"/>
      <point x="306.0" y="336.8" type="line"/>
    </contour>
  </outline>
</glyph>
<glyph name="degree" format="2">
  <advance width="408.0"/>
  <unicode hex="00B0"/>
  <note>
degree
</note>
  <outline>
    <contour>
      <point x="204.0" y="472.0" type="curve" smooth="yes"/>
      <point x="284.8" y="472.0"/>
      <point x="348.0" y="523.2"/>
      <point x="348.0" y="608.0" type="curve" smooth="yes"/>
      <point x="348.0" y="692.8"/>
      <point x="284.8" y="744.0"/>
      <point x="204.0" y="744.0" type="curve" smooth="yes"/>
      <point x="123.2" y="744.0"/>
      <point x="60.0" y="692.8"/>
      <point x="60.0" y="608.0" type="curve" smooth="yes"/>
      <point x="60.0" y="523.2"/>
      <point x="123.2" y="472.0"/>
    </contour>
    <contour>
      <point x="204.0" y="536.8" type="curve" smooth="yes"/>
      <point x="162.0" y="536.8"/>
      <point x="132.8" y="563.2"/>
      <point x="132.8" y="608.0" type="curve" smooth="yes"/>
      <point x="132.8" y="652.8"/>
      <point x="162.0" y="679.2"/>
      <point x="204.0" y="679.2" type="curve" smooth="yes"/>
      <point x="246.0" y="679.2"/>
      <point x="275.2" y="652.8"/>
      <point x="275.2" y="608.0" type="curve" smooth="yes"/>
      <point x="275.2" y="563.2"/>
      <point x="246.0" y="536.8"/>
    </contour>
  </outline>
</glyph>
<glyph name="plusminus" format="2">
  <advance width="616.0"/>
  <unicode hex="00B1"/>
  <note>
plusminus
</note>
  <outline>
    <contour>
      <point x="64.0" y="369.6" type="line"/>
      <point x="552.0" y="369.6" type="line"/>
      <point x="552.0" y="468.8" type="line"/>
      <point x="64.0" y="468.8" type="line"/>
    </contour>
    <contour>
      <point x="64.0" y="0.0" type="line"/>
      <point x="552.0" y="0.0" type="line"/>
      <point x="552.0" y="99.2" type="line"/>
      <point x="64.0" y="99.2" type="line"/>
    </contour>
    <contour>
      <point x="258.4" y="175.2" type="line"/>
      <point x="357.6" y="175.2" type="line"/>
      <point x="357.6" y="663.2" type="line"/>
      <point x="258.4" y="663.2" type="line"/>
    </contour>
  </outline>
</glyph>
<glyph name="paragraph" format="2">
  <advance width="700.0"/>
  <unicode hex="00B6"/>
  <note>
paragraph
</note>
  <outline>
    <contour>
      <point x="286.4" y="248.0" type="curve" smooth="yes"/>
      <point x="302.4" y="248.0" type="line"/>
      <point x="302.4" y="-250.0" type="line"/>
      <point x="410.4" y="-250.0" type="line"/>
      <point x="410.4" y="615.2" type="line"/>
      <point x="507.2" y="615.2" type="line"/>
      <point x="507.2" y="-250.0" type="line"/>
      <point x="612.0" y="-250.0" type="line"/>
      <point x="612.0" y="720.0" type="line"/>
      <point x="286.4" y="720.0" type="line" smooth="yes"/>
      <point x="159.4" y="720.0"/>
      <point x="50.4" y="636.0"/>
      <point x="50.4" y="484.0" type="curve" smooth="yes"/>
      <point x="50.4" y="332.0"/>
      <point x="159.4" y="248.0"/>
    </contour>
  </outline>
</glyph>
<glyph name="periodcentered" format="2">
  <advance width="281.6"/>
  <unicode hex="00B7"/>
  <note>
periodcentered
</note>
  <outline>
    <contour>
      <point x="140.8" y="283.8" type="curve" smooth="yes"/>
      <point x="188.8" y="283.8"/>
      <point x="223.2" y="315.8"/>
      <point x="223.2" y="366.2" type="curve" smooth="yes"/>
      <point x="223.2" y="416.6"/>
      <point x="188.8" y="448.6"/>
      <point x="140.8" y="448.6" type="curve" smooth="yes"/>
      <point x="92.8" y="448.6"/>
      <point x="58.4" y="416.6"/>
      <point x="58.4" y="366.2" type="curve" smooth="yes"/>
      <point x="58.4" y="315.8"/>
      <point x="92.8" y="283.8"/>
    </contour>
  </outline>
</glyph>
<glyph name="ordmasculine" format="2">
  <advance width="471.4"/>
  <unicode hex="00BA"/>
  <note>
ordmasculine
</note>
  <outline>
    <contour>
      <point x="33.6" y="518.8" type="curve" smooth="yes"/>
      <point x="33.6" y="379.8"/>
      <point x="115.8" y="310.6"/>
      <point x="235.4" y="310.6" type="curve" smooth="yes"/>
      <point x="354.2" y="310.6"/>
      <point x="437.2" y="379.8"/>
      <point x="437.2" y="518.8" type="curve" smooth="yes"/>
      <point x="437.2" y="657.8"/>
      <point x="354.2" y="727.4"/>
      <point x="235.4" y="727.4" type="curve" smooth="yes"/>
      <point x="117.6" y="727.4"/>
      <point x="33.6" y="657.8"/>
    </contour>
    <contour>
      <point x="153.6" y="518.8" type="curve" smooth="yes"/>
      <point x="153.6" y="599.2"/>
      <point x="181.0" y="640.0"/>
      <point x="235.4" y="640.0" type="curve" smooth="yes"/>
      <point x="290.4" y="640.0"/>
      <point x="317.2" y="599.2"/>
      <point x="317.2" y="518.8" type="curve" smooth="yes"/>
      <point x="317.2" y="438.4"/>
      <point x="290.4" y="397.6"/>
      <point x="235.4" y="397.6" type="curve" smooth="yes"/>
      <point x="181.0" y="397.6"/>
      <point x="153.6" y="438.4"/>
    </contour>
    <contour>
      <point x="54.6" y="261.2" type="line"/>
      <point x="54.6" y="171.2" type="line"/>
      <point x="416.2" y="171.2" type="line"/>
      <point x="416.2" y="261.2" type="line"/>
    </contour>
  </outline>
</glyph>
<glyph name="guillemetright" format="2">
  <advance width="605.6"/>
  <unicode hex="00BB"/>
  <note>
guillemotright
</note>
  <outline>
    <contour>
      <point x="316.8" y="57.6" type="line"/>
      <point x="324.8" y="57.6" type="line"/>
      <point x="569.6" y="277.6" type="line"/>
      <point x="569.6" y="338.4" type="line"/>
      <point x="324.8" y="558.4" type="line"/>
      <point x="316.8" y="558.4" type="line"/>
      <point x="316.8" y="425.6" type="line"/>
      <point x="453.6" y="308.0" type="line"/>
      <point x="316.8" y="190.4" type="line"/>
    </contour>
    <contour>
      <point x="58.4" y="57.6" type="line"/>
      <point x="66.4" y="57.6" type="line"/>
      <point x="311.2" y="277.6" type="line"/>
      <point x="311.2" y="338.4" type="line"/>
      <point x="66.4" y="558.4" type="line"/>
      <point x="58.4" y="558.4" type="line"/>
      <point x="58.4" y="425.6" type="line"/>
      <point x="195.2" y="308.0" type="line"/>
      <point x="58.4" y="190.4" type="line"/>
    </contour>
  </outline>
</glyph>
<glyph name="AE" format="2">
  <advance width="994.0"/>
  <unicode hex="00C6"/>
  <note>
AE
</note>
  <anchor x="497.0" y="0.0" name="bottom"/>
  <anchor x="497.0" y="720.0" name="top"/>
  <outline>
    <contour>
      <point x="38.8" y="0.0" type="line"/>
      <point x="182.4" y="0.0" type="line"/>
      <point x="260.8" y="472.0" type="line" smooth="yes"/>
      <point x="276.2" y="563.8"/>
      <point x="312.8" y="607.2"/>
      <point x="422.4" y="607.2" type="curve" smooth="yes"/>
      <point x="447.4" y="607.2"/>
      <point x="474.6" y="605.2"/>
      <point x="490.0" y="599.6" type="curve"/>
      <point x="470.0" y="637.0" type="line"/>
      <point x="464.8" y="612.8"/>
      <point x="463.2" y="583.6"/>
      <point x="463.2" y="550.4" type="curve" smooth="yes"/>
      <point x="463.2" y="0.0" type="line"/>
      <point x="605.6" y="0.0" type="line"/>
      <point x="605.6" y="538.4" type="line" smooth="yes"/>
      <point x="605.6" y="578.4"/>
      <point x="605.6" y="660.0"/>
      <point x="612.4" y="698.4" type="curve"/>
      <point x="610.4" y="710.4" type="line"/>
      <point x="557.6" y="722.4"/>
      <point x="496.8" y="728.0"/>
      <point x="444.0" y="728.0" type="curve" smooth="yes"/>
      <point x="247.2" y="728.0"/>
      <point x="150.6" y="662.8"/>
      <point x="118.8" y="475.2" type="curve" smooth="yes"/>
    </contour>
    <contour>
      <point x="154.8" y="199.2" type="line"/>
      <point x="527.2" y="199.2" type="line"/>
      <point x="527.2" y="316.8" type="line"/>
      <point x="154.8" y="316.8" type="line"/>
    </contour>
    <contour>
      <point x="541.6" y="0.0" type="line"/>
      <point x="942.4" y="0.0" type="line"/>
      <point x="942.4" y="124.0" type="line"/>
      <point x="541.6" y="124.0" type="line"/>
    </contour>
    <contour>
      <point x="541.6" y="308.8" type="line"/>
      <point x="879.2" y="308.8" type="line"/>
      <point x="879.2" y="428.0" type="line"/>
      <point x="541.6" y="428.0" type="line"/>
    </contour>
    <contour>
      <point x="541.6" y="596.0" type="line"/>
      <point x="932.0" y="596.0" type="line"/>
      <point x="932.0" y="720.0" type="line"/>
      <point x="541.6" y="720.0" type="line"/>
    </contour>
  </outline>
</glyph>
<glyph name="multiply" format="2">
  <advance width="616.0"/>
  <unicode hex="00D7"/>
  <note>
multiply
</note>
  <outline>
    <contour>
      <point x="454.2" y="100.2" type="line"/>
      <point x="523.8" y="169.8" type="line"/>
      <point x="161.8" y="531.8" type="line"/>
      <point x="92.2" y="462.2" type="line"/>
    </contour>
    <contour>
      <point x="161.8" y="100.2" type="line"/>
      <point x="523.8" y="462.2" type="line"/>
      <point x="454.2" y="531.8" type="line"/>
      <point x="92.2" y="169.8" type="line"/>
    </contour>
  </outline>
</glyph>
<glyph name="Thorn" format="2">
  <advance width="643.2"/>
  <unicode hex="00DE"/>
  <note>
Thorn
</note>
  <outline>
    <contour>
      <point x="157.6" y="106.4" type="line"/>
      <point x="303.2" y="106.4" type="line" smooth="yes"/>
      <point x="501.6" y="106.4"/>
      <point x="596.0" y="240.0"/>
      <point x="596.0" y="391.2" type="curve" smooth="yes"/>
      <point x="596.0" y="537.6"/>
      <point x="500.8" y="618.4"/>
      <point x="336.0" y="618.4" type="curve" smooth="yes"/>
      <point x="157.6" y="618.4" type="line"/>
      <point x="157.6" y="497.6" type="line"/>
      <point x="335.2" y="497.6" type="line" smooth="yes"/>
      <point x="405.6" y="497.6"/>
      <point x="452.8" y="467.2"/>
      <point x="452.8" y="388.0" type="curve" smooth="yes"/>
      <point x="452.8" y="298.4"/>
      <point x="408.8" y="224.0"/>
      <point x="300.0" y="224.0" type="curve" smooth="yes"/>
      <point x="157.6" y="224.0" type="line"/>
    </contour>
    <contour>
      <point x="75.2" y="0.0" type="line"/>
      <point x="217.6" y="0.0" type="line"/>
      <point x="217.6" y="720.0" type="line"/>
      <point x="75.2" y="720.0" type="line"/>
    </contour>
  </outline>
</glyph>
<glyph name="germandbls" format="2">
  <advance width="638.4"/>
  <unicode hex="00DF"/>
  <note>
germandbls
</note>
  <outline>
    <contour>
      <point x="416.0" y="-8.0" type="curve" smooth="yes"/>
      <point x="526.4" y="-8.0"/>
      <point x="609.6" y="53.6"/>
      <point x="609.6" y="158.8" type="curve" smooth="yes"/>
      <point x="609.6" y="228.2"/>
      <point x="574.6" y="270.6"/>
      <point x="535.2" y="304.0" type="curve" smooth="yes"/>
      <point x="522.4" y="314.4" type="line" smooth="yes"/>
      <point x="494.0" y="338.0"/>
      <point x="473.6" y="357.4"/>
      <point x="473.6" y="389.6" type="curve" smooth="yes"/>
      <point x="473.6" y="462.4"/>
      <point x="542.4" y="473.6"/>
      <point x="542.4" y="586.4" type="curve" smooth="yes"/>
      <point x="542.4" y="693.6"/>
      <point x="467.2" y="766.4"/>
      <point x="334.4" y="766.4" type="curve" smooth="yes"/>
      <point x="182.6" y="766.4"/>
      <point x="100.0" y="697.0"/>
      <point x="100.0" y="529.6" type="curve"/>
      <point x="100.0" y="0.0" type="line"/>
      <point x="240.0" y="0.0" type="line"/>
      <point x="240.0" y="551.2" type="line" smooth="yes"/>
      <point x="240.0" y="617.6"/>
      <point x="266.4" y="657.6"/>
      <point x="330.4" y="657.6" type="curve" smooth="yes"/>
      <point x="388.0" y="657.6"/>
      <point x="411.2" y="621.6"/>
      <point x="411.2" y="577.6" type="curve" smooth="yes"/>
      <point x="411.2" y="496.0"/>
      <point x="344.0" y="477.6"/>
      <point x="344.0" y="384.0" type="curve" smooth="yes"/>
      <point x="344.0" y="317.6"/>
      <point x="380.8" y="286.0"/>
      <point x="416.8" y="256.0" type="curve" smooth="yes"/>
      <point x="429.6" y="245.6" type="line" smooth="yes"/>
      <point x="455.6" y="224.4"/>
      <point x="478.4" y="204.4"/>
      <point x="478.4" y="167.2" type="curve" smooth="yes"/>
      <point x="478.4" y="124.0"/>
      <point x="450.4" y="100.0"/>
      <point x="400.8" y="100.0" type="curve" smooth="yes"/>
      <point x="368.8" y="100.0"/>
      <point x="344.0" y="106.4"/>
      <point x="324.0" y="114.4" type="curve"/>
      <point x="316.0" y="114.4" type="line"/>
      <point x="316.0" y="4.0" type="line"/>
      <point x="350.0" y="-5.0"/>
      <point x="368.0" y="-8.0"/>
    </contour>
    <contour>
      <point x="12.8" y="434.8" type="line"/>
      <point x="144.0" y="434.8" type="line"/>
      <point x="144.0" y="545.6" type="line"/>
      <point x="12.8" y="545.6" type="line"/>
    </contour>
  </outline>
</glyph>
<glyph name="ae" format="2">
  <advance width="947.8"/>
  <unicode hex="00E6"/>
  <note>
ae
</note>
  <anchor x="474.2" y="0.0" name="bottom"/>
  <anchor x="474.2" y="545.6" name="top"/>
  <outline>
    <contour>
      <point x="704.0" y="-9.6" type="curve" smooth="yes"/>
      <point x="778.0" y="-9.6"/>
      <point x="827.2" y="2.0"/>
      <point x="864.0" y="18.0" type="curve"/>
      <point x="864.0" y="131.2" type="line"/>
      <point x="854.4" y="131.2" type="line"/>
      <point x="826.4" y="115.2"/>
      <point x="775.2" y="100.8"/>
      <point x="710.4" y="100.8" type="curve" smooth="yes"/>
      <point x="591.8" y="100.8"/>
      <point x="523.6" y="145.6"/>
      <point x="523.6" y="266.8" type="curve" smooth="yes"/>
      <point x="523.6" y="288.8" type="line" smooth="yes"/>
      <point x="523.6" y="406.4"/>
      <point x="576.0" y="455.2"/>
      <point x="648.8" y="455.2" type="curve" smooth="yes"/>
      <point x="726.8" y="455.2"/>
      <point x="764.0" y="411.2"/>
      <point x="764.0" y="330.4" type="curve" smooth="yes"/>
      <point x="764.0" y="322.4" type="line"/>
      <point x="464.0" y="322.4" type="line"/>
      <point x="464.0" y="232.0" type="line"/>
      <point x="900.2" y="232.0" type="line"/>
      <point x="901.6" y="264.8" type="line" smooth="yes"/>
      <point x="908.8" y="436.8"/>
      <point x="840.8" y="559.2"/>
      <point x="658.4" y="559.2" type="curve" smooth="yes"/>
      <point x="495.6" y="559.2"/>
      <point x="390.4" y="450.4"/>
      <point x="390.4" y="274.8" type="curve" smooth="yes"/>
      <point x="390.4" y="77.6"/>
      <point x="503.2" y="-9.6"/>
    </contour>
    <contour>
      <point x="290.8" y="-12.0" type="curve" smooth="yes"/>
      <point x="390.8" y="-12.0"/>
      <point x="469.2" y="19.6"/>
      <point x="526.8" y="54.8" type="curve"/>
      <point x="474.8" y="132.8" type="line"/>
      <point x="446.0" y="132.8" type="line"/>
      <point x="410.0" y="106.4"/>
      <point x="361.2" y="87.6"/>
      <point x="290.8" y="87.6" type="curve" smooth="yes"/>
      <point x="218.8" y="87.6"/>
      <point x="176.4" y="108.0"/>
      <point x="176.4" y="163.2" type="curve" smooth="yes"/>
      <point x="176.4" y="220.8"/>
      <point x="217.2" y="241.6"/>
      <point x="304.4" y="241.6" type="curve" smooth="yes"/>
      <point x="346.8" y="241.6"/>
      <point x="375.6" y="233.6"/>
      <point x="397.2" y="227.2" type="curve"/>
      <point x="449.2" y="227.2" type="line"/>
      <point x="449.2" y="318.4" type="line"/>
      <point x="397.2" y="318.4" type="line"/>
      <point x="381.2" y="323.2"/>
      <point x="334.4" y="333.6"/>
      <point x="282.0" y="333.6" type="curve" smooth="yes"/>
      <point x="141.2" y="333.6"/>
      <point x="45.6" y="280.8"/>
      <point x="45.6" y="161.6" type="curve" smooth="yes"/>
      <point x="45.6" y="39.2"/>
      <point x="130.8" y="-12.0"/>
    </contour>
    <contour>
      <point x="390.8" y="241.6" type="line"/>
      <point x="520.4" y="241.6" type="line"/>
      <point x="520.4" y="325.6" type="line" smooth="yes"/>
      <point x="520.4" y="505.6"/>
      <point x="417.6" y="559.2"/>
      <point x="267.6" y="559.2" type="curve" smooth="yes"/>
      <point x="207.6" y="559.2"/>
      <point x="145.2" y="549.2"/>
      <point x="97.2" y="531.6" type="curve"/>
      <point x="97.2" y="420.0" type="line"/>
      <point x="106.8" y="420.0" type="line"/>
      <point x="138.8" y="435.2"/>
      <point x="195.6" y="450.4"/>
      <point x="250.8" y="450.4" type="curve" smooth="yes"/>
      <point x="343.6" y="450.4"/>
      <point x="390.8" y="432.0"/>
      <point x="390.8" y="329.6" type="curve" smooth="yes"/>
    </contour>
  </outline>
</glyph>
<glyph name="eth" format="2">
  <advance width="631.2"/>
  <unicode hex="00F0"/>
  <note>
eth
</note>
  <outline>
    <contour>
      <point x="457.6" y="289.0" type="curve"/>
      <point x="458.6" y="403.4" type="line"/>
      <point x="431.8" y="437.0"/>
      <point x="379.4" y="469.6"/>
      <point x="288.8" y="469.6" type="curve" smooth="yes"/>
      <point x="140.8" y="469.6"/>
      <point x="44.8" y="381.6"/>
      <point x="44.8" y="234.4" type="curve" smooth="yes"/>
      <point x="44.8" y="84.8"/>
      <point x="141.6" y="-12.0"/>
      <point x="300.0" y="-12.0" type="curve" smooth="yes"/>
      <point x="504.0" y="-12.0"/>
      <point x="581.6" y="141.6"/>
      <point x="581.6" y="346.4" type="curve" smooth="yes"/>
      <point x="581.6" y="601.2"/>
      <point x="438.8" y="732.0"/>
      <point x="225.6" y="732.0" type="curve" smooth="yes"/>
      <point x="174.4" y="732.0"/>
      <point x="132.0" y="725.6"/>
      <point x="100.0" y="715.2" type="curve"/>
      <point x="100.0" y="598.4" type="line"/>
      <point x="108.0" y="598.4" type="line"/>
      <point x="136.0" y="609.6"/>
      <point x="172.8" y="619.2"/>
      <point x="222.4" y="619.2" type="curve" smooth="yes"/>
      <point x="339.2" y="619.2"/>
      <point x="444.0" y="565.2"/>
      <point x="444.0" y="363.6" type="curve" smooth="yes"/>
      <point x="444.0" y="192.6"/>
      <point x="415.8" y="98.4"/>
      <point x="302.4" y="98.4" type="curve" smooth="yes"/>
      <point x="215.2" y="98.4"/>
      <point x="176.8" y="158.4"/>
      <point x="176.8" y="233.6" type="curve" smooth="yes"/>
      <point x="176.8" y="312.0"/>
      <point x="221.6" y="362.4"/>
      <point x="314.4" y="362.4" type="curve" smooth="yes"/>
      <point x="384.8" y="362.4"/>
      <point x="430.4" y="328.6"/>
    </contour>
    <contour>
      <point x="296.0" y="516.8" type="line"/>
      <point x="494.4" y="731.2" type="line"/>
      <point x="437.6" y="783.2" type="line"/>
      <point x="239.2" y="568.8" type="line"/>
    </contour>
  </outline>
</glyph>
<glyph name="divide" format="2">
  <advance width="616.0"/>
  <unicode hex="00F7"/>
  <note>
divide
</note>
  <outline>
    <contour>
      <point x="308.0" y="421.6" type="curve" smooth="yes"/>
      <point x="344.8" y="421.6"/>
      <point x="372.8" y="445.2"/>
      <point x="372.8" y="486.4" type="curve" smooth="yes"/>
      <point x="372.8" y="526.2"/>
      <point x="344.8" y="551.2"/>
      <point x="308.0" y="551.2" type="curve" smooth="yes"/>
      <point x="271.2" y="551.2"/>
      <point x="243.2" y="526.2"/>
      <point x="243.2" y="486.4" type="curve" smooth="yes"/>
      <point x="243.2" y="445.2"/>
      <point x="271.2" y="421.6"/>
    </contour>
    <contour>
      <point x="243.2" y="148.8" type="curve" smooth="yes"/>
      <point x="243.2" y="107.6"/>
      <point x="271.2" y="84.0"/>
      <point x="308.0" y="84.0" type="curve" smooth="yes"/>
      <point x="344.8" y="84.0"/>
      <point x="372.8" y="107.6"/>
      <point x="372.8" y="148.8" type="curve" smooth="yes"/>
      <point x="372.8" y="188.6"/>
      <point x="344.8" y="213.6"/>
      <point x="308.0" y="213.6" type="curve" smooth="yes"/>
      <point x="271.2" y="213.6"/>
      <point x="243.2" y="188.6"/>
    </contour>
    <contour>
      <point x="64.0" y="365.6" type="line"/>
      <point x="64.0" y="266.4" type="line"/>
      <point x="552.0" y="266.4" type="line"/>
      <point x="552.0" y="365.6" type="line"/>
    </contour>
  </outline>
</glyph>
<glyph name="thorn" format="2">
  <advance width="644.4"/>
  <unicode hex="00FE"/>
  <note>
thorn
</note>
  <outline>
    <contour>
      <point x="307.2" y="-12.0" type="curve" smooth="yes"/>
      <point x="500.8" y="-12.0"/>
      <point x="597.2" y="112.0"/>
      <point x="597.2" y="274.8" type="curve" smooth="yes"/>
      <point x="597.2" y="463.2"/>
      <point x="476.0" y="559.2"/>
      <point x="320.8" y="559.2" type="curve" smooth="yes"/>
      <point x="252.0" y="559.2"/>
      <point x="197.6" y="539.4"/>
      <point x="163.0" y="520.4" type="curve"/>
      <point x="153.6" y="423.2" type="line"/>
      <point x="179.2" y="423.2" type="line"/>
      <point x="203.2" y="436.0"/>
      <point x="249.6" y="450.4"/>
      <point x="298.4" y="450.4" type="curve" smooth="yes"/>
      <point x="402.4" y="450.4"/>
      <point x="454.4" y="385.6"/>
      <point x="454.4" y="274.8" type="curve" smooth="yes"/>
      <point x="454.4" y="162.4"/>
      <point x="404.8" y="95.2"/>
      <point x="292.8" y="95.2" type="curve" smooth="yes"/>
      <point x="252.8" y="95.2"/>
      <point x="228.4" y="102.4"/>
      <point x="216.0" y="107.6" type="curve"/>
      <point x="148.8" y="107.6" type="line"/>
      <point x="148.8" y="2.0" type="line"/>
      <point x="204.0" y="2.0" type="line"/>
      <point x="220.0" y="-3.2"/>
      <point x="265.6" y="-12.0"/>
    </contour>
    <contour>
      <point x="84.8" y="-242.8" type="line"/>
      <point x="224.8" y="-242.8" type="line"/>
      <point x="224.8" y="760.0" type="line"/>
      <point x="78.0" y="760.0" type="line"/>
      <point x="75.2" y="752.0" type="line"/>
      <point x="83.6" y="716.0"/>
      <point x="84.8" y="631.2"/>
      <point x="84.8" y="591.2" type="curve" smooth="yes"/>
    </contour>
  </outline>
</glyph>
<glyph name="idotless" format="2">
  <advance width="309.6"/>
  <unicode hex="0131"/>
  <note>
dotlessi
</note>
  <anchor x="154.8" y="0.0" name="bottom"/>
  <anchor x="224.8" y="0.0" name="ogonek"/>
  <anchor x="154.8" y="545.6" name="top"/>
  <outline>
    <contour>
      <point x="84.8" y="0.0" type="line"/>
      <point x="224.8" y="0.0" type="line"/>
      <point x="224.8" y="545.6" type="line"/>
      <point x="78.0" y="545.6" type="line"/>
      <point x="75.2" y="537.6" type="line"/>
      <point x="83.6" y="501.6"/>
      <point x="84.8" y="416.8"/>
      <point x="84.8" y="376.8" type="curve" smooth="yes"/>
    </contour>
  </outline>
</glyph>
<glyph name="IJ" format="2">
  <advance width="752.8"/>
  <unicode hex="0132"/>
  <note>
IJ
</note>
  <outline>
    <contour>
      <point x="84.8" y="720.0" type="line"/>
      <point x="84.8" y="0.0" type="line"/>
      <point x="227.2" y="0.0" type="line"/>
      <point x="227.2" y="720.0" type="line"/>
    </contour>
    <contour>
      <point x="328.8" y="119.2" type="line"/>
      <point x="328.8" y="0.0" type="line"/>
      <point x="354.4" y="-6.8"/>
      <point x="396.0" y="-12.0"/>
      <point x="433.6" y="-12.0" type="curve" smooth="yes"/>
      <point x="582.4" y="-12.0"/>
      <point x="679.2" y="65.6"/>
      <point x="679.2" y="220.0" type="curve" smooth="yes"/>
      <point x="679.2" y="720.0" type="line"/>
      <point x="536.8" y="720.0" type="line"/>
      <point x="536.8" y="219.2" type="line" smooth="yes"/>
      <point x="536.8" y="144.8"/>
      <point x="496.0" y="107.2"/>
      <point x="419.2" y="107.2" type="curve" smooth="yes"/>
      <point x="391.2" y="107.2"/>
      <point x="356.0" y="112.4"/>
      <point x="338.4" y="119.2" type="curve"/>
    </contour>
  </outline>
</glyph>
<glyph name="ij" format="2">
  <advance width="617.6"/>
  <unicode hex="0133"/>
  <note>
ij
</note>
  <anchor x="154.8" y="545.6" name="_top"/>
  <anchor x="154.8" y="0.0" name="bottom"/>
  <anchor x="224.8" y="0.0" name="ogonek"/>
  <anchor x="154.8" y="545.6" name="top"/>
  <outline>
    <contour>
      <point x="84.8" y="0.0" type="line"/>
      <point x="224.8" y="0.0" type="line"/>
      <point x="224.8" y="545.6" type="line"/>
      <point x="78.0" y="545.6" type="line"/>
      <point x="75.2" y="537.6" type="line"/>
      <point x="83.6" y="501.6"/>
      <point x="84.8" y="416.8"/>
      <point x="84.8" y="376.8" type="curve" smooth="yes"/>
    </contour>
    <contour>
      <point x="154.8" y="632.0" type="curve" smooth="yes"/>
      <point x="200.8" y="632.0"/>
      <point x="234.0" y="660.8"/>
      <point x="234.0" y="709.6" type="curve" smooth="yes"/>
      <point x="234.0" y="758.4"/>
      <point x="200.8" y="787.2"/>
      <point x="154.8" y="787.2" type="curve" smooth="yes"/>
      <point x="108.8" y="787.2"/>
      <point x="75.6" y="758.4"/>
      <point x="75.6" y="709.6" type="curve" smooth="yes"/>
      <point x="75.6" y="660.8"/>
      <point x="108.8" y="632.0"/>
    </contour>
    <contour>
      <point x="313.2" y="-240.0" type="curve" smooth="yes"/>
      <point x="455.6" y="-240.0"/>
      <point x="534.0" y="-156.0"/>
      <point x="534.0" y="-20.799999999999997" type="curve" smooth="yes"/>
      <point x="534.0" y="545.6" type="line"/>
      <point x="387.2" y="545.6" type="line"/>
      <point x="384.4" y="537.6" type="line"/>
      <point x="392.8" y="501.6"/>
      <point x="394.0" y="416.8"/>
      <point x="394.0" y="376.8" type="curve" smooth="yes"/>
      <point x="394.0" y="-28.799999999999997" type="line" smooth="yes"/>
      <point x="394.0" y="-95.2"/>
      <point x="358.8" y="-126.4"/>
      <point x="298.0" y="-126.4" type="curve" smooth="yes"/>
      <point x="268.8" y="-126.4"/>
      <point x="251.6" y="-121.19999999999999"/>
      <point x="234.0" y="-114.4" type="curve"/>
      <point x="224.4" y="-114.4" type="line"/>
      <point x="224.4" y="-228.0" type="line"/>
      <point x="245.2" y="-234.8"/>
      <point x="274.0" y="-240.0"/>
    </contour>
    <contour>
      <point x="463.2" y="632.0" type="curve" smooth="yes"/>
      <point x="509.2" y="632.0"/>
      <point x="542.4" y="660.8"/>
      <point x="542.4" y="709.6" type="curve" smooth="yes"/>
      <point x="542.4" y="758.4"/>
      <point x="509.2" y="787.2"/>
      <point x="463.2" y="787.2" type="curve" smooth="yes"/>
      <point x="417.2" y="787.2"/>
      <point x="384.0" y="758.4"/>
      <point x="384.0" y="709.6" type="curve" smooth="yes"/>
      <point x="384.0" y="660.8"/>
      <point x="417.2" y="632.0"/>
    </contour>
  </outline>
</glyph>
<glyph name="kgreenlandic" format="2">
  <advance width="574.4"/>
  <unicode hex="0138"/>
  <outline>
    <contour>
      <point x="410.4" y="0.0" type="line"/>
      <point x="571.2" y="0.0" type="line"/>
      <point x="571.2" y="12.0" type="line"/>
      <point x="552.4" y="28.0"/>
      <point x="515.8" y="68.0"/>
      <point x="491.2" y="99.2" type="curve" smooth="yes"/>
      <point x="311.0" y="330.0" type="line"/>
      <point x="310.0" y="247.0" type="line"/>
      <point x="480.0" y="445.2" type="line" smooth="yes"/>
      <point x="506.4" y="476.0"/>
      <point x="545.2" y="517.6"/>
      <point x="565.6" y="533.6" type="curve"/>
      <point x="565.6" y="545.6" type="line"/>
      <point x="415.2" y="545.6" type="line"/>
      <point x="201.6" y="278.4" type="line"/>
    </contour>
    <contour>
      <point x="84.8" y="0.0" type="line"/>
      <point x="224.8" y="0.0" type="line"/>
      <point x="224.8" y="545.6" type="line"/>
      <point x="78.0" y="545.6" type="line"/>
      <point x="75.2" y="537.6" type="line"/>
      <point x="83.6" y="501.6"/>
      <point x="84.8" y="416.8"/>
      <point x="84.8" y="376.8" type="curve" smooth="yes"/>
    </contour>
  </outline>
</glyph>
<glyph name="Eng" format="2">
  <advance width="756.2"/>
  <unicode hex="014A"/>
  <note>
Eng
</note>
  <outline>
    <contour>
      <point x="84.8" y="0.0" type="line"/>
      <point x="227.2" y="0.0" type="line"/>
      <point x="227.2" y="558.4" type="line"/>
      <point x="187.2" y="541.8" type="line"/>
      <point x="581.2" y="135.2" type="line"/>
      <point x="581.2" y="326.6" type="line"/>
      <point x="200.0" y="720.0" type="line"/>
      <point x="84.8" y="720.0" type="line"/>
    </contour>
    <contour>
      <point x="425.8" y="-240.0" type="curve" smooth="yes"/>
      <point x="574.6" y="-240.0"/>
      <point x="671.4" y="-162.4"/>
      <point x="671.4" y="-8.0" type="curve" smooth="yes"/>
      <point x="671.4" y="721.2" type="line"/>
      <point x="529.0" y="721.2" type="line"/>
      <point x="529.0" y="-8.799999999999997" type="line" smooth="yes"/>
      <point x="529.0" y="-83.2"/>
      <point x="488.2" y="-120.8"/>
      <point x="411.4" y="-120.8" type="curve" smooth="yes"/>
      <point x="383.4" y="-120.8"/>
      <point x="348.2" y="-115.6"/>
      <point x="330.6" y="-108.8" type="curve"/>
      <point x="321.0" y="-108.8" type="line"/>
      <point x="321.0" y="-228.0" type="line"/>
      <point x="346.6" y="-234.8"/>
      <point x="388.2" y="-240.0"/>
    </contour>
  </outline>
</glyph>
<glyph name="eng" format="2">
  <advance width="660.8"/>
  <unicode hex="014B"/>
  <note>
eng
</note>
  <anchor x="330.4" y="0.0" name="bottom"/>
  <anchor x="330.4" y="545.6" name="top"/>
  <outline>
    <contour>
      <point x="371.2" y="-240.0" type="curve" smooth="yes"/>
      <point x="501.6" y="-240.0"/>
      <point x="580.0" y="-151.2"/>
      <point x="580.0" y="-20.799999999999997" type="curve" smooth="yes"/>
      <point x="580.0" y="176.8" type="line"/>
      <point x="440.0" y="176.8" type="line"/>
      <point x="440.0" y="-28.799999999999997" type="line" smooth="yes"/>
      <point x="440.0" y="-95.2"/>
      <point x="412.8" y="-126.4"/>
      <point x="352.0" y="-126.4" type="curve" smooth="yes"/>
      <point x="331.6" y="-126.4"/>
      <point x="314.4" y="-122.8"/>
      <point x="296.8" y="-117.6" type="curve"/>
      <point x="287.2" y="-117.6" type="line"/>
      <point x="287.2" y="-228.0" type="line"/>
      <point x="308.0" y="-234.8"/>
      <point x="336.8" y="-240.0"/>
    </contour>
    <component base="n"/>
  </outline>
</glyph>
<glyph name="OE" format="2">
  <advance width="1087.2"/>
  <unicode hex="0152"/>
  <note>
OE
</note>
  <outline>
    <contour>
      <point x="401.6" y="-12.0" type="curve" smooth="yes"/>
      <point x="624.0" y="-12.0"/>
      <point x="755.2" y="140.0"/>
      <point x="755.2" y="360.0" type="curve" smooth="yes"/>
      <point x="755.2" y="580.0"/>
      <point x="624.0" y="732.0"/>
      <point x="401.6" y="732.0" type="curve" smooth="yes"/>
      <point x="179.2" y="732.0"/>
      <point x="48.0" y="580.0"/>
      <point x="48.0" y="360.0" type="curve" smooth="yes"/>
      <point x="48.0" y="138.4"/>
      <point x="178.0" y="-12.0"/>
    </contour>
    <contour>
      <point x="401.6" y="111.2" type="curve" smooth="yes"/>
      <point x="268.8" y="111.2"/>
      <point x="194.4" y="206.4"/>
      <point x="194.4" y="360.0" type="curve" smooth="yes"/>
      <point x="194.4" y="513.6"/>
      <point x="268.8" y="608.8"/>
      <point x="401.6" y="608.8" type="curve" smooth="yes"/>
      <point x="534.4" y="608.8"/>
      <point x="608.8" y="513.6"/>
      <point x="608.8" y="360.0" type="curve" smooth="yes"/>
      <point x="608.8" y="206.4"/>
      <point x="534.4" y="111.2"/>
    </contour>
    <contour>
      <point x="495.2" y="0.0" type="line"/>
      <point x="1036.8" y="0.0" type="line"/>
      <point x="1036.8" y="124.0" type="line"/>
      <point x="495.2" y="124.0" type="line"/>
    </contour>
    <contour>
      <point x="684.0" y="308.8" type="line"/>
      <point x="973.6" y="308.8" type="line"/>
      <point x="973.6" y="428.0" type="line"/>
      <point x="684.0" y="428.0" type="line"/>
    </contour>
    <contour>
      <point x="488.8" y="596.0" type="line"/>
      <point x="1026.4" y="596.0" type="line"/>
      <point x="1026.4" y="720.0" type="line"/>
      <point x="488.8" y="720.0" type="line"/>
    </contour>
  </outline>
</glyph>
<glyph name="oe" format="2">
  <advance width="1006.6"/>
  <unicode hex="0153"/>
  <note>
oe
</note>
  <outline>
    <contour>
      <point x="47.2" y="274.8" type="curve" smooth="yes"/>
      <point x="47.2" y="88.0"/>
      <point x="155.6" y="-9.6"/>
      <point x="315.6" y="-9.6" type="curve" smooth="yes"/>
      <point x="465.2" y="-9.6"/>
      <point x="576.0" y="88.0"/>
      <point x="576.0" y="274.8" type="curve" smooth="yes"/>
      <point x="576.0" y="461.6"/>
      <point x="465.2" y="559.2"/>
      <point x="315.6" y="559.2" type="curve" smooth="yes"/>
      <point x="158.0" y="559.2"/>
      <point x="47.2" y="461.6"/>
    </contour>
    <contour>
      <point x="190.0" y="274.8" type="curve" smooth="yes"/>
      <point x="190.0" y="392.0"/>
      <point x="233.2" y="452.0"/>
      <point x="315.6" y="452.0" type="curve" smooth="yes"/>
      <point x="398.0" y="452.0"/>
      <point x="441.2" y="392.0"/>
      <point x="441.2" y="274.8" type="curve" smooth="yes"/>
      <point x="441.2" y="157.6"/>
      <point x="398.0" y="97.6"/>
      <point x="315.6" y="97.6" type="curve" smooth="yes"/>
      <point x="233.2" y="97.6"/>
      <point x="190.0" y="157.6"/>
    </contour>
    <contour>
      <point x="758.8" y="-9.6" type="curve" smooth="yes"/>
      <point x="832.8" y="-9.6"/>
      <point x="886.0" y="2.0"/>
      <point x="922.8" y="18.0" type="curve"/>
      <point x="922.8" y="131.2" type="line"/>
      <point x="913.2" y="131.2" type="line"/>
      <point x="885.2" y="115.2"/>
      <point x="834.0" y="100.8"/>
      <point x="769.2" y="100.8" type="curve" smooth="yes"/>
      <point x="658.6" y="100.8"/>
      <point x="582.4" y="139.2"/>
      <point x="582.4" y="265.2" type="curve" smooth="yes"/>
      <point x="582.4" y="286.4" type="line" smooth="yes"/>
      <point x="582.4" y="413.6"/>
      <point x="636.0" y="455.2"/>
      <point x="707.6" y="455.2" type="curve" smooth="yes"/>
      <point x="785.6" y="455.2"/>
      <point x="822.8" y="411.2"/>
      <point x="822.8" y="330.4" type="curve" smooth="yes"/>
      <point x="822.8" y="324.0" type="line"/>
      <point x="530.8" y="324.0" type="line"/>
      <point x="530.8" y="232.0" type="line"/>
      <point x="959.0" y="232.0" type="line"/>
      <point x="960.4" y="264.8" type="line" smooth="yes"/>
      <point x="967.6" y="436.8"/>
      <point x="891.6" y="559.2"/>
      <point x="709.2" y="559.2" type="curve" smooth="yes"/>
      <point x="558.4" y="559.2"/>
      <point x="453.2" y="450.4"/>
      <point x="453.2" y="274.8" type="curve" smooth="yes"/>
      <point x="453.2" y="77.6"/>
      <point x="570.0" y="-9.6"/>
    </contour>
  </outline>
</glyph>
<glyph name="Tbar" format="2">
  <advance width="611.2"/>
  <unicode hex="0166"/>
  <note>
Tbar
</note>
  <anchor x="305.6" y="0.0" name="bottom"/>
  <anchor x="305.6" y="360.0" name="center"/>
  <anchor x="305.6" y="720.0" name="top"/>
  <outline>
    <contour>
      <point x="88.0" y="298.4" type="line"/>
      <point x="526.4" y="298.4" type="line"/>
      <point x="526.4" y="396.0" type="line"/>
      <point x="88.0" y="396.0" type="line"/>
    </contour>
    <component base="T"/>
  </outline>
</glyph>
<glyph name="tbar" format="2">
  <advance width="442.4"/>
  <unicode hex="0167"/>
  <note>
tbar
</note>
  <anchor x="221.2" y="0.0" name="bottom"/>
  <anchor x="221.2" y="272.8" name="center"/>
  <anchor x="172.4" y="687.2" name="top"/>
  <anchor x="353.0" y="586.6" name="topright"/>
  <outline>
    <contour>
      <point x="391.2" y="316.8" type="line"/>
      <point x="15.2" y="316.8" type="line"/>
      <point x="15.2" y="238.4" type="line"/>
      <point x="391.2" y="238.4" type="line"/>
    </contour>
    <component base="t"/>
  </outline>
</glyph>
<glyph name="longs" format="2">
  <advance width="341.6"/>
  <unicode hex="017F"/>
  <note>
longs
</note>
  <outline>
    <contour>
      <point x="17.6" y="545.6" type="line"/>
      <point x="17.6" y="433.6" type="line"/>
      <point x="104.8" y="433.6" type="line"/>
      <point x="104.8" y="0.0" type="line"/>
      <point x="244.8" y="0.0" type="line"/>
      <point x="244.8" y="550.4" type="line" smooth="yes"/>
      <point x="244.8" y="624.8"/>
      <point x="276.8" y="657.6"/>
      <point x="344.0" y="657.6" type="curve" smooth="yes"/>
      <point x="372.8" y="657.6"/>
      <point x="390.4" y="652.8"/>
      <point x="407.2" y="645.6" type="curve"/>
      <point x="416.8" y="645.6" type="line"/>
      <point x="416.8" y="754.4" type="line"/>
      <point x="396.8" y="761.6"/>
      <point x="369.6" y="766.4"/>
      <point x="334.4" y="766.4" type="curve" smooth="yes"/>
      <point x="189.0" y="766.4"/>
      <point x="108.0" y="697.4"/>
      <point x="104.8" y="545.6" type="curve"/>
    </contour>
  </outline>
</glyph>
<glyph name="Schwa" format="2">
  <advance width="750.8"/>
  <unicode hex="018F"/>
  <anchor x="348.2416" y="0.0" name="bottom"/>
  <anchor x="610.1742" y="22.1826" name="ogonek"/>
  <anchor x="348.2416" y="649.0178000000001" name="top"/>
  <outline>
    <contour>
      <point x="319.2" y="732.0" type="curve" smooth="yes"/>
      <point x="241.6" y="732.0"/>
      <point x="157.4" y="716.0"/>
      <point x="109.4" y="695.0" type="curve"/>
      <point x="109.4" y="569.2" type="line"/>
      <point x="122.4" y="569.2" type="line"/>
      <point x="159.6" y="589.8"/>
      <point x="233.2" y="608.8"/>
      <point x="306.8" y="608.8" type="curve" smooth="yes"/>
      <point x="454.2" y="608.8"/>
      <point x="556.4" y="550.2"/>
      <point x="556.4" y="371.8" type="curve" smooth="yes"/>
      <point x="556.4" y="344.2" type="line" smooth="yes"/>
      <point x="556.4" y="185.6"/>
      <point x="486.8" y="110.4"/>
      <point x="371.2" y="110.4" type="curve" smooth="yes"/>
      <point x="261.0" y="110.4"/>
      <point x="208.4" y="176.0"/>
      <point x="208.4" y="286.6" type="curve" smooth="yes"/>
      <point x="208.4" y="300.0" type="line"/>
      <point x="585.8" y="300.0" type="line"/>
      <point x="585.8" y="412.8" type="line"/>
      <point x="64.6" y="412.8" type="line"/>
      <point x="62.8" y="372.2" type="line" smooth="yes"/>
      <point x="54.0" y="147.8"/>
      <point x="142.4" y="-12.0"/>
      <point x="370.4" y="-12.0" type="curve" smooth="yes"/>
      <point x="565.2" y="-12.0"/>
      <point x="702.8" y="129.8"/>
      <point x="702.8" y="360.0" type="curve" smooth="yes"/>
      <point x="702.8" y="617.0"/>
      <point x="550.2" y="732.0"/>
    </contour>
  </outline>
</glyph>
<glyph name="florin" format="2">
  <advance width="616.0"/>
  <unicode hex="0192"/>
  <note>
florin
</note>
  <outline>
    <contour>
      <point x="104.0" y="-248.0" type="curve" smooth="yes"/>
      <point x="268.0" y="-248.0"/>
      <point x="354.4" y="-142.4"/>
      <point x="354.4" y="7.200000000000001" type="curve" smooth="yes"/>
      <point x="354.4" y="480.0" type="line" smooth="yes"/>
      <point x="354.4" y="568.0"/>
      <point x="392.0" y="624.8"/>
      <point x="485.6" y="624.8" type="curve" smooth="yes"/>
      <point x="513.6" y="624.8"/>
      <point x="536.4" y="620.8"/>
      <point x="557.6" y="611.6" type="curve"/>
      <point x="564.8" y="611.6" type="line"/>
      <point x="564.8" y="718.4" type="line"/>
      <point x="540.8" y="726.4"/>
      <point x="512.0" y="732.0"/>
      <point x="466.4" y="732.0" type="curve" smooth="yes"/>
      <point x="302.4" y="732.0"/>
      <point x="216.0" y="626.4"/>
      <point x="216.0" y="476.8" type="curve" smooth="yes"/>
      <point x="216.0" y="4.0" type="line" smooth="yes"/>
      <point x="216.0" y="-84.0"/>
      <point x="178.4" y="-140.8"/>
      <point x="84.8" y="-140.8" type="curve" smooth="yes"/>
      <point x="56.8" y="-140.8"/>
      <point x="34.0" y="-136.8"/>
      <point x="12.8" y="-127.6" type="curve"/>
      <point x="5.6" y="-127.6" type="line"/>
      <point x="5.6" y="-234.4" type="line"/>
      <point x="29.6" y="-242.4"/>
      <point x="58.4" y="-248.0"/>
    </contour>
    <contour>
      <point x="80.8" y="294.0" type="line"/>
      <point x="504.0" y="294.0" type="line"/>
      <point x="504.0" y="401.6" type="line"/>
      <point x="80.8" y="401.6" type="line"/>
    </contour>
  </outline>
</glyph>
<glyph name="Lj" format="2">
  <advance width="856.0"/>
  <unicode hex="01C8"/>
  <anchor x="702.0" y="545.6" name="_top"/>
  <anchor x="274.0" y="0.0" name="bottom"/>
  <anchor x="205.6" y="386.8" name="center"/>
  <anchor x="388.8" y="408.0" name="periodCAT"/>
  <anchor x="274.0" y="720.0" name="top"/>
  <anchor x="528.0" y="720.0" name="topright"/>
  <outline>
    <contour>
      <point x="84.8" y="0.0" type="line"/>
      <point x="516.0" y="0.0" type="line"/>
      <point x="516.0" y="124.0" type="line"/>
      <point x="227.2" y="124.0" type="line"/>
      <point x="227.2" y="720.0" type="line"/>
      <point x="84.8" y="720.0" type="line"/>
    </contour>
    <contour>
      <point x="552.0" y="-240.0" type="curve" smooth="yes"/>
      <point x="694.4" y="-240.0"/>
      <point x="772.8" y="-156.0"/>
      <point x="772.8" y="-20.799999999999997" type="curve" smooth="yes"/>
      <point x="772.8" y="545.6" type="line"/>
      <point x="626.0" y="545.6" type="line"/>
      <point x="623.2" y="537.6" type="line"/>
      <point x="631.6" y="501.6"/>
      <point x="632.8" y="416.8"/>
      <point x="632.8" y="376.8" type="curve" smooth="yes"/>
      <point x="632.8" y="-28.799999999999997" type="line" smooth="yes"/>
      <point x="632.8" y="-95.2"/>
      <point x="597.6" y="-126.4"/>
      <point x="536.8" y="-126.4" type="curve" smooth="yes"/>
      <point x="507.6" y="-126.4"/>
      <point x="490.4" y="-121.19999999999999"/>
      <point x="472.8" y="-114.4" type="curve"/>
      <point x="463.2" y="-114.4" type="line"/>
      <point x="463.2" y="-228.0" type="line"/>
      <point x="484.0" y="-234.8"/>
      <point x="512.8" y="-240.0"/>
    </contour>
    <contour>
      <point x="702.0" y="632.0" type="curve" smooth="yes"/>
      <point x="748.0" y="632.0"/>
      <point x="781.2" y="660.8"/>
      <point x="781.2" y="709.6" type="curve" smooth="yes"/>
      <point x="781.2" y="758.4"/>
      <point x="748.0" y="787.2"/>
      <point x="702.0" y="787.2" type="curve" smooth="yes"/>
      <point x="656.0" y="787.2"/>
      <point x="622.8" y="758.4"/>
      <point x="622.8" y="709.6" type="curve" smooth="yes"/>
      <point x="622.8" y="660.8"/>
      <point x="656.0" y="632.0"/>
    </contour>
  </outline>
</glyph>
<glyph name="lj" format="2">
  <advance width="617.6"/>
  <unicode hex="01C9"/>
  <anchor x="154.8" y="0.0" name="bottom"/>
  <anchor x="162.0" y="383.2" name="center"/>
  <anchor x="364.0" y="358.4" name="periodCAT"/>
  <anchor x="154.8" y="760.0" name="top"/>
  <anchor x="334.4" y="545.6" name="topright"/>
  <outline>
    <contour>
      <point x="84.8" y="0.0" type="line"/>
      <point x="224.8" y="0.0" type="line"/>
      <point x="224.8" y="760.0" type="line"/>
      <point x="78.0" y="760.0" type="line"/>
      <point x="75.2" y="752.0" type="line"/>
      <point x="83.6" y="716.0"/>
      <point x="84.8" y="631.2"/>
      <point x="84.8" y="591.2" type="curve" smooth="yes"/>
    </contour>
    <component base="jdotless" xOffset="309.6"/>
    <component base="_part.dot" xOffset="309.2"/>
  </outline>
</glyph>
<glyph name="Nj" format="2">
  <advance width="1063.2"/>
  <unicode hex="01CB"/>
  <anchor x="909.2" y="545.6" name="_top"/>
  <anchor x="377.6" y="0.0" name="bottom"/>
  <anchor x="377.6" y="720.0" name="top"/>
  <outline>
    <contour>
      <point x="84.8" y="0.0" type="line"/>
      <point x="227.2" y="0.0" type="line"/>
      <point x="227.2" y="501.6" type="line"/>
      <point x="528.0" y="189.2" type="line"/>
      <point x="528.0" y="0.0" type="line"/>
      <point x="670.4" y="0.0" type="line"/>
      <point x="670.4" y="720.0" type="line"/>
      <point x="528.0" y="720.0" type="line"/>
      <point x="528.0" y="381.2" type="line"/>
      <point x="200.0" y="720.0" type="line"/>
      <point x="84.8" y="720.0" type="line"/>
    </contour>
    <contour>
      <point x="759.2" y="-240.0" type="curve" smooth="yes"/>
      <point x="901.6" y="-240.0"/>
      <point x="980.0" y="-156.0"/>
      <point x="980.0" y="-20.799999999999997" type="curve" smooth="yes"/>
      <point x="980.0" y="545.6" type="line"/>
      <point x="833.2" y="545.6" type="line"/>
      <point x="830.4" y="537.6" type="line"/>
      <point x="838.8" y="501.6"/>
      <point x="840.0" y="416.8"/>
      <point x="840.0" y="376.8" type="curve" smooth="yes"/>
      <point x="840.0" y="-28.799999999999997" type="line" smooth="yes"/>
      <point x="840.0" y="-95.2"/>
      <point x="804.8" y="-126.4"/>
      <point x="744.0" y="-126.4" type="curve" smooth="yes"/>
      <point x="714.8" y="-126.4"/>
      <point x="697.6" y="-121.19999999999999"/>
      <point x="680.0" y="-114.4" type="curve"/>
      <point x="670.4" y="-114.4" type="line"/>
      <point x="670.4" y="-228.0" type="line"/>
      <point x="691.2" y="-234.8"/>
      <point x="720.0" y="-240.0"/>
    </contour>
    <contour>
      <point x="909.2" y="632.0" type="curve" smooth="yes"/>
      <point x="955.2" y="632.0"/>
      <point x="988.4" y="660.8"/>
      <point x="988.4" y="709.6" type="curve" smooth="yes"/>
      <point x="988.4" y="758.4"/>
      <point x="955.2" y="787.2"/>
      <point x="909.2" y="787.2" type="curve" smooth="yes"/>
      <point x="863.2" y="787.2"/>
      <point x="830.0" y="758.4"/>
      <point x="830.0" y="709.6" type="curve" smooth="yes"/>
      <point x="830.0" y="660.8"/>
      <point x="863.2" y="632.0"/>
    </contour>
  </outline>
</glyph>
<glyph name="nj" format="2">
  <advance width="968.8"/>
  <unicode hex="01CC"/>
  <anchor x="815.4" y="545.6" name="_top"/>
  <anchor x="330.4" y="0.0" name="bottom"/>
  <anchor x="330.4" y="545.6" name="top"/>
  <outline>
    <contour>
      <point x="84.8" y="0.0" type="line"/>
      <point x="224.8" y="0.0" type="line"/>
      <point x="224.8" y="364.0" type="line" smooth="yes"/>
      <point x="224.8" y="405.6"/>
      <point x="220.6" y="437.6"/>
      <point x="213.6" y="458.0" type="curve"/>
      <point x="192.8" y="423.2" type="line"/>
      <point x="224.0" y="434.2"/>
      <point x="267.0" y="445.6"/>
      <point x="307.2" y="445.6" type="curve" smooth="yes"/>
      <point x="388.0" y="445.6"/>
      <point x="440.0" y="418.4"/>
      <point x="440.0" y="308.8" type="curve" smooth="yes"/>
      <point x="440.0" y="0.0" type="line"/>
      <point x="580.0" y="0.0" type="line"/>
      <point x="580.0" y="315.2" type="line" smooth="yes"/>
      <point x="580.0" y="511.2"/>
      <point x="456.0" y="559.2"/>
      <point x="320.0" y="559.2" type="curve" smooth="yes"/>
      <point x="240.0" y="559.2"/>
      <point x="138.0" y="536.0"/>
      <point x="78.0" y="511.2" type="curve"/>
      <point x="75.2" y="503.2" type="line"/>
      <point x="83.6" y="467.2"/>
      <point x="84.8" y="380.8"/>
      <point x="84.8" y="340.8" type="curve" smooth="yes"/>
    </contour>
    <contour>
      <point x="664.8" y="-240.0" type="curve" smooth="yes"/>
      <point x="807.2" y="-240.0"/>
      <point x="885.6" y="-156.0"/>
      <point x="885.6" y="-20.799999999999997" type="curve" smooth="yes"/>
      <point x="885.6" y="545.6" type="line"/>
      <point x="738.8" y="545.6" type="line"/>
      <point x="736.0" y="537.6" type="line"/>
      <point x="744.4" y="501.6"/>
      <point x="745.6" y="416.8"/>
      <point x="745.6" y="376.8" type="curve" smooth="yes"/>
      <point x="745.6" y="-28.799999999999997" type="line" smooth="yes"/>
      <point x="745.6" y="-95.2"/>
      <point x="710.4" y="-126.4"/>
      <point x="649.6" y="-126.4" type="curve" smooth="yes"/>
      <point x="620.4" y="-126.4"/>
      <point x="603.2" y="-121.19999999999999"/>
      <point x="585.6" y="-114.4" type="curve"/>
      <point x="576.0" y="-114.4" type="line"/>
      <point x="576.0" y="-228.0" type="line"/>
      <point x="596.8" y="-234.8"/>
      <point x="625.6" y="-240.0"/>
    </contour>
    <contour>
      <point x="815.4" y="632.0" type="curve" smooth="yes"/>
      <point x="861.4" y="632.0"/>
      <point x="894.6" y="660.8"/>
      <point x="894.6" y="709.6" type="curve" smooth="yes"/>
      <point x="894.6" y="758.4"/>
      <point x="861.4" y="787.2"/>
      <point x="815.4" y="787.2" type="curve" smooth="yes"/>
      <point x="769.4" y="787.2"/>
      <point x="736.2" y="758.4"/>
      <point x="736.2" y="709.6" type="curve" smooth="yes"/>
      <point x="736.2" y="660.8"/>
      <point x="769.4" y="632.0"/>
    </contour>
  </outline>
</glyph>
<glyph name="jdotless" format="2">
  <advance width="308.0"/>
  <unicode hex="0237"/>
  <note>
dotlessj
</note>
  <anchor x="154.0" y="-240.0" name="bottom"/>
  <anchor x="154.0" y="545.6" name="top"/>
  <outline>
    <contour>
      <point x="4.0" y="-240.0" type="curve" smooth="yes"/>
      <point x="146.4" y="-240.0"/>
      <point x="224.8" y="-156.0"/>
      <point x="224.8" y="-20.799999999999997" type="curve" smooth="yes"/>
      <point x="224.8" y="545.6" type="line"/>
      <point x="78.0" y="545.6" type="line"/>
      <point x="75.2" y="537.6" type="line"/>
      <point x="83.6" y="501.6"/>
      <point x="84.8" y="416.8"/>
      <point x="84.8" y="376.8" type="curve" smooth="yes"/>
      <point x="84.8" y="-28.799999999999997" type="line" smooth="yes"/>
      <point x="84.8" y="-95.2"/>
      <point x="49.6" y="-126.4"/>
      <point x="-11.2" y="-126.4" type="curve" smooth="yes"/>
      <point x="-40.4" y="-126.4"/>
      <point x="-57.6" y="-121.19999999999999"/>
      <point x="-75.2" y="-114.4" type="curve"/>
      <point x="-84.8" y="-114.4" type="line"/>
      <point x="-84.8" y="-228.0" type="line"/>
      <point x="-64.0" y="-234.8"/>
      <point x="-35.2" y="-240.0"/>
    </contour>
  </outline>
</glyph>
<glyph name="schwa" format="2">
  <advance width="614.0"/>
  <unicode hex="0259"/>
  <note>
e
</note>
  <anchor x="307.4" y="549.6" name="bottom"/>
  <anchor x="85.2" y="531.6" name="ogonek"/>
  <anchor x="307.4" y="4.0" name="top"/>
  <outline>
    <contour>
      <point x="249.2" y="559.2" type="curve" smooth="yes"/>
      <point x="175.2" y="559.2"/>
      <point x="122.0" y="547.6"/>
      <point x="85.2" y="531.6" type="curve"/>
      <point x="85.2" y="418.4" type="line"/>
      <point x="94.8" y="418.4" type="line"/>
      <point x="122.8" y="434.4"/>
      <point x="174.0" y="448.8"/>
      <point x="238.8" y="448.8" type="curve" smooth="yes"/>
      <point x="349.4" y="448.8"/>
      <point x="425.6" y="410.4"/>
      <point x="425.6" y="284.4" type="curve" smooth="yes"/>
      <point x="425.6" y="263.2" type="line" smooth="yes"/>
      <point x="425.6" y="136.0"/>
      <point x="372.0" y="94.4"/>
      <point x="300.4" y="94.4" type="curve" smooth="yes"/>
      <point x="222.4" y="94.4"/>
      <point x="185.2" y="138.4"/>
      <point x="185.2" y="219.2" type="curve" smooth="yes"/>
      <point x="185.2" y="225.6" type="line"/>
      <point x="477.2" y="225.6" type="line"/>
      <point x="477.2" y="317.6" type="line"/>
      <point x="49.0" y="317.6" type="line"/>
      <point x="47.6" y="284.8" type="line" smooth="yes"/>
      <point x="40.4" y="112.8"/>
      <point x="116.4" y="-9.6"/>
      <point x="298.8" y="-9.6" type="curve" smooth="yes"/>
      <point x="461.6" y="-9.6"/>
      <point x="566.8" y="99.2"/>
      <point x="566.8" y="274.8" type="curve" smooth="yes"/>
      <point x="566.8" y="472.0"/>
      <point x="450.0" y="559.2"/>
    </contour>
  </outline>
</glyph>
<glyph name="primemod" format="2">
  <advance width="204.0"/>
  <unicode hex="02B9"/>
  <outline>
    <contour>
      <point x="68.8" y="720.0" type="line"/>
      <point x="20.4" y="474.4" type="line"/>
      <point x="123.6" y="474.4" type="line"/>
      <point x="183.2" y="720.0" type="line"/>
    </contour>
  </outline>
</glyph>
<glyph name="apostrophemod" format="2">
  <advance width="663.2"/>
  <unicode hex="02BC"/>
  <outline>
    <contour>
      <point x="212.0" y="692.4" type="curve"/>
      <point x="169.0" y="611.0" type="line"/>
      <point x="169.0" y="605.6" type="line"/>
      <point x="241.60000000000002" y="605.6" type="line"/>
      <point x="275.4" y="671.4" type="line"/>
      <point x="282.8" y="687.4"/>
      <point x="297.4" y="714.0"/>
      <point x="297.4" y="742.0" type="curve" smooth="yes"/>
      <point x="297.4" y="782.8"/>
      <point x="270.2" y="804.0"/>
      <point x="235.60000000000002" y="804.0" type="curve" smooth="yes"/>
      <point x="200.4" y="804.0"/>
      <point x="175.4" y="781.0"/>
      <point x="175.4" y="744.8" type="curve" smooth="yes"/>
      <point x="175.4" y="714.8"/>
      <point x="196.0" y="699.4"/>
    </contour>
  </outline>
</glyph>
<glyph name="ringhalfright" format="2">
  <advance width="203.2"/>
  <unicode hex="02BE"/>
  <note>
uni02BE
</note>
  <outline>
    <contour>
      <point x="28.8" y="439.2" type="line"/>
      <point x="108.0" y="439.2"/>
      <point x="180.8" y="475.2"/>
      <point x="180.8" y="579.6" type="curve" smooth="yes"/>
      <point x="180.8" y="684.0"/>
      <point x="108.0" y="720.0"/>
      <point x="28.8" y="720.0" type="curve"/>
      <point x="28.8" y="652.0" type="line"/>
      <point x="76.8" y="649.6"/>
      <point x="105.6" y="632.0"/>
      <point x="105.6" y="579.6" type="curve" smooth="yes"/>
      <point x="105.6" y="527.2"/>
      <point x="76.8" y="509.6"/>
      <point x="28.8" y="507.2" type="curve"/>
    </contour>
  </outline>
</glyph>
<glyph name="ringhalfleft" format="2">
  <advance width="203.2"/>
  <unicode hex="02BF"/>
  <note>
uni02BF
</note>
  <outline>
    <contour>
      <point x="174.4" y="439.2" type="curve"/>
      <point x="174.4" y="507.2" type="line"/>
      <point x="126.4" y="509.6"/>
      <point x="97.6" y="527.2"/>
      <point x="97.6" y="579.6" type="curve" smooth="yes"/>
      <point x="97.6" y="632.0"/>
      <point x="126.4" y="649.6"/>
      <point x="174.4" y="652.0" type="curve"/>
      <point x="174.4" y="720.0" type="line"/>
      <point x="95.2" y="720.0"/>
      <point x="22.4" y="684.0"/>
      <point x="22.4" y="579.6" type="curve" smooth="yes"/>
      <point x="22.4" y="475.2"/>
      <point x="95.2" y="439.2"/>
    </contour>
  </outline>
</glyph>
<glyph name="verticallinemod" format="2">
  <advance width="204.0"/>
  <unicode hex="02C8"/>
  <outline>
    <contour>
      <point x="50.4" y="476.0" type="line"/>
      <point x="153.6" y="476.0" type="line"/>
      <point x="159.2" y="760.0" type="line"/>
      <point x="44.8" y="760.0" type="line"/>
    </contour>
  </outline>
</glyph>
<glyph name="firsttonechinese" format="2">
  <advance width="636.0"/>
  <unicode hex="02C9"/>
  <note>
uni02C9
</note>
  <outline>
    <contour>
      <point x="152.8" y="720.0" type="line"/>
      <point x="152.8" y="634.8" type="line"/>
      <point x="483.2" y="634.8" type="line"/>
      <point x="483.2" y="720.0" type="line"/>
    </contour>
  </outline>
</glyph>
<glyph name="gravecomb" format="2">
  <unicode hex="0300"/>
  <note>
grave
</note>
  <anchor x="276.6" y="545.6" name="_top"/>
  <anchor x="276.6" y="760.0" name="top"/>
  <outline>
    <contour>
      <point x="292.0" y="604.0" type="line"/>
      <point x="388.8" y="604.0" type="line"/>
      <point x="388.8" y="608.0" type="line"/>
      <point x="301.0" y="760.0" type="line"/>
      <point x="163.8" y="760.0" type="line"/>
      <point x="163.8" y="756.0" type="line"/>
    </contour>
  </outline>
</glyph>
<glyph name="acutecomb" format="2">
  <unicode hex="0301"/>
  <note>
acute
</note>
  <anchor x="357.0" y="545.6" name="_top"/>
  <anchor x="357.0" y="760.0" name="top"/>
  <outline>
    <contour>
      <point x="276.2" y="604.0" type="line"/>
      <point x="373.0" y="604.0" type="line"/>
      <point x="500.8" y="756.0" type="line"/>
      <point x="500.8" y="760.0" type="line"/>
      <point x="364.0" y="760.0" type="line"/>
      <point x="276.2" y="608.0" type="line"/>
    </contour>
  </outline>
</glyph>
<glyph name="circumflexcomb" format="2">
  <unicode hex="0302"/>
  <note>
circumflex
</note>
  <anchor x="318.0" y="545.6" name="_top"/>
  <anchor x="318.0" y="760.0" name="top"/>
  <outline>
    <contour>
      <point x="150.4" y="604.0" type="line"/>
      <point x="240.8" y="604.0" type="line"/>
      <point x="318.0" y="690.8" type="line"/>
      <point x="395.2" y="604.0" type="line"/>
      <point x="485.6" y="604.0" type="line"/>
      <point x="485.6" y="608.0" type="line"/>
      <point x="378.4" y="760.0" type="line"/>
      <point x="257.6" y="760.0" type="line"/>
      <point x="150.4" y="608.0" type="line"/>
    </contour>
  </outline>
</glyph>
<glyph name="tildecomb" format="2">
  <unicode hex="0303"/>
  <note>
tilde
</note>
  <anchor x="318.0" y="545.6" name="_top"/>
  <anchor x="318.0" y="760.0" name="top"/>
  <outline>
    <contour>
      <point x="135.2" y="617.6" type="curve"/>
      <point x="209.6" y="617.6" type="line"/>
      <point x="209.6" y="655.2"/>
      <point x="216.0" y="685.6"/>
      <point x="248.0" y="685.6" type="curve" smooth="yes"/>
      <point x="270.4" y="685.6"/>
      <point x="285.6" y="670.4"/>
      <point x="303.2" y="654.4" type="curve" smooth="yes"/>
      <point x="324.6" y="634.6"/>
      <point x="352.0" y="617.6"/>
      <point x="391.2" y="617.6" type="curve" smooth="yes"/>
      <point x="466.4" y="617.6"/>
      <point x="500.8" y="683.2"/>
      <point x="500.8" y="760.0" type="curve"/>
      <point x="426.4" y="760.0" type="line"/>
      <point x="426.4" y="722.4"/>
      <point x="419.6" y="692.0"/>
      <point x="387.6" y="692.0" type="curve" smooth="yes"/>
      <point x="366.0" y="692.0"/>
      <point x="350.8" y="706.0"/>
      <point x="334.0" y="721.6" type="curve" smooth="yes"/>
      <point x="312.2" y="741.8"/>
      <point x="284.8" y="760.0"/>
      <point x="244.8" y="760.0" type="curve" smooth="yes"/>
      <point x="169.6" y="760.0"/>
      <point x="135.2" y="694.4"/>
    </contour>
  </outline>
</glyph>
<glyph name="macroncomb" format="2">
  <unicode hex="0304"/>
  <note>
macron
</note>
  <anchor x="318.0" y="545.6" name="_top"/>
  <anchor x="318.0" y="720.0" name="top"/>
  <outline>
    <contour>
      <point x="152.8" y="720.0" type="line"/>
      <point x="152.8" y="632.8" type="line"/>
      <point x="483.2" y="632.8" type="line"/>
      <point x="483.2" y="720.0" type="line"/>
    </contour>
  </outline>
</glyph>
<glyph name="brevecomb" format="2">
  <unicode hex="0306"/>
  <note>
breve
</note>
  <anchor x="318.0" y="545.6" name="_top"/>
  <anchor x="318.0" y="760.0" name="top"/>
  <outline>
    <contour>
      <point x="318.0" y="612.0" type="curve" smooth="yes"/>
      <point x="417.6" y="612.0"/>
      <point x="462.4" y="680.8"/>
      <point x="460.8" y="760.0" type="curve"/>
      <point x="390.4" y="760.0" type="line"/>
      <point x="388.0" y="712.0"/>
      <point x="370.4" y="683.2"/>
      <point x="318.0" y="683.2" type="curve" smooth="yes"/>
      <point x="265.6" y="683.2"/>
      <point x="248.0" y="712.0"/>
      <point x="245.6" y="760.0" type="curve"/>
      <point x="175.2" y="760.0" type="line"/>
      <point x="173.6" y="680.8"/>
      <point x="218.4" y="612.0"/>
    </contour>
  </outline>
</glyph>
<glyph name="dotaccentcomb" format="2">
  <unicode hex="0307"/>
  <note>
dotaccent
</note>
  <anchor x="318.0" y="545.6" name="_top"/>
  <anchor x="318.0" y="750.4" name="top"/>
  <outline>
    <contour>
      <point x="318.0" y="617.6" type="curve" smooth="yes"/>
      <point x="355.6" y="617.6"/>
      <point x="384.4" y="642.0"/>
      <point x="384.4" y="684.0" type="curve" smooth="yes"/>
      <point x="384.4" y="724.6"/>
      <point x="355.6" y="750.4"/>
      <point x="318.0" y="750.4" type="curve" smooth="yes"/>
      <point x="280.4" y="750.4"/>
      <point x="251.6" y="724.6"/>
      <point x="251.6" y="684.0" type="curve" smooth="yes"/>
      <point x="251.6" y="642.0"/>
      <point x="280.4" y="617.6"/>
    </contour>
  </outline>
</glyph>
<glyph name="dieresiscomb" format="2">
  <unicode hex="0308"/>
  <note>
dieresis
</note>
  <anchor x="318.0" y="545.6" name="_top"/>
  <anchor x="318.0" y="748.8" name="top"/>
  <outline>
    <contour>
      <point x="416.0" y="619.2" type="curve" smooth="yes"/>
      <point x="452.8" y="619.2"/>
      <point x="480.8" y="642.8"/>
      <point x="480.8" y="684.0" type="curve" smooth="yes"/>
      <point x="480.8" y="723.8"/>
      <point x="452.8" y="748.8"/>
      <point x="416.0" y="748.8" type="curve" smooth="yes"/>
      <point x="379.2" y="748.8"/>
      <point x="351.2" y="723.8"/>
      <point x="351.2" y="684.0" type="curve" smooth="yes"/>
      <point x="351.2" y="642.8"/>
      <point x="379.2" y="619.2"/>
    </contour>
    <contour>
      <point x="220.0" y="619.2" type="curve" smooth="yes"/>
      <point x="256.8" y="619.2"/>
      <point x="284.8" y="642.8"/>
      <point x="284.8" y="684.0" type="curve" smooth="yes"/>
      <point x="284.8" y="723.8"/>
      <point x="256.8" y="748.8"/>
      <point x="220.0" y="748.8" type="curve" smooth="yes"/>
      <point x="183.2" y="748.8"/>
      <point x="155.2" y="723.8"/>
      <point x="155.2" y="684.0" type="curve" smooth="yes"/>
      <point x="155.2" y="642.8"/>
      <point x="183.2" y="619.2"/>
    </contour>
  </outline>
</glyph>
